%TF.GenerationSoftware,KiCad,Pcbnew,(6.0.10)*%
%TF.CreationDate,2023-02-14T20:35:35-05:00*%
%TF.ProjectId,starterProject,73746172-7465-4725-9072-6f6a6563742e,rev?*%
%TF.SameCoordinates,Original*%
%TF.FileFunction,Legend,Bot*%
%TF.FilePolarity,Positive*%
%FSLAX46Y46*%
G04 Gerber Fmt 4.6, Leading zero omitted, Abs format (unit mm)*
G04 Created by KiCad (PCBNEW (6.0.10)) date 2023-02-14 20:35:35*
%MOMM*%
%LPD*%
G01*
G04 APERTURE LIST*
%ADD10C,0.150000*%
%ADD11C,0.010000*%
G04 APERTURE END LIST*
D10*
X124173142Y-81249619D02*
X124125523Y-81202000D01*
X124030285Y-81154380D01*
X123792190Y-81154380D01*
X123696952Y-81202000D01*
X123649333Y-81249619D01*
X123601714Y-81344857D01*
X123601714Y-81440095D01*
X123649333Y-81582952D01*
X124220761Y-82154380D01*
X123601714Y-82154380D01*
X122982666Y-81154380D02*
X122887428Y-81154380D01*
X122792190Y-81202000D01*
X122744571Y-81249619D01*
X122696952Y-81344857D01*
X122649333Y-81535333D01*
X122649333Y-81773428D01*
X122696952Y-81963904D01*
X122744571Y-82059142D01*
X122792190Y-82106761D01*
X122887428Y-82154380D01*
X122982666Y-82154380D01*
X123077904Y-82106761D01*
X123125523Y-82059142D01*
X123173142Y-81963904D01*
X123220761Y-81773428D01*
X123220761Y-81535333D01*
X123173142Y-81344857D01*
X123125523Y-81249619D01*
X123077904Y-81202000D01*
X122982666Y-81154380D01*
X122268380Y-81249619D02*
X122220761Y-81202000D01*
X122125523Y-81154380D01*
X121887428Y-81154380D01*
X121792190Y-81202000D01*
X121744571Y-81249619D01*
X121696952Y-81344857D01*
X121696952Y-81440095D01*
X121744571Y-81582952D01*
X122316000Y-82154380D01*
X121696952Y-82154380D01*
X121363619Y-81154380D02*
X120744571Y-81154380D01*
X121077904Y-81535333D01*
X120935047Y-81535333D01*
X120839809Y-81582952D01*
X120792190Y-81630571D01*
X120744571Y-81725809D01*
X120744571Y-81963904D01*
X120792190Y-82059142D01*
X120839809Y-82106761D01*
X120935047Y-82154380D01*
X121220761Y-82154380D01*
X121316000Y-82106761D01*
X121363619Y-82059142D01*
X119554095Y-81630571D02*
X119220761Y-81630571D01*
X119077904Y-82154380D02*
X119554095Y-82154380D01*
X119554095Y-81154380D01*
X119077904Y-81154380D01*
X118506476Y-82154380D02*
X118601714Y-82106761D01*
X118649333Y-82011523D01*
X118649333Y-81154380D01*
X117744571Y-82106761D02*
X117839809Y-82154380D01*
X118030285Y-82154380D01*
X118125523Y-82106761D01*
X118173142Y-82011523D01*
X118173142Y-81630571D01*
X118125523Y-81535333D01*
X118030285Y-81487714D01*
X117839809Y-81487714D01*
X117744571Y-81535333D01*
X117696952Y-81630571D01*
X117696952Y-81725809D01*
X118173142Y-81821047D01*
X116839809Y-82106761D02*
X116935047Y-82154380D01*
X117125523Y-82154380D01*
X117220761Y-82106761D01*
X117268380Y-82059142D01*
X117316000Y-81963904D01*
X117316000Y-81678190D01*
X117268380Y-81582952D01*
X117220761Y-81535333D01*
X117125523Y-81487714D01*
X116935047Y-81487714D01*
X116839809Y-81535333D01*
X116554095Y-81487714D02*
X116173142Y-81487714D01*
X116411238Y-81154380D02*
X116411238Y-82011523D01*
X116363619Y-82106761D01*
X116268380Y-82154380D01*
X116173142Y-82154380D01*
X115839809Y-82154380D02*
X115839809Y-81487714D01*
X115839809Y-81678190D02*
X115792190Y-81582952D01*
X115744571Y-81535333D01*
X115649333Y-81487714D01*
X115554095Y-81487714D01*
X115220761Y-82154380D02*
X115220761Y-81487714D01*
X115220761Y-81154380D02*
X115268380Y-81202000D01*
X115220761Y-81249619D01*
X115173142Y-81202000D01*
X115220761Y-81154380D01*
X115220761Y-81249619D01*
X114316000Y-82106761D02*
X114411238Y-82154380D01*
X114601714Y-82154380D01*
X114696952Y-82106761D01*
X114744571Y-82059142D01*
X114792190Y-81963904D01*
X114792190Y-81678190D01*
X114744571Y-81582952D01*
X114696952Y-81535333D01*
X114601714Y-81487714D01*
X114411238Y-81487714D01*
X114316000Y-81535333D01*
X113458857Y-82154380D02*
X113458857Y-81630571D01*
X113506476Y-81535333D01*
X113601714Y-81487714D01*
X113792190Y-81487714D01*
X113887428Y-81535333D01*
X113458857Y-82106761D02*
X113554095Y-82154380D01*
X113792190Y-82154380D01*
X113887428Y-82106761D01*
X113935047Y-82011523D01*
X113935047Y-81916285D01*
X113887428Y-81821047D01*
X113792190Y-81773428D01*
X113554095Y-81773428D01*
X113458857Y-81725809D01*
X112839809Y-82154380D02*
X112935047Y-82106761D01*
X112982666Y-82011523D01*
X112982666Y-81154380D01*
X111839809Y-81154380D02*
X111268380Y-81154380D01*
X111554095Y-82154380D02*
X111554095Y-81154380D01*
X110506476Y-81487714D02*
X110506476Y-82154380D01*
X110935047Y-81487714D02*
X110935047Y-82011523D01*
X110887428Y-82106761D01*
X110792190Y-82154380D01*
X110649333Y-82154380D01*
X110554095Y-82106761D01*
X110506476Y-82059142D01*
X110173142Y-81487714D02*
X109792190Y-81487714D01*
X110030285Y-81154380D02*
X110030285Y-82011523D01*
X109982666Y-82106761D01*
X109887428Y-82154380D01*
X109792190Y-82154380D01*
X109316000Y-82154380D02*
X109411238Y-82106761D01*
X109458857Y-82059142D01*
X109506476Y-81963904D01*
X109506476Y-81678190D01*
X109458857Y-81582952D01*
X109411238Y-81535333D01*
X109316000Y-81487714D01*
X109173142Y-81487714D01*
X109077904Y-81535333D01*
X109030285Y-81582952D01*
X108982666Y-81678190D01*
X108982666Y-81963904D01*
X109030285Y-82059142D01*
X109077904Y-82106761D01*
X109173142Y-82154380D01*
X109316000Y-82154380D01*
X108554095Y-82154380D02*
X108554095Y-81487714D01*
X108554095Y-81678190D02*
X108506476Y-81582952D01*
X108458857Y-81535333D01*
X108363619Y-81487714D01*
X108268380Y-81487714D01*
X107935047Y-82154380D02*
X107935047Y-81487714D01*
X107935047Y-81154380D02*
X107982666Y-81202000D01*
X107935047Y-81249619D01*
X107887428Y-81202000D01*
X107935047Y-81154380D01*
X107935047Y-81249619D01*
X107030285Y-82154380D02*
X107030285Y-81630571D01*
X107077904Y-81535333D01*
X107173142Y-81487714D01*
X107363619Y-81487714D01*
X107458857Y-81535333D01*
X107030285Y-82106761D02*
X107125523Y-82154380D01*
X107363619Y-82154380D01*
X107458857Y-82106761D01*
X107506476Y-82011523D01*
X107506476Y-81916285D01*
X107458857Y-81821047D01*
X107363619Y-81773428D01*
X107125523Y-81773428D01*
X107030285Y-81725809D01*
X106411238Y-82154380D02*
X106506476Y-82106761D01*
X106554095Y-82011523D01*
X106554095Y-81154380D01*
X120196952Y-83764380D02*
X120196952Y-82764380D01*
X120196952Y-83240571D02*
X119625523Y-83240571D01*
X119625523Y-83764380D02*
X119625523Y-82764380D01*
X118720761Y-83097714D02*
X118720761Y-83764380D01*
X119149333Y-83097714D02*
X119149333Y-83621523D01*
X119101714Y-83716761D01*
X119006476Y-83764380D01*
X118863619Y-83764380D01*
X118768380Y-83716761D01*
X118720761Y-83669142D01*
X117816000Y-83764380D02*
X117816000Y-83240571D01*
X117863619Y-83145333D01*
X117958857Y-83097714D01*
X118149333Y-83097714D01*
X118244571Y-83145333D01*
X117816000Y-83716761D02*
X117911238Y-83764380D01*
X118149333Y-83764380D01*
X118244571Y-83716761D01*
X118292190Y-83621523D01*
X118292190Y-83526285D01*
X118244571Y-83431047D01*
X118149333Y-83383428D01*
X117911238Y-83383428D01*
X117816000Y-83335809D01*
X117339809Y-83097714D02*
X117339809Y-83764380D01*
X117339809Y-83192952D02*
X117292190Y-83145333D01*
X117196952Y-83097714D01*
X117054095Y-83097714D01*
X116958857Y-83145333D01*
X116911238Y-83240571D01*
X116911238Y-83764380D01*
X115482666Y-83288190D02*
X115482666Y-83764380D01*
X115816000Y-82764380D02*
X115482666Y-83288190D01*
X115149333Y-82764380D01*
X114816000Y-83764380D02*
X114816000Y-83097714D01*
X114816000Y-82764380D02*
X114863619Y-82812000D01*
X114816000Y-82859619D01*
X114768380Y-82812000D01*
X114816000Y-82764380D01*
X114816000Y-82859619D01*
X113625523Y-83716761D02*
X113482666Y-83764380D01*
X113244571Y-83764380D01*
X113149333Y-83716761D01*
X113101714Y-83669142D01*
X113054095Y-83573904D01*
X113054095Y-83478666D01*
X113101714Y-83383428D01*
X113149333Y-83335809D01*
X113244571Y-83288190D01*
X113435047Y-83240571D01*
X113530285Y-83192952D01*
X113577904Y-83145333D01*
X113625523Y-83050095D01*
X113625523Y-82954857D01*
X113577904Y-82859619D01*
X113530285Y-82812000D01*
X113435047Y-82764380D01*
X113196952Y-82764380D01*
X113054095Y-82812000D01*
X112625523Y-83764380D02*
X112625523Y-82764380D01*
X112196952Y-83764380D02*
X112196952Y-83240571D01*
X112244571Y-83145333D01*
X112339809Y-83097714D01*
X112482666Y-83097714D01*
X112577904Y-83145333D01*
X112625523Y-83192952D01*
X111339809Y-83716761D02*
X111435047Y-83764380D01*
X111625523Y-83764380D01*
X111720761Y-83716761D01*
X111768380Y-83621523D01*
X111768380Y-83240571D01*
X111720761Y-83145333D01*
X111625523Y-83097714D01*
X111435047Y-83097714D01*
X111339809Y-83145333D01*
X111292190Y-83240571D01*
X111292190Y-83335809D01*
X111768380Y-83431047D01*
X110863619Y-83097714D02*
X110863619Y-83764380D01*
X110863619Y-83192952D02*
X110816000Y-83145333D01*
X110720761Y-83097714D01*
X110577904Y-83097714D01*
X110482666Y-83145333D01*
X110435047Y-83240571D01*
X110435047Y-83764380D01*
X120173142Y-84469619D02*
X120125523Y-84422000D01*
X120030285Y-84374380D01*
X119792190Y-84374380D01*
X119696952Y-84422000D01*
X119649333Y-84469619D01*
X119601714Y-84564857D01*
X119601714Y-84660095D01*
X119649333Y-84802952D01*
X120220761Y-85374380D01*
X119601714Y-85374380D01*
X118982666Y-84374380D02*
X118887428Y-84374380D01*
X118792190Y-84422000D01*
X118744571Y-84469619D01*
X118696952Y-84564857D01*
X118649333Y-84755333D01*
X118649333Y-84993428D01*
X118696952Y-85183904D01*
X118744571Y-85279142D01*
X118792190Y-85326761D01*
X118887428Y-85374380D01*
X118982666Y-85374380D01*
X119077904Y-85326761D01*
X119125523Y-85279142D01*
X119173142Y-85183904D01*
X119220761Y-84993428D01*
X119220761Y-84755333D01*
X119173142Y-84564857D01*
X119125523Y-84469619D01*
X119077904Y-84422000D01*
X118982666Y-84374380D01*
X118268380Y-84469619D02*
X118220761Y-84422000D01*
X118125523Y-84374380D01*
X117887428Y-84374380D01*
X117792190Y-84422000D01*
X117744571Y-84469619D01*
X117696952Y-84564857D01*
X117696952Y-84660095D01*
X117744571Y-84802952D01*
X118316000Y-85374380D01*
X117696952Y-85374380D01*
X117363619Y-84374380D02*
X116744571Y-84374380D01*
X117077904Y-84755333D01*
X116935047Y-84755333D01*
X116839809Y-84802952D01*
X116792190Y-84850571D01*
X116744571Y-84945809D01*
X116744571Y-85183904D01*
X116792190Y-85279142D01*
X116839809Y-85326761D01*
X116935047Y-85374380D01*
X117220761Y-85374380D01*
X117316000Y-85326761D01*
X117363619Y-85279142D01*
X116316000Y-84993428D02*
X115554095Y-84993428D01*
X114887428Y-84374380D02*
X114792190Y-84374380D01*
X114696952Y-84422000D01*
X114649333Y-84469619D01*
X114601714Y-84564857D01*
X114554095Y-84755333D01*
X114554095Y-84993428D01*
X114601714Y-85183904D01*
X114649333Y-85279142D01*
X114696952Y-85326761D01*
X114792190Y-85374380D01*
X114887428Y-85374380D01*
X114982666Y-85326761D01*
X115030285Y-85279142D01*
X115077904Y-85183904D01*
X115125523Y-84993428D01*
X115125523Y-84755333D01*
X115077904Y-84564857D01*
X115030285Y-84469619D01*
X114982666Y-84422000D01*
X114887428Y-84374380D01*
X114173142Y-84469619D02*
X114125523Y-84422000D01*
X114030285Y-84374380D01*
X113792190Y-84374380D01*
X113696952Y-84422000D01*
X113649333Y-84469619D01*
X113601714Y-84564857D01*
X113601714Y-84660095D01*
X113649333Y-84802952D01*
X114220761Y-85374380D01*
X113601714Y-85374380D01*
X113173142Y-84993428D02*
X112411238Y-84993428D01*
X111411238Y-85374380D02*
X111982666Y-85374380D01*
X111696952Y-85374380D02*
X111696952Y-84374380D01*
X111792190Y-84517238D01*
X111887428Y-84612476D01*
X111982666Y-84660095D01*
X110554095Y-84707714D02*
X110554095Y-85374380D01*
X110792190Y-84326761D02*
X111030285Y-85041047D01*
X110411238Y-85041047D01*
%TO.C,G\u002A\u002A\u002A*%
G36*
X111120058Y-75107977D02*
G01*
X108991425Y-75107977D01*
X108991425Y-74508243D01*
X110461196Y-74508243D01*
X110461196Y-72143095D01*
X111120058Y-72143095D01*
X111120058Y-75107977D01*
G37*
D11*
X111120058Y-75107977D02*
X108991425Y-75107977D01*
X108991425Y-74508243D01*
X110461196Y-74508243D01*
X110461196Y-72143095D01*
X111120058Y-72143095D01*
X111120058Y-75107977D01*
G36*
X128078204Y-74366524D02*
G01*
X128091944Y-74368791D01*
X128120583Y-74374010D01*
X128162868Y-74381942D01*
X128217548Y-74392345D01*
X128283370Y-74404978D01*
X128359084Y-74419601D01*
X128443436Y-74435973D01*
X128535174Y-74453853D01*
X128633048Y-74472999D01*
X128735805Y-74493172D01*
X129392300Y-74622277D01*
X129436578Y-74677183D01*
X129511108Y-74771220D01*
X129650066Y-74954649D01*
X129791808Y-75151642D01*
X129935311Y-75360417D01*
X130079551Y-75579191D01*
X130223507Y-75806185D01*
X130366155Y-76039615D01*
X130506472Y-76277701D01*
X130643436Y-76518661D01*
X130776025Y-76760714D01*
X130903214Y-77002078D01*
X131023983Y-77240971D01*
X131137307Y-77475613D01*
X131242164Y-77704221D01*
X131337531Y-77925015D01*
X131422386Y-78136212D01*
X131433686Y-78165910D01*
X131458274Y-78232699D01*
X131483603Y-78304074D01*
X131509022Y-78377990D01*
X131533882Y-78452397D01*
X131557534Y-78525251D01*
X131579329Y-78594502D01*
X131598617Y-78658105D01*
X131614750Y-78714012D01*
X131627076Y-78760177D01*
X131634949Y-78794551D01*
X131637717Y-78815089D01*
X131637762Y-78816026D01*
X131640456Y-78818842D01*
X131647966Y-78815268D01*
X131661198Y-78804404D01*
X131681057Y-78785349D01*
X131708448Y-78757206D01*
X131744278Y-78719073D01*
X131789450Y-78670051D01*
X131844871Y-78609241D01*
X131869916Y-78581567D01*
X132012886Y-78419362D01*
X132143936Y-78262637D01*
X132265158Y-78108458D01*
X132378643Y-77953890D01*
X132486481Y-77795999D01*
X132590765Y-77631850D01*
X132693584Y-77458508D01*
X132797030Y-77273040D01*
X132812685Y-77244325D01*
X132838035Y-77198438D01*
X132860165Y-77159141D01*
X132877884Y-77128510D01*
X132890004Y-77108619D01*
X132895334Y-77101545D01*
X132898083Y-77104803D01*
X132908088Y-77120767D01*
X132924125Y-77148208D01*
X132945023Y-77185082D01*
X132969616Y-77229344D01*
X132996736Y-77278953D01*
X133035980Y-77350545D01*
X133141671Y-77535509D01*
X133247308Y-77708316D01*
X133355088Y-77872224D01*
X133467205Y-78030494D01*
X133585854Y-78186387D01*
X133713230Y-78343162D01*
X133730744Y-78363999D01*
X133776959Y-78418221D01*
X133825467Y-78474187D01*
X133874937Y-78530441D01*
X133924039Y-78585527D01*
X133971442Y-78637991D01*
X134015815Y-78686377D01*
X134055828Y-78729229D01*
X134090151Y-78765092D01*
X134117452Y-78792510D01*
X134136401Y-78810029D01*
X134145669Y-78816192D01*
X134149372Y-78809209D01*
X134156178Y-78788898D01*
X134164997Y-78758472D01*
X134174837Y-78721163D01*
X134179088Y-78704638D01*
X134203661Y-78617162D01*
X134234562Y-78517625D01*
X134270870Y-78408597D01*
X134311663Y-78292647D01*
X134356020Y-78172343D01*
X134403019Y-78050255D01*
X134451740Y-77928953D01*
X134501261Y-77811004D01*
X134592906Y-77604185D01*
X134704264Y-77366750D01*
X134824472Y-77123324D01*
X134952345Y-76875941D01*
X135086699Y-76626631D01*
X135226347Y-76377429D01*
X135370107Y-76130366D01*
X135516791Y-75887475D01*
X135665217Y-75650789D01*
X135814198Y-75422340D01*
X135962549Y-75204161D01*
X136109087Y-74998284D01*
X136252625Y-74806742D01*
X136281404Y-74769659D01*
X136312922Y-74729578D01*
X136340976Y-74694446D01*
X136363304Y-74667091D01*
X136377647Y-74650340D01*
X136406024Y-74619274D01*
X137055880Y-74492103D01*
X137085109Y-74486388D01*
X137186160Y-74466710D01*
X137282009Y-74448166D01*
X137371394Y-74430993D01*
X137453051Y-74415428D01*
X137525716Y-74401710D01*
X137588125Y-74390076D01*
X137639015Y-74380763D01*
X137677122Y-74374009D01*
X137701182Y-74370052D01*
X137709932Y-74369129D01*
X137708603Y-74376998D01*
X137703353Y-74400214D01*
X137694419Y-74437698D01*
X137682067Y-74488380D01*
X137666567Y-74551188D01*
X137648184Y-74625051D01*
X137627187Y-74708899D01*
X137603843Y-74801662D01*
X137578418Y-74902267D01*
X137551182Y-75009646D01*
X137522400Y-75122727D01*
X137492341Y-75240439D01*
X137472430Y-75318332D01*
X137437946Y-75453539D01*
X137407448Y-75573581D01*
X137380749Y-75679233D01*
X137357664Y-75771267D01*
X137338005Y-75850456D01*
X137321587Y-75917572D01*
X137308223Y-75973389D01*
X137297728Y-76018679D01*
X137289914Y-76054216D01*
X137284596Y-76080772D01*
X137281588Y-76099119D01*
X137280702Y-76110031D01*
X137281754Y-76114282D01*
X137282709Y-76114843D01*
X137295436Y-76122156D01*
X137320820Y-76136655D01*
X137357203Y-76157397D01*
X137402928Y-76183438D01*
X137456338Y-76213834D01*
X137515776Y-76247641D01*
X137579585Y-76283916D01*
X137595400Y-76292915D01*
X137657833Y-76328659D01*
X137715122Y-76361797D01*
X137765671Y-76391382D01*
X137807883Y-76416469D01*
X137840162Y-76436109D01*
X137860912Y-76449358D01*
X137868535Y-76455267D01*
X137867478Y-76456360D01*
X137855205Y-76465346D01*
X137829714Y-76482927D01*
X137791674Y-76508660D01*
X137741755Y-76542103D01*
X137680628Y-76582816D01*
X137608963Y-76630355D01*
X137527429Y-76684280D01*
X137436696Y-76744148D01*
X137337435Y-76809518D01*
X137230316Y-76879948D01*
X137116008Y-76954996D01*
X136995181Y-77034220D01*
X136868506Y-77117178D01*
X136736652Y-77203429D01*
X136600289Y-77292531D01*
X136460088Y-77384042D01*
X136450101Y-77390557D01*
X136282859Y-77499680D01*
X136129199Y-77599987D01*
X135988565Y-77691847D01*
X135860404Y-77775631D01*
X135744164Y-77851705D01*
X135639290Y-77920440D01*
X135545229Y-77982205D01*
X135461428Y-78037368D01*
X135387334Y-78086299D01*
X135322392Y-78129366D01*
X135266049Y-78166939D01*
X135217753Y-78199387D01*
X135176949Y-78227078D01*
X135143084Y-78250381D01*
X135115604Y-78269666D01*
X135093957Y-78285302D01*
X135077588Y-78297657D01*
X135065945Y-78307101D01*
X135058473Y-78314002D01*
X135054620Y-78318730D01*
X135053832Y-78321654D01*
X135054216Y-78323005D01*
X135058773Y-78337875D01*
X135067891Y-78367069D01*
X135081125Y-78409177D01*
X135098032Y-78462792D01*
X135118165Y-78526507D01*
X135141081Y-78598913D01*
X135166335Y-78678603D01*
X135193481Y-78764169D01*
X135222076Y-78854203D01*
X135229555Y-78877741D01*
X135257865Y-78966836D01*
X135284651Y-79051144D01*
X135309465Y-79129251D01*
X135331858Y-79199742D01*
X135351380Y-79261204D01*
X135367583Y-79312222D01*
X135380016Y-79351383D01*
X135388231Y-79377271D01*
X135391779Y-79388473D01*
X135393822Y-79396236D01*
X135391209Y-79405420D01*
X135375717Y-79407479D01*
X135375585Y-79407477D01*
X135364039Y-79406395D01*
X135336714Y-79403405D01*
X135294557Y-79398619D01*
X135238518Y-79392150D01*
X135169547Y-79384109D01*
X135088592Y-79374609D01*
X134996603Y-79363762D01*
X134894529Y-79351680D01*
X134783319Y-79338475D01*
X134663922Y-79324259D01*
X134537289Y-79309144D01*
X134404367Y-79293243D01*
X134266106Y-79276668D01*
X134123455Y-79259531D01*
X132893228Y-79111583D01*
X131649104Y-79261198D01*
X131627966Y-79263739D01*
X131485446Y-79280828D01*
X131347647Y-79297275D01*
X131215498Y-79312973D01*
X131089924Y-79327815D01*
X130971852Y-79341694D01*
X130862210Y-79354503D01*
X130761924Y-79366133D01*
X130671921Y-79376480D01*
X130593128Y-79385434D01*
X130526471Y-79392890D01*
X130472878Y-79398740D01*
X130433276Y-79402877D01*
X130408591Y-79405193D01*
X130399750Y-79405583D01*
X130400063Y-79402491D01*
X130404438Y-79385182D01*
X130413341Y-79353864D01*
X130426366Y-79309860D01*
X130443110Y-79254492D01*
X130463168Y-79189083D01*
X130486136Y-79114955D01*
X130511610Y-79033431D01*
X130539187Y-78945834D01*
X130568461Y-78853487D01*
X130585468Y-78799975D01*
X130613898Y-78710325D01*
X130640480Y-78626262D01*
X130664802Y-78549099D01*
X130686454Y-78480149D01*
X130705023Y-78420727D01*
X130720099Y-78372145D01*
X130731271Y-78335717D01*
X130738128Y-78312756D01*
X130740259Y-78304575D01*
X130739159Y-78303833D01*
X130726776Y-78295686D01*
X130701174Y-78278912D01*
X130663027Y-78253952D01*
X130613007Y-78221244D01*
X130551788Y-78181229D01*
X130480043Y-78134346D01*
X130398444Y-78081035D01*
X130307665Y-78021735D01*
X130208378Y-77956885D01*
X130101257Y-77886926D01*
X129986975Y-77812297D01*
X129866204Y-77733438D01*
X129739618Y-77650788D01*
X129607890Y-77564787D01*
X129471692Y-77475875D01*
X129331698Y-77384490D01*
X129278983Y-77350079D01*
X129140230Y-77259490D01*
X129005483Y-77171497D01*
X128875420Y-77086543D01*
X128750716Y-77005069D01*
X128632047Y-76927518D01*
X128520090Y-76854333D01*
X128415521Y-76785956D01*
X128319015Y-76722828D01*
X128231249Y-76665393D01*
X128152899Y-76614093D01*
X128084642Y-76569370D01*
X128027152Y-76531666D01*
X127981107Y-76501424D01*
X127947183Y-76479087D01*
X127926055Y-76465095D01*
X127918400Y-76459892D01*
X127919234Y-76458371D01*
X127931118Y-76449474D01*
X127955572Y-76433657D01*
X127991101Y-76411820D01*
X128036208Y-76384861D01*
X128089398Y-76353680D01*
X128149175Y-76319174D01*
X128214044Y-76282243D01*
X128243687Y-76265476D01*
X128306937Y-76229684D01*
X128364763Y-76196940D01*
X128415618Y-76168120D01*
X128457955Y-76144102D01*
X128490226Y-76125764D01*
X128510885Y-76113984D01*
X128518383Y-76109639D01*
X128516669Y-76101803D01*
X128511027Y-76078642D01*
X128501721Y-76041222D01*
X128489020Y-75990608D01*
X128473194Y-75927864D01*
X128454514Y-75854056D01*
X128433248Y-75770249D01*
X128409668Y-75677507D01*
X128384042Y-75576896D01*
X128356641Y-75469480D01*
X128327735Y-75356326D01*
X128297594Y-75238497D01*
X128268190Y-75123534D01*
X128239257Y-75010216D01*
X128211828Y-74902598D01*
X128186173Y-74801746D01*
X128162561Y-74708726D01*
X128141263Y-74624605D01*
X128122548Y-74550448D01*
X128106685Y-74487324D01*
X128093944Y-74436297D01*
X128084595Y-74398435D01*
X128078907Y-74374803D01*
X128077149Y-74366468D01*
X128078204Y-74366524D01*
G37*
X128078204Y-74366524D02*
X128091944Y-74368791D01*
X128120583Y-74374010D01*
X128162868Y-74381942D01*
X128217548Y-74392345D01*
X128283370Y-74404978D01*
X128359084Y-74419601D01*
X128443436Y-74435973D01*
X128535174Y-74453853D01*
X128633048Y-74472999D01*
X128735805Y-74493172D01*
X129392300Y-74622277D01*
X129436578Y-74677183D01*
X129511108Y-74771220D01*
X129650066Y-74954649D01*
X129791808Y-75151642D01*
X129935311Y-75360417D01*
X130079551Y-75579191D01*
X130223507Y-75806185D01*
X130366155Y-76039615D01*
X130506472Y-76277701D01*
X130643436Y-76518661D01*
X130776025Y-76760714D01*
X130903214Y-77002078D01*
X131023983Y-77240971D01*
X131137307Y-77475613D01*
X131242164Y-77704221D01*
X131337531Y-77925015D01*
X131422386Y-78136212D01*
X131433686Y-78165910D01*
X131458274Y-78232699D01*
X131483603Y-78304074D01*
X131509022Y-78377990D01*
X131533882Y-78452397D01*
X131557534Y-78525251D01*
X131579329Y-78594502D01*
X131598617Y-78658105D01*
X131614750Y-78714012D01*
X131627076Y-78760177D01*
X131634949Y-78794551D01*
X131637717Y-78815089D01*
X131637762Y-78816026D01*
X131640456Y-78818842D01*
X131647966Y-78815268D01*
X131661198Y-78804404D01*
X131681057Y-78785349D01*
X131708448Y-78757206D01*
X131744278Y-78719073D01*
X131789450Y-78670051D01*
X131844871Y-78609241D01*
X131869916Y-78581567D01*
X132012886Y-78419362D01*
X132143936Y-78262637D01*
X132265158Y-78108458D01*
X132378643Y-77953890D01*
X132486481Y-77795999D01*
X132590765Y-77631850D01*
X132693584Y-77458508D01*
X132797030Y-77273040D01*
X132812685Y-77244325D01*
X132838035Y-77198438D01*
X132860165Y-77159141D01*
X132877884Y-77128510D01*
X132890004Y-77108619D01*
X132895334Y-77101545D01*
X132898083Y-77104803D01*
X132908088Y-77120767D01*
X132924125Y-77148208D01*
X132945023Y-77185082D01*
X132969616Y-77229344D01*
X132996736Y-77278953D01*
X133035980Y-77350545D01*
X133141671Y-77535509D01*
X133247308Y-77708316D01*
X133355088Y-77872224D01*
X133467205Y-78030494D01*
X133585854Y-78186387D01*
X133713230Y-78343162D01*
X133730744Y-78363999D01*
X133776959Y-78418221D01*
X133825467Y-78474187D01*
X133874937Y-78530441D01*
X133924039Y-78585527D01*
X133971442Y-78637991D01*
X134015815Y-78686377D01*
X134055828Y-78729229D01*
X134090151Y-78765092D01*
X134117452Y-78792510D01*
X134136401Y-78810029D01*
X134145669Y-78816192D01*
X134149372Y-78809209D01*
X134156178Y-78788898D01*
X134164997Y-78758472D01*
X134174837Y-78721163D01*
X134179088Y-78704638D01*
X134203661Y-78617162D01*
X134234562Y-78517625D01*
X134270870Y-78408597D01*
X134311663Y-78292647D01*
X134356020Y-78172343D01*
X134403019Y-78050255D01*
X134451740Y-77928953D01*
X134501261Y-77811004D01*
X134592906Y-77604185D01*
X134704264Y-77366750D01*
X134824472Y-77123324D01*
X134952345Y-76875941D01*
X135086699Y-76626631D01*
X135226347Y-76377429D01*
X135370107Y-76130366D01*
X135516791Y-75887475D01*
X135665217Y-75650789D01*
X135814198Y-75422340D01*
X135962549Y-75204161D01*
X136109087Y-74998284D01*
X136252625Y-74806742D01*
X136281404Y-74769659D01*
X136312922Y-74729578D01*
X136340976Y-74694446D01*
X136363304Y-74667091D01*
X136377647Y-74650340D01*
X136406024Y-74619274D01*
X137055880Y-74492103D01*
X137085109Y-74486388D01*
X137186160Y-74466710D01*
X137282009Y-74448166D01*
X137371394Y-74430993D01*
X137453051Y-74415428D01*
X137525716Y-74401710D01*
X137588125Y-74390076D01*
X137639015Y-74380763D01*
X137677122Y-74374009D01*
X137701182Y-74370052D01*
X137709932Y-74369129D01*
X137708603Y-74376998D01*
X137703353Y-74400214D01*
X137694419Y-74437698D01*
X137682067Y-74488380D01*
X137666567Y-74551188D01*
X137648184Y-74625051D01*
X137627187Y-74708899D01*
X137603843Y-74801662D01*
X137578418Y-74902267D01*
X137551182Y-75009646D01*
X137522400Y-75122727D01*
X137492341Y-75240439D01*
X137472430Y-75318332D01*
X137437946Y-75453539D01*
X137407448Y-75573581D01*
X137380749Y-75679233D01*
X137357664Y-75771267D01*
X137338005Y-75850456D01*
X137321587Y-75917572D01*
X137308223Y-75973389D01*
X137297728Y-76018679D01*
X137289914Y-76054216D01*
X137284596Y-76080772D01*
X137281588Y-76099119D01*
X137280702Y-76110031D01*
X137281754Y-76114282D01*
X137282709Y-76114843D01*
X137295436Y-76122156D01*
X137320820Y-76136655D01*
X137357203Y-76157397D01*
X137402928Y-76183438D01*
X137456338Y-76213834D01*
X137515776Y-76247641D01*
X137579585Y-76283916D01*
X137595400Y-76292915D01*
X137657833Y-76328659D01*
X137715122Y-76361797D01*
X137765671Y-76391382D01*
X137807883Y-76416469D01*
X137840162Y-76436109D01*
X137860912Y-76449358D01*
X137868535Y-76455267D01*
X137867478Y-76456360D01*
X137855205Y-76465346D01*
X137829714Y-76482927D01*
X137791674Y-76508660D01*
X137741755Y-76542103D01*
X137680628Y-76582816D01*
X137608963Y-76630355D01*
X137527429Y-76684280D01*
X137436696Y-76744148D01*
X137337435Y-76809518D01*
X137230316Y-76879948D01*
X137116008Y-76954996D01*
X136995181Y-77034220D01*
X136868506Y-77117178D01*
X136736652Y-77203429D01*
X136600289Y-77292531D01*
X136460088Y-77384042D01*
X136450101Y-77390557D01*
X136282859Y-77499680D01*
X136129199Y-77599987D01*
X135988565Y-77691847D01*
X135860404Y-77775631D01*
X135744164Y-77851705D01*
X135639290Y-77920440D01*
X135545229Y-77982205D01*
X135461428Y-78037368D01*
X135387334Y-78086299D01*
X135322392Y-78129366D01*
X135266049Y-78166939D01*
X135217753Y-78199387D01*
X135176949Y-78227078D01*
X135143084Y-78250381D01*
X135115604Y-78269666D01*
X135093957Y-78285302D01*
X135077588Y-78297657D01*
X135065945Y-78307101D01*
X135058473Y-78314002D01*
X135054620Y-78318730D01*
X135053832Y-78321654D01*
X135054216Y-78323005D01*
X135058773Y-78337875D01*
X135067891Y-78367069D01*
X135081125Y-78409177D01*
X135098032Y-78462792D01*
X135118165Y-78526507D01*
X135141081Y-78598913D01*
X135166335Y-78678603D01*
X135193481Y-78764169D01*
X135222076Y-78854203D01*
X135229555Y-78877741D01*
X135257865Y-78966836D01*
X135284651Y-79051144D01*
X135309465Y-79129251D01*
X135331858Y-79199742D01*
X135351380Y-79261204D01*
X135367583Y-79312222D01*
X135380016Y-79351383D01*
X135388231Y-79377271D01*
X135391779Y-79388473D01*
X135393822Y-79396236D01*
X135391209Y-79405420D01*
X135375717Y-79407479D01*
X135375585Y-79407477D01*
X135364039Y-79406395D01*
X135336714Y-79403405D01*
X135294557Y-79398619D01*
X135238518Y-79392150D01*
X135169547Y-79384109D01*
X135088592Y-79374609D01*
X134996603Y-79363762D01*
X134894529Y-79351680D01*
X134783319Y-79338475D01*
X134663922Y-79324259D01*
X134537289Y-79309144D01*
X134404367Y-79293243D01*
X134266106Y-79276668D01*
X134123455Y-79259531D01*
X132893228Y-79111583D01*
X131649104Y-79261198D01*
X131627966Y-79263739D01*
X131485446Y-79280828D01*
X131347647Y-79297275D01*
X131215498Y-79312973D01*
X131089924Y-79327815D01*
X130971852Y-79341694D01*
X130862210Y-79354503D01*
X130761924Y-79366133D01*
X130671921Y-79376480D01*
X130593128Y-79385434D01*
X130526471Y-79392890D01*
X130472878Y-79398740D01*
X130433276Y-79402877D01*
X130408591Y-79405193D01*
X130399750Y-79405583D01*
X130400063Y-79402491D01*
X130404438Y-79385182D01*
X130413341Y-79353864D01*
X130426366Y-79309860D01*
X130443110Y-79254492D01*
X130463168Y-79189083D01*
X130486136Y-79114955D01*
X130511610Y-79033431D01*
X130539187Y-78945834D01*
X130568461Y-78853487D01*
X130585468Y-78799975D01*
X130613898Y-78710325D01*
X130640480Y-78626262D01*
X130664802Y-78549099D01*
X130686454Y-78480149D01*
X130705023Y-78420727D01*
X130720099Y-78372145D01*
X130731271Y-78335717D01*
X130738128Y-78312756D01*
X130740259Y-78304575D01*
X130739159Y-78303833D01*
X130726776Y-78295686D01*
X130701174Y-78278912D01*
X130663027Y-78253952D01*
X130613007Y-78221244D01*
X130551788Y-78181229D01*
X130480043Y-78134346D01*
X130398444Y-78081035D01*
X130307665Y-78021735D01*
X130208378Y-77956885D01*
X130101257Y-77886926D01*
X129986975Y-77812297D01*
X129866204Y-77733438D01*
X129739618Y-77650788D01*
X129607890Y-77564787D01*
X129471692Y-77475875D01*
X129331698Y-77384490D01*
X129278983Y-77350079D01*
X129140230Y-77259490D01*
X129005483Y-77171497D01*
X128875420Y-77086543D01*
X128750716Y-77005069D01*
X128632047Y-76927518D01*
X128520090Y-76854333D01*
X128415521Y-76785956D01*
X128319015Y-76722828D01*
X128231249Y-76665393D01*
X128152899Y-76614093D01*
X128084642Y-76569370D01*
X128027152Y-76531666D01*
X127981107Y-76501424D01*
X127947183Y-76479087D01*
X127926055Y-76465095D01*
X127918400Y-76459892D01*
X127919234Y-76458371D01*
X127931118Y-76449474D01*
X127955572Y-76433657D01*
X127991101Y-76411820D01*
X128036208Y-76384861D01*
X128089398Y-76353680D01*
X128149175Y-76319174D01*
X128214044Y-76282243D01*
X128243687Y-76265476D01*
X128306937Y-76229684D01*
X128364763Y-76196940D01*
X128415618Y-76168120D01*
X128457955Y-76144102D01*
X128490226Y-76125764D01*
X128510885Y-76113984D01*
X128518383Y-76109639D01*
X128516669Y-76101803D01*
X128511027Y-76078642D01*
X128501721Y-76041222D01*
X128489020Y-75990608D01*
X128473194Y-75927864D01*
X128454514Y-75854056D01*
X128433248Y-75770249D01*
X128409668Y-75677507D01*
X128384042Y-75576896D01*
X128356641Y-75469480D01*
X128327735Y-75356326D01*
X128297594Y-75238497D01*
X128268190Y-75123534D01*
X128239257Y-75010216D01*
X128211828Y-74902598D01*
X128186173Y-74801746D01*
X128162561Y-74708726D01*
X128141263Y-74624605D01*
X128122548Y-74550448D01*
X128106685Y-74487324D01*
X128093944Y-74436297D01*
X128084595Y-74398435D01*
X128078907Y-74374803D01*
X128077149Y-74366468D01*
X128078204Y-74366524D01*
G36*
X105036581Y-73799522D02*
G01*
X105011943Y-73963415D01*
X104985546Y-74072546D01*
X104935409Y-74218083D01*
X104869360Y-74358625D01*
X104787696Y-74493560D01*
X104690716Y-74622277D01*
X104621788Y-74698423D01*
X104513860Y-74797314D01*
X104394287Y-74886269D01*
X104264848Y-74964355D01*
X104127321Y-75030643D01*
X103983484Y-75084202D01*
X103835114Y-75124099D01*
X103683989Y-75149406D01*
X103650016Y-75152580D01*
X103586486Y-75155927D01*
X103514294Y-75157380D01*
X103438380Y-75156985D01*
X103363685Y-75154788D01*
X103295148Y-75150838D01*
X103237711Y-75145180D01*
X103199359Y-75139759D01*
X103041334Y-75107376D01*
X102890003Y-75060159D01*
X102746164Y-74998841D01*
X102610617Y-74924159D01*
X102484163Y-74836848D01*
X102367600Y-74737644D01*
X102261728Y-74627283D01*
X102167347Y-74506499D01*
X102085256Y-74376028D01*
X102016256Y-74236606D01*
X101961145Y-74088968D01*
X101920724Y-73933850D01*
X101916786Y-73912806D01*
X101908178Y-73848821D01*
X101901849Y-73774178D01*
X101897903Y-73693273D01*
X101897162Y-73651190D01*
X102581434Y-73651190D01*
X102592119Y-73777946D01*
X102619388Y-73903036D01*
X102663194Y-74025457D01*
X102697867Y-74097351D01*
X102742144Y-74169419D01*
X102795990Y-74238744D01*
X102862500Y-74309740D01*
X102902977Y-74347924D01*
X102978435Y-74408007D01*
X103057993Y-74456264D01*
X103145661Y-74494961D01*
X103245449Y-74526369D01*
X103258391Y-74529394D01*
X103300528Y-74536186D01*
X103352873Y-74541672D01*
X103410940Y-74545654D01*
X103470244Y-74547933D01*
X103526298Y-74548310D01*
X103574617Y-74546586D01*
X103610714Y-74542563D01*
X103702332Y-74521114D01*
X103817894Y-74479617D01*
X103924896Y-74423998D01*
X104022481Y-74354886D01*
X104109794Y-74272910D01*
X104185977Y-74178698D01*
X104250176Y-74072880D01*
X104272649Y-74026710D01*
X104311603Y-73924525D01*
X104337418Y-73817752D01*
X104350630Y-73703808D01*
X104351769Y-73580109D01*
X104345941Y-73490731D01*
X104334515Y-73411674D01*
X104316161Y-73338190D01*
X104289526Y-73264867D01*
X104253257Y-73186295D01*
X104214046Y-73114754D01*
X104145752Y-73015734D01*
X104067736Y-72930298D01*
X103979618Y-72858048D01*
X103881016Y-72798589D01*
X103865603Y-72790824D01*
X103790277Y-72757025D01*
X103717970Y-72732665D01*
X103643900Y-72716656D01*
X103563283Y-72707910D01*
X103471339Y-72705338D01*
X103417382Y-72705874D01*
X103373708Y-72707655D01*
X103337636Y-72711137D01*
X103304453Y-72716781D01*
X103269448Y-72725047D01*
X103208007Y-72743012D01*
X103091877Y-72789282D01*
X102986040Y-72848692D01*
X102891042Y-72920733D01*
X102807426Y-73004892D01*
X102735738Y-73100657D01*
X102676524Y-73207518D01*
X102630328Y-73324961D01*
X102610004Y-73396695D01*
X102587380Y-73523772D01*
X102581434Y-73651190D01*
X101897162Y-73651190D01*
X101896445Y-73610499D01*
X101897576Y-73530250D01*
X101901402Y-73456920D01*
X101908026Y-73394903D01*
X101919774Y-73325164D01*
X101956850Y-73172817D01*
X102008972Y-73026686D01*
X102076729Y-72885266D01*
X102160706Y-72747053D01*
X102161893Y-72745298D01*
X102200008Y-72694507D01*
X102248803Y-72637595D01*
X102305058Y-72577740D01*
X102365551Y-72518123D01*
X102427061Y-72461922D01*
X102486365Y-72412316D01*
X102540243Y-72372485D01*
X102629582Y-72316729D01*
X102748342Y-72254326D01*
X102872548Y-72200572D01*
X102997543Y-72157445D01*
X103118668Y-72126923D01*
X103178374Y-72116035D01*
X103341270Y-72097010D01*
X103503374Y-72093293D01*
X103663459Y-72104523D01*
X103820297Y-72130337D01*
X103972659Y-72170373D01*
X104119318Y-72224268D01*
X104259046Y-72291660D01*
X104390615Y-72372187D01*
X104512798Y-72465487D01*
X104624365Y-72571197D01*
X104669863Y-72621375D01*
X104768123Y-72747107D01*
X104851919Y-72880836D01*
X104920995Y-73021641D01*
X104975093Y-73168599D01*
X105013958Y-73320789D01*
X105037332Y-73477287D01*
X105042237Y-73580109D01*
X105044959Y-73637172D01*
X105036581Y-73799522D01*
G37*
X105036581Y-73799522D02*
X105011943Y-73963415D01*
X104985546Y-74072546D01*
X104935409Y-74218083D01*
X104869360Y-74358625D01*
X104787696Y-74493560D01*
X104690716Y-74622277D01*
X104621788Y-74698423D01*
X104513860Y-74797314D01*
X104394287Y-74886269D01*
X104264848Y-74964355D01*
X104127321Y-75030643D01*
X103983484Y-75084202D01*
X103835114Y-75124099D01*
X103683989Y-75149406D01*
X103650016Y-75152580D01*
X103586486Y-75155927D01*
X103514294Y-75157380D01*
X103438380Y-75156985D01*
X103363685Y-75154788D01*
X103295148Y-75150838D01*
X103237711Y-75145180D01*
X103199359Y-75139759D01*
X103041334Y-75107376D01*
X102890003Y-75060159D01*
X102746164Y-74998841D01*
X102610617Y-74924159D01*
X102484163Y-74836848D01*
X102367600Y-74737644D01*
X102261728Y-74627283D01*
X102167347Y-74506499D01*
X102085256Y-74376028D01*
X102016256Y-74236606D01*
X101961145Y-74088968D01*
X101920724Y-73933850D01*
X101916786Y-73912806D01*
X101908178Y-73848821D01*
X101901849Y-73774178D01*
X101897903Y-73693273D01*
X101897162Y-73651190D01*
X102581434Y-73651190D01*
X102592119Y-73777946D01*
X102619388Y-73903036D01*
X102663194Y-74025457D01*
X102697867Y-74097351D01*
X102742144Y-74169419D01*
X102795990Y-74238744D01*
X102862500Y-74309740D01*
X102902977Y-74347924D01*
X102978435Y-74408007D01*
X103057993Y-74456264D01*
X103145661Y-74494961D01*
X103245449Y-74526369D01*
X103258391Y-74529394D01*
X103300528Y-74536186D01*
X103352873Y-74541672D01*
X103410940Y-74545654D01*
X103470244Y-74547933D01*
X103526298Y-74548310D01*
X103574617Y-74546586D01*
X103610714Y-74542563D01*
X103702332Y-74521114D01*
X103817894Y-74479617D01*
X103924896Y-74423998D01*
X104022481Y-74354886D01*
X104109794Y-74272910D01*
X104185977Y-74178698D01*
X104250176Y-74072880D01*
X104272649Y-74026710D01*
X104311603Y-73924525D01*
X104337418Y-73817752D01*
X104350630Y-73703808D01*
X104351769Y-73580109D01*
X104345941Y-73490731D01*
X104334515Y-73411674D01*
X104316161Y-73338190D01*
X104289526Y-73264867D01*
X104253257Y-73186295D01*
X104214046Y-73114754D01*
X104145752Y-73015734D01*
X104067736Y-72930298D01*
X103979618Y-72858048D01*
X103881016Y-72798589D01*
X103865603Y-72790824D01*
X103790277Y-72757025D01*
X103717970Y-72732665D01*
X103643900Y-72716656D01*
X103563283Y-72707910D01*
X103471339Y-72705338D01*
X103417382Y-72705874D01*
X103373708Y-72707655D01*
X103337636Y-72711137D01*
X103304453Y-72716781D01*
X103269448Y-72725047D01*
X103208007Y-72743012D01*
X103091877Y-72789282D01*
X102986040Y-72848692D01*
X102891042Y-72920733D01*
X102807426Y-73004892D01*
X102735738Y-73100657D01*
X102676524Y-73207518D01*
X102630328Y-73324961D01*
X102610004Y-73396695D01*
X102587380Y-73523772D01*
X102581434Y-73651190D01*
X101897162Y-73651190D01*
X101896445Y-73610499D01*
X101897576Y-73530250D01*
X101901402Y-73456920D01*
X101908026Y-73394903D01*
X101919774Y-73325164D01*
X101956850Y-73172817D01*
X102008972Y-73026686D01*
X102076729Y-72885266D01*
X102160706Y-72747053D01*
X102161893Y-72745298D01*
X102200008Y-72694507D01*
X102248803Y-72637595D01*
X102305058Y-72577740D01*
X102365551Y-72518123D01*
X102427061Y-72461922D01*
X102486365Y-72412316D01*
X102540243Y-72372485D01*
X102629582Y-72316729D01*
X102748342Y-72254326D01*
X102872548Y-72200572D01*
X102997543Y-72157445D01*
X103118668Y-72126923D01*
X103178374Y-72116035D01*
X103341270Y-72097010D01*
X103503374Y-72093293D01*
X103663459Y-72104523D01*
X103820297Y-72130337D01*
X103972659Y-72170373D01*
X104119318Y-72224268D01*
X104259046Y-72291660D01*
X104390615Y-72372187D01*
X104512798Y-72465487D01*
X104624365Y-72571197D01*
X104669863Y-72621375D01*
X104768123Y-72747107D01*
X104851919Y-72880836D01*
X104920995Y-73021641D01*
X104975093Y-73168599D01*
X105013958Y-73320789D01*
X105037332Y-73477287D01*
X105042237Y-73580109D01*
X105044959Y-73637172D01*
X105036581Y-73799522D01*
G36*
X108613264Y-73910310D02*
G01*
X108578269Y-74064332D01*
X108527747Y-74212984D01*
X108461932Y-74355481D01*
X108381057Y-74491035D01*
X108285358Y-74618861D01*
X108207906Y-74703624D01*
X108099711Y-74801157D01*
X107980078Y-74889151D01*
X107851023Y-74966544D01*
X107714563Y-75032271D01*
X107572714Y-75085267D01*
X107427493Y-75124470D01*
X107280916Y-75148815D01*
X107262145Y-75150786D01*
X107165459Y-75157037D01*
X107061179Y-75158185D01*
X106954113Y-75154478D01*
X106849071Y-75146168D01*
X106750860Y-75133504D01*
X106664288Y-75116736D01*
X106619215Y-75105353D01*
X106467207Y-75056029D01*
X106322276Y-74991910D01*
X106185411Y-74913762D01*
X106057602Y-74822347D01*
X105939839Y-74718430D01*
X105833111Y-74602775D01*
X105738410Y-74476145D01*
X105656724Y-74339304D01*
X105643260Y-74313272D01*
X105585158Y-74184190D01*
X105541014Y-74053182D01*
X105510204Y-73917629D01*
X105492105Y-73774907D01*
X105486121Y-73623114D01*
X106174980Y-73623114D01*
X106176499Y-73697136D01*
X106181717Y-73765999D01*
X106190631Y-73824040D01*
X106199870Y-73863932D01*
X106238265Y-73985164D01*
X106289778Y-74096913D01*
X106353723Y-74198433D01*
X106429415Y-74288979D01*
X106516171Y-74367805D01*
X106613305Y-74434166D01*
X106720133Y-74487317D01*
X106835969Y-74526513D01*
X106870621Y-74533752D01*
X106925297Y-74540845D01*
X106988049Y-74545617D01*
X107054049Y-74547918D01*
X107118464Y-74547598D01*
X107176465Y-74544508D01*
X107223220Y-74538499D01*
X107317968Y-74514591D01*
X107427611Y-74471677D01*
X107530989Y-74414472D01*
X107626110Y-74344287D01*
X107710983Y-74262431D01*
X107783613Y-74170214D01*
X107818792Y-74112783D01*
X107857635Y-74036199D01*
X107891143Y-73955894D01*
X107916097Y-73878945D01*
X107917410Y-73874044D01*
X107924869Y-73844834D01*
X107930364Y-73818939D01*
X107934193Y-73792992D01*
X107936653Y-73763623D01*
X107938039Y-73727466D01*
X107938648Y-73681152D01*
X107938777Y-73621313D01*
X107938725Y-73596037D01*
X107937808Y-73530306D01*
X107935227Y-73476268D01*
X107930311Y-73430036D01*
X107922390Y-73387727D01*
X107910792Y-73345455D01*
X107894848Y-73299337D01*
X107873886Y-73245486D01*
X107859556Y-73211892D01*
X107803721Y-73107766D01*
X107734702Y-73012159D01*
X107654060Y-72926794D01*
X107563355Y-72853389D01*
X107464147Y-72793665D01*
X107376264Y-72755598D01*
X107265832Y-72723551D01*
X107150992Y-72705730D01*
X107034644Y-72702371D01*
X106919690Y-72713712D01*
X106809031Y-72739990D01*
X106694168Y-72784403D01*
X106587801Y-72842715D01*
X106491835Y-72913805D01*
X106406915Y-72996947D01*
X106333688Y-73091412D01*
X106272801Y-73196474D01*
X106224900Y-73311406D01*
X106190631Y-73435480D01*
X106183032Y-73482244D01*
X106177157Y-73549596D01*
X106174980Y-73623114D01*
X105486121Y-73623114D01*
X105486093Y-73622397D01*
X105488200Y-73525391D01*
X105499497Y-73394640D01*
X105521405Y-73270945D01*
X105554883Y-73150349D01*
X105600888Y-73028898D01*
X105660378Y-72902638D01*
X105665305Y-72893111D01*
X105741838Y-72764810D01*
X105833402Y-72644093D01*
X105939826Y-72531189D01*
X105959791Y-72512316D01*
X106043621Y-72438922D01*
X106127536Y-72375956D01*
X106217122Y-72319495D01*
X106317963Y-72265617D01*
X106382895Y-72234613D01*
X106493430Y-72188686D01*
X106601105Y-72153428D01*
X106710747Y-72127136D01*
X106735803Y-72122323D01*
X106900447Y-72099713D01*
X107063565Y-72092618D01*
X107224137Y-72100639D01*
X107381146Y-72123375D01*
X107533573Y-72160424D01*
X107680399Y-72211385D01*
X107820605Y-72275858D01*
X107953175Y-72353442D01*
X108077087Y-72443735D01*
X108191325Y-72546337D01*
X108294870Y-72660847D01*
X108386703Y-72786864D01*
X108436374Y-72868745D01*
X108507264Y-73010922D01*
X108563230Y-73159424D01*
X108603623Y-73312412D01*
X108627791Y-73468051D01*
X108635737Y-73589304D01*
X108635098Y-73621313D01*
X108632498Y-73751705D01*
X108613264Y-73910310D01*
G37*
X108613264Y-73910310D02*
X108578269Y-74064332D01*
X108527747Y-74212984D01*
X108461932Y-74355481D01*
X108381057Y-74491035D01*
X108285358Y-74618861D01*
X108207906Y-74703624D01*
X108099711Y-74801157D01*
X107980078Y-74889151D01*
X107851023Y-74966544D01*
X107714563Y-75032271D01*
X107572714Y-75085267D01*
X107427493Y-75124470D01*
X107280916Y-75148815D01*
X107262145Y-75150786D01*
X107165459Y-75157037D01*
X107061179Y-75158185D01*
X106954113Y-75154478D01*
X106849071Y-75146168D01*
X106750860Y-75133504D01*
X106664288Y-75116736D01*
X106619215Y-75105353D01*
X106467207Y-75056029D01*
X106322276Y-74991910D01*
X106185411Y-74913762D01*
X106057602Y-74822347D01*
X105939839Y-74718430D01*
X105833111Y-74602775D01*
X105738410Y-74476145D01*
X105656724Y-74339304D01*
X105643260Y-74313272D01*
X105585158Y-74184190D01*
X105541014Y-74053182D01*
X105510204Y-73917629D01*
X105492105Y-73774907D01*
X105486121Y-73623114D01*
X106174980Y-73623114D01*
X106176499Y-73697136D01*
X106181717Y-73765999D01*
X106190631Y-73824040D01*
X106199870Y-73863932D01*
X106238265Y-73985164D01*
X106289778Y-74096913D01*
X106353723Y-74198433D01*
X106429415Y-74288979D01*
X106516171Y-74367805D01*
X106613305Y-74434166D01*
X106720133Y-74487317D01*
X106835969Y-74526513D01*
X106870621Y-74533752D01*
X106925297Y-74540845D01*
X106988049Y-74545617D01*
X107054049Y-74547918D01*
X107118464Y-74547598D01*
X107176465Y-74544508D01*
X107223220Y-74538499D01*
X107317968Y-74514591D01*
X107427611Y-74471677D01*
X107530989Y-74414472D01*
X107626110Y-74344287D01*
X107710983Y-74262431D01*
X107783613Y-74170214D01*
X107818792Y-74112783D01*
X107857635Y-74036199D01*
X107891143Y-73955894D01*
X107916097Y-73878945D01*
X107917410Y-73874044D01*
X107924869Y-73844834D01*
X107930364Y-73818939D01*
X107934193Y-73792992D01*
X107936653Y-73763623D01*
X107938039Y-73727466D01*
X107938648Y-73681152D01*
X107938777Y-73621313D01*
X107938725Y-73596037D01*
X107937808Y-73530306D01*
X107935227Y-73476268D01*
X107930311Y-73430036D01*
X107922390Y-73387727D01*
X107910792Y-73345455D01*
X107894848Y-73299337D01*
X107873886Y-73245486D01*
X107859556Y-73211892D01*
X107803721Y-73107766D01*
X107734702Y-73012159D01*
X107654060Y-72926794D01*
X107563355Y-72853389D01*
X107464147Y-72793665D01*
X107376264Y-72755598D01*
X107265832Y-72723551D01*
X107150992Y-72705730D01*
X107034644Y-72702371D01*
X106919690Y-72713712D01*
X106809031Y-72739990D01*
X106694168Y-72784403D01*
X106587801Y-72842715D01*
X106491835Y-72913805D01*
X106406915Y-72996947D01*
X106333688Y-73091412D01*
X106272801Y-73196474D01*
X106224900Y-73311406D01*
X106190631Y-73435480D01*
X106183032Y-73482244D01*
X106177157Y-73549596D01*
X106174980Y-73623114D01*
X105486121Y-73623114D01*
X105486093Y-73622397D01*
X105488200Y-73525391D01*
X105499497Y-73394640D01*
X105521405Y-73270945D01*
X105554883Y-73150349D01*
X105600888Y-73028898D01*
X105660378Y-72902638D01*
X105665305Y-72893111D01*
X105741838Y-72764810D01*
X105833402Y-72644093D01*
X105939826Y-72531189D01*
X105959791Y-72512316D01*
X106043621Y-72438922D01*
X106127536Y-72375956D01*
X106217122Y-72319495D01*
X106317963Y-72265617D01*
X106382895Y-72234613D01*
X106493430Y-72188686D01*
X106601105Y-72153428D01*
X106710747Y-72127136D01*
X106735803Y-72122323D01*
X106900447Y-72099713D01*
X107063565Y-72092618D01*
X107224137Y-72100639D01*
X107381146Y-72123375D01*
X107533573Y-72160424D01*
X107680399Y-72211385D01*
X107820605Y-72275858D01*
X107953175Y-72353442D01*
X108077087Y-72443735D01*
X108191325Y-72546337D01*
X108294870Y-72660847D01*
X108386703Y-72786864D01*
X108436374Y-72868745D01*
X108507264Y-73010922D01*
X108563230Y-73159424D01*
X108603623Y-73312412D01*
X108627791Y-73468051D01*
X108635737Y-73589304D01*
X108635098Y-73621313D01*
X108632498Y-73751705D01*
X108613264Y-73910310D01*
G36*
X108003131Y-78942896D02*
G01*
X108003131Y-77794110D01*
X107170144Y-77794110D01*
X106312214Y-78942896D01*
X105890242Y-78942896D01*
X105906843Y-78919667D01*
X105911164Y-78913796D01*
X105925404Y-78894688D01*
X105948481Y-78863838D01*
X105979620Y-78822275D01*
X106018051Y-78771029D01*
X106063001Y-78711128D01*
X106113698Y-78643602D01*
X106169368Y-78569479D01*
X106229241Y-78489788D01*
X106292544Y-78405559D01*
X106358504Y-78317821D01*
X106408211Y-78251676D01*
X106471446Y-78167418D01*
X106531087Y-78087825D01*
X106586404Y-78013878D01*
X106636666Y-77946557D01*
X106681143Y-77886843D01*
X106719105Y-77835717D01*
X106749821Y-77794160D01*
X106772562Y-77763153D01*
X106786596Y-77743677D01*
X106791194Y-77736712D01*
X106790174Y-77736193D01*
X106777422Y-77732301D01*
X106753455Y-77725980D01*
X106722332Y-77718313D01*
X106679725Y-77707324D01*
X106558063Y-77666528D01*
X106445581Y-77614380D01*
X106343493Y-77551695D01*
X106253011Y-77479286D01*
X106175348Y-77397967D01*
X106111715Y-77308552D01*
X106108427Y-77303002D01*
X106078770Y-77244179D01*
X106051517Y-77175357D01*
X106028891Y-77102754D01*
X106013112Y-77032585D01*
X106007874Y-76994527D01*
X106003112Y-76924158D01*
X106003023Y-76907179D01*
X106349765Y-76907179D01*
X106355442Y-76975091D01*
X106373509Y-77060961D01*
X106404381Y-77138360D01*
X106449169Y-77209877D01*
X106508985Y-77278098D01*
X106531615Y-77299515D01*
X106602714Y-77354307D01*
X106684075Y-77399657D01*
X106777423Y-77436428D01*
X106884485Y-77465480D01*
X106901108Y-77469072D01*
X106918483Y-77472412D01*
X106936690Y-77475248D01*
X106957189Y-77477634D01*
X106981441Y-77479623D01*
X107010905Y-77481270D01*
X107047041Y-77482628D01*
X107091311Y-77483753D01*
X107145173Y-77484698D01*
X107210089Y-77485517D01*
X107287517Y-77486264D01*
X107378919Y-77486994D01*
X107485755Y-77487760D01*
X108003131Y-77491370D01*
X108003131Y-76290551D01*
X107552446Y-76290551D01*
X107528939Y-76290563D01*
X107439418Y-76290813D01*
X107352263Y-76291364D01*
X107269548Y-76292185D01*
X107193349Y-76293243D01*
X107125742Y-76294506D01*
X107068802Y-76295942D01*
X107024605Y-76297518D01*
X106995226Y-76299202D01*
X106880341Y-76313775D01*
X106769336Y-76339763D01*
X106670295Y-76376346D01*
X106583621Y-76423301D01*
X106509715Y-76480410D01*
X106448979Y-76547452D01*
X106401816Y-76624206D01*
X106376961Y-76682896D01*
X106358898Y-76749958D01*
X106350104Y-76823246D01*
X106349765Y-76907179D01*
X106003023Y-76907179D01*
X106002711Y-76847515D01*
X106006489Y-76770292D01*
X106014262Y-76698181D01*
X106025848Y-76636877D01*
X106026743Y-76633344D01*
X106046927Y-76570863D01*
X106075809Y-76502574D01*
X106110550Y-76434101D01*
X106148313Y-76371066D01*
X106186259Y-76319093D01*
X106252208Y-76250867D01*
X106333989Y-76186029D01*
X106427379Y-76128095D01*
X106529981Y-76078377D01*
X106639396Y-76038188D01*
X106753228Y-76008839D01*
X106766822Y-76006125D01*
X106794396Y-76001061D01*
X106822590Y-75996636D01*
X106852655Y-75992808D01*
X106885844Y-75989535D01*
X106923407Y-75986774D01*
X106966598Y-75984484D01*
X107016668Y-75982622D01*
X107074868Y-75981146D01*
X107142451Y-75980012D01*
X107220669Y-75979180D01*
X107310773Y-75978606D01*
X107414014Y-75978249D01*
X107531646Y-75978066D01*
X107664920Y-75978014D01*
X108349456Y-75978014D01*
X108349456Y-78942896D01*
X108003131Y-78942896D01*
G37*
X108003131Y-78942896D02*
X108003131Y-77794110D01*
X107170144Y-77794110D01*
X106312214Y-78942896D01*
X105890242Y-78942896D01*
X105906843Y-78919667D01*
X105911164Y-78913796D01*
X105925404Y-78894688D01*
X105948481Y-78863838D01*
X105979620Y-78822275D01*
X106018051Y-78771029D01*
X106063001Y-78711128D01*
X106113698Y-78643602D01*
X106169368Y-78569479D01*
X106229241Y-78489788D01*
X106292544Y-78405559D01*
X106358504Y-78317821D01*
X106408211Y-78251676D01*
X106471446Y-78167418D01*
X106531087Y-78087825D01*
X106586404Y-78013878D01*
X106636666Y-77946557D01*
X106681143Y-77886843D01*
X106719105Y-77835717D01*
X106749821Y-77794160D01*
X106772562Y-77763153D01*
X106786596Y-77743677D01*
X106791194Y-77736712D01*
X106790174Y-77736193D01*
X106777422Y-77732301D01*
X106753455Y-77725980D01*
X106722332Y-77718313D01*
X106679725Y-77707324D01*
X106558063Y-77666528D01*
X106445581Y-77614380D01*
X106343493Y-77551695D01*
X106253011Y-77479286D01*
X106175348Y-77397967D01*
X106111715Y-77308552D01*
X106108427Y-77303002D01*
X106078770Y-77244179D01*
X106051517Y-77175357D01*
X106028891Y-77102754D01*
X106013112Y-77032585D01*
X106007874Y-76994527D01*
X106003112Y-76924158D01*
X106003023Y-76907179D01*
X106349765Y-76907179D01*
X106355442Y-76975091D01*
X106373509Y-77060961D01*
X106404381Y-77138360D01*
X106449169Y-77209877D01*
X106508985Y-77278098D01*
X106531615Y-77299515D01*
X106602714Y-77354307D01*
X106684075Y-77399657D01*
X106777423Y-77436428D01*
X106884485Y-77465480D01*
X106901108Y-77469072D01*
X106918483Y-77472412D01*
X106936690Y-77475248D01*
X106957189Y-77477634D01*
X106981441Y-77479623D01*
X107010905Y-77481270D01*
X107047041Y-77482628D01*
X107091311Y-77483753D01*
X107145173Y-77484698D01*
X107210089Y-77485517D01*
X107287517Y-77486264D01*
X107378919Y-77486994D01*
X107485755Y-77487760D01*
X108003131Y-77491370D01*
X108003131Y-76290551D01*
X107552446Y-76290551D01*
X107528939Y-76290563D01*
X107439418Y-76290813D01*
X107352263Y-76291364D01*
X107269548Y-76292185D01*
X107193349Y-76293243D01*
X107125742Y-76294506D01*
X107068802Y-76295942D01*
X107024605Y-76297518D01*
X106995226Y-76299202D01*
X106880341Y-76313775D01*
X106769336Y-76339763D01*
X106670295Y-76376346D01*
X106583621Y-76423301D01*
X106509715Y-76480410D01*
X106448979Y-76547452D01*
X106401816Y-76624206D01*
X106376961Y-76682896D01*
X106358898Y-76749958D01*
X106350104Y-76823246D01*
X106349765Y-76907179D01*
X106003023Y-76907179D01*
X106002711Y-76847515D01*
X106006489Y-76770292D01*
X106014262Y-76698181D01*
X106025848Y-76636877D01*
X106026743Y-76633344D01*
X106046927Y-76570863D01*
X106075809Y-76502574D01*
X106110550Y-76434101D01*
X106148313Y-76371066D01*
X106186259Y-76319093D01*
X106252208Y-76250867D01*
X106333989Y-76186029D01*
X106427379Y-76128095D01*
X106529981Y-76078377D01*
X106639396Y-76038188D01*
X106753228Y-76008839D01*
X106766822Y-76006125D01*
X106794396Y-76001061D01*
X106822590Y-75996636D01*
X106852655Y-75992808D01*
X106885844Y-75989535D01*
X106923407Y-75986774D01*
X106966598Y-75984484D01*
X107016668Y-75982622D01*
X107074868Y-75981146D01*
X107142451Y-75980012D01*
X107220669Y-75979180D01*
X107310773Y-75978606D01*
X107414014Y-75978249D01*
X107531646Y-75978066D01*
X107664920Y-75978014D01*
X108349456Y-75978014D01*
X108349456Y-78942896D01*
X108003131Y-78942896D01*
G36*
X119964022Y-72751276D02*
G01*
X119060198Y-72751276D01*
X119060198Y-75107977D01*
X118401335Y-75107977D01*
X118401335Y-72751276D01*
X117497511Y-72751276D01*
X117497511Y-72143095D01*
X119964022Y-72143095D01*
X119964022Y-72751276D01*
G37*
X119964022Y-72751276D02*
X119060198Y-72751276D01*
X119060198Y-75107977D01*
X118401335Y-75107977D01*
X118401335Y-72751276D01*
X117497511Y-72751276D01*
X117497511Y-72143095D01*
X119964022Y-72143095D01*
X119964022Y-72751276D01*
G36*
X113924448Y-78942896D02*
G01*
X111753580Y-78942896D01*
X111753580Y-78630359D01*
X113578123Y-78630359D01*
X113578123Y-77608277D01*
X111964754Y-77608277D01*
X111964754Y-77295739D01*
X113578123Y-77295739D01*
X113578123Y-76290551D01*
X111770474Y-76290551D01*
X111770474Y-75978014D01*
X113924448Y-75978014D01*
X113924448Y-78942896D01*
G37*
X113924448Y-78942896D02*
X111753580Y-78942896D01*
X111753580Y-78630359D01*
X113578123Y-78630359D01*
X113578123Y-77608277D01*
X111964754Y-77608277D01*
X111964754Y-77295739D01*
X113578123Y-77295739D01*
X113578123Y-76290551D01*
X111770474Y-76290551D01*
X111770474Y-75978014D01*
X113924448Y-75978014D01*
X113924448Y-78942896D01*
G36*
X134696854Y-73984858D02*
G01*
X134684089Y-74118413D01*
X134672008Y-74245155D01*
X134660696Y-74364174D01*
X134650238Y-74474560D01*
X134640721Y-74575405D01*
X134632230Y-74665799D01*
X134624851Y-74744833D01*
X134618669Y-74811598D01*
X134613770Y-74865184D01*
X134610240Y-74904683D01*
X134608165Y-74929184D01*
X134607630Y-74937780D01*
X134609115Y-74936793D01*
X134621151Y-74926803D01*
X134644553Y-74906691D01*
X134678459Y-74877214D01*
X134722008Y-74839128D01*
X134774341Y-74793191D01*
X134834596Y-74740160D01*
X134901914Y-74680791D01*
X134975433Y-74615841D01*
X135054294Y-74546067D01*
X135137636Y-74472226D01*
X135224598Y-74395075D01*
X135265132Y-74359115D01*
X135350592Y-74283461D01*
X135432092Y-74211528D01*
X135508767Y-74144069D01*
X135579754Y-74081836D01*
X135644186Y-74025582D01*
X135701199Y-73976058D01*
X135749929Y-73934017D01*
X135789509Y-73900212D01*
X135819076Y-73875394D01*
X135837764Y-73860315D01*
X135844709Y-73855729D01*
X135846295Y-73859146D01*
X135853111Y-73876305D01*
X135864449Y-73905926D01*
X135879519Y-73945869D01*
X135897530Y-73993994D01*
X135917694Y-74048162D01*
X135939220Y-74106233D01*
X135961318Y-74166066D01*
X135983200Y-74225522D01*
X136004074Y-74282462D01*
X136023152Y-74334745D01*
X136039644Y-74380231D01*
X136052760Y-74416781D01*
X136061710Y-74442255D01*
X136065704Y-74454513D01*
X136065522Y-74456064D01*
X136058292Y-74468713D01*
X136042294Y-74490590D01*
X136019501Y-74519102D01*
X135991885Y-74551653D01*
X135914206Y-74641810D01*
X135755483Y-74831881D01*
X135593114Y-75033672D01*
X135428576Y-75245093D01*
X135263345Y-75464056D01*
X135098898Y-75688471D01*
X134936712Y-75916252D01*
X134778262Y-76145307D01*
X134625026Y-76373549D01*
X134478481Y-76598890D01*
X134340103Y-76819239D01*
X134211368Y-77032509D01*
X134093754Y-77236611D01*
X134085036Y-77252204D01*
X134060563Y-77296533D01*
X134037768Y-77338563D01*
X134018875Y-77374167D01*
X134006110Y-77399215D01*
X133993983Y-77422520D01*
X133982817Y-77440787D01*
X133976170Y-77447785D01*
X133973277Y-77446487D01*
X133961240Y-77433531D01*
X133942768Y-77408061D01*
X133918871Y-77371793D01*
X133890557Y-77326444D01*
X133858835Y-77273728D01*
X133824713Y-77215361D01*
X133789201Y-77153061D01*
X133753307Y-77088542D01*
X133718040Y-77023520D01*
X133684410Y-76959712D01*
X133653424Y-76898833D01*
X133599392Y-76787847D01*
X133523690Y-76622278D01*
X133452897Y-76454203D01*
X133386142Y-76281223D01*
X133322552Y-76100941D01*
X133261257Y-75910961D01*
X133201384Y-75708884D01*
X133142063Y-75492314D01*
X133117152Y-75395585D01*
X133083732Y-75259111D01*
X133049876Y-75113967D01*
X133016595Y-74964711D01*
X132984899Y-74815895D01*
X132955799Y-74672076D01*
X132930305Y-74537808D01*
X132929460Y-74533180D01*
X132918415Y-74473391D01*
X132909754Y-74429104D01*
X132902985Y-74399254D01*
X132897617Y-74382773D01*
X132893160Y-74378595D01*
X132889124Y-74385653D01*
X132885017Y-74402880D01*
X132880349Y-74429210D01*
X132873936Y-74465789D01*
X132863878Y-74520106D01*
X132851509Y-74584779D01*
X132837482Y-74656529D01*
X132822451Y-74732075D01*
X132807068Y-74808137D01*
X132791988Y-74881434D01*
X132777863Y-74948687D01*
X132765348Y-75006614D01*
X132762819Y-75018069D01*
X132691062Y-75324851D01*
X132614995Y-75615712D01*
X132534466Y-75891091D01*
X132449324Y-76151428D01*
X132359418Y-76397159D01*
X132264596Y-76628726D01*
X132164707Y-76846565D01*
X132059599Y-77051116D01*
X132037585Y-77090948D01*
X132008525Y-77142110D01*
X131977687Y-77195152D01*
X131946340Y-77248002D01*
X131915749Y-77298591D01*
X131887182Y-77344849D01*
X131861905Y-77384704D01*
X131841184Y-77416088D01*
X131826288Y-77436930D01*
X131818481Y-77445160D01*
X131813954Y-77441923D01*
X131802679Y-77426609D01*
X131787197Y-77401486D01*
X131769457Y-77369560D01*
X131745500Y-77324848D01*
X131657296Y-77166291D01*
X131558878Y-76997652D01*
X131451384Y-76820566D01*
X131335948Y-76636666D01*
X131213708Y-76447588D01*
X131085798Y-76254967D01*
X130953355Y-76060438D01*
X130817516Y-75865635D01*
X130679415Y-75672193D01*
X130540189Y-75481747D01*
X130400975Y-75295932D01*
X130262907Y-75116383D01*
X130127123Y-74944735D01*
X129994758Y-74782622D01*
X129866948Y-74631679D01*
X129865150Y-74629599D01*
X129830364Y-74589273D01*
X129798334Y-74552014D01*
X129771137Y-74520247D01*
X129750850Y-74496399D01*
X129739549Y-74482893D01*
X129720829Y-74459856D01*
X129830932Y-74160953D01*
X129833899Y-74152902D01*
X129858655Y-74086004D01*
X129881661Y-74024319D01*
X129902240Y-73969623D01*
X129919718Y-73923692D01*
X129933419Y-73888301D01*
X129942669Y-73865226D01*
X129946792Y-73856242D01*
X129948367Y-73856952D01*
X129960631Y-73866322D01*
X129984255Y-73885851D01*
X130018370Y-73914784D01*
X130062110Y-73952366D01*
X130114608Y-73997843D01*
X130174996Y-74050461D01*
X130242408Y-74109464D01*
X130315977Y-74174099D01*
X130394835Y-74243610D01*
X130478117Y-74317243D01*
X130564954Y-74394244D01*
X130637112Y-74458268D01*
X130743013Y-74552001D01*
X130836803Y-74634702D01*
X130918721Y-74706574D01*
X130989004Y-74767825D01*
X131047893Y-74818658D01*
X131095625Y-74859280D01*
X131132438Y-74889896D01*
X131158572Y-74910712D01*
X131174266Y-74921933D01*
X131179756Y-74923764D01*
X131179758Y-74922283D01*
X131178712Y-74906974D01*
X131176154Y-74876084D01*
X131172171Y-74830537D01*
X131166850Y-74771258D01*
X131160275Y-74699172D01*
X131152534Y-74615204D01*
X131143712Y-74520278D01*
X131133896Y-74415320D01*
X131123172Y-74301255D01*
X131111626Y-74179006D01*
X131099343Y-74049500D01*
X131086411Y-73913662D01*
X131081839Y-73865808D01*
X132375686Y-73865808D01*
X132375933Y-73865599D01*
X132383228Y-73857779D01*
X132398415Y-73840981D01*
X132418647Y-73818348D01*
X132419588Y-73817293D01*
X132488690Y-73751226D01*
X132568710Y-73693907D01*
X132655340Y-73648011D01*
X132744269Y-73616213D01*
X132780908Y-73608609D01*
X132834057Y-73603214D01*
X132900537Y-73601528D01*
X132908613Y-73601543D01*
X132952469Y-73602179D01*
X132986037Y-73604369D01*
X133015031Y-73608973D01*
X133045163Y-73616850D01*
X133082147Y-73628861D01*
X133176052Y-73668477D01*
X133267129Y-73724483D01*
X133350618Y-73795481D01*
X133370259Y-73814279D01*
X133390931Y-73832584D01*
X133404247Y-73842477D01*
X133407967Y-73842136D01*
X133407631Y-73841021D01*
X133397887Y-73809007D01*
X133384132Y-73764323D01*
X133366777Y-73708279D01*
X133346235Y-73642183D01*
X133322917Y-73567344D01*
X133297233Y-73485071D01*
X133269595Y-73396673D01*
X133240415Y-73303458D01*
X133210103Y-73206736D01*
X133179072Y-73107815D01*
X133147732Y-73008004D01*
X133116495Y-72908612D01*
X133085772Y-72810947D01*
X133055974Y-72716319D01*
X133027513Y-72626037D01*
X133000801Y-72541409D01*
X132976248Y-72463744D01*
X132954265Y-72394351D01*
X132935265Y-72334539D01*
X132919659Y-72285616D01*
X132907857Y-72248892D01*
X132900271Y-72225675D01*
X132897313Y-72217274D01*
X132896179Y-72218969D01*
X132890404Y-72233887D01*
X132880212Y-72263144D01*
X132865985Y-72305561D01*
X132848103Y-72359960D01*
X132826948Y-72425160D01*
X132802903Y-72499982D01*
X132776348Y-72583248D01*
X132747665Y-72673778D01*
X132717237Y-72770392D01*
X132685444Y-72871913D01*
X132678165Y-72895220D01*
X132644880Y-73001791D01*
X132612049Y-73106894D01*
X132580181Y-73208901D01*
X132549785Y-73306183D01*
X132521370Y-73397112D01*
X132495445Y-73480059D01*
X132472519Y-73553394D01*
X132453101Y-73615490D01*
X132437701Y-73664717D01*
X132426826Y-73699447D01*
X132422173Y-73714307D01*
X132407089Y-73762666D01*
X132394172Y-73804357D01*
X132384149Y-73837019D01*
X132377745Y-73858290D01*
X132375686Y-73865808D01*
X131081839Y-73865808D01*
X131072916Y-73772415D01*
X131058943Y-73626685D01*
X131054052Y-73575733D01*
X131040264Y-73431692D01*
X131027001Y-73292571D01*
X131014348Y-73159285D01*
X131002390Y-73032749D01*
X130991211Y-72913878D01*
X130980897Y-72803587D01*
X130971532Y-72702792D01*
X130963201Y-72612406D01*
X130955989Y-72533345D01*
X130949981Y-72466525D01*
X130945261Y-72412860D01*
X130941915Y-72373265D01*
X130940026Y-72348655D01*
X130939681Y-72339946D01*
X130947056Y-72342203D01*
X130968630Y-72350664D01*
X131003028Y-72364804D01*
X131048890Y-72384047D01*
X131104857Y-72407815D01*
X131169570Y-72435530D01*
X131241671Y-72466615D01*
X131319799Y-72500493D01*
X131402596Y-72536587D01*
X131478768Y-72569775D01*
X131558270Y-72604185D01*
X131632234Y-72635962D01*
X131699241Y-72664509D01*
X131757875Y-72689228D01*
X131806718Y-72709524D01*
X131844354Y-72724798D01*
X131869365Y-72734453D01*
X131880333Y-72737892D01*
X131881355Y-72737791D01*
X131885449Y-72735483D01*
X131891246Y-72729583D01*
X131899177Y-72719344D01*
X131909672Y-72704019D01*
X131923165Y-72682863D01*
X131940086Y-72655129D01*
X131960867Y-72620072D01*
X131985940Y-72576946D01*
X132015736Y-72525004D01*
X132050686Y-72463500D01*
X132091222Y-72391689D01*
X132137776Y-72308824D01*
X132190779Y-72214159D01*
X132250663Y-72106948D01*
X132317859Y-71986445D01*
X132392799Y-71851905D01*
X132438888Y-71769173D01*
X132500390Y-71658924D01*
X132559305Y-71553483D01*
X132615123Y-71453755D01*
X132667333Y-71360646D01*
X132715425Y-71275062D01*
X132758888Y-71197908D01*
X132797212Y-71130091D01*
X132829887Y-71072515D01*
X132856402Y-71026086D01*
X132876247Y-70991710D01*
X132888912Y-70970292D01*
X132893886Y-70962739D01*
X132897158Y-70967031D01*
X132908239Y-70984999D01*
X132926603Y-71016139D01*
X132951742Y-71059556D01*
X132983149Y-71114354D01*
X133020317Y-71179638D01*
X133062740Y-71254513D01*
X133109909Y-71338082D01*
X133161318Y-71429451D01*
X133216460Y-71527724D01*
X133274828Y-71632005D01*
X133335913Y-71741399D01*
X133399210Y-71855011D01*
X133449516Y-71945355D01*
X133511030Y-72055684D01*
X133569886Y-72161090D01*
X133625581Y-72260677D01*
X133677610Y-72353550D01*
X133725470Y-72438813D01*
X133768656Y-72515572D01*
X133806667Y-72582931D01*
X133838996Y-72639996D01*
X133865141Y-72685870D01*
X133884598Y-72719659D01*
X133896863Y-72740468D01*
X133901433Y-72747402D01*
X133910323Y-72743136D01*
X133933519Y-72732674D01*
X133968786Y-72717076D01*
X134014503Y-72697040D01*
X134069048Y-72673265D01*
X134130800Y-72646447D01*
X134198136Y-72617284D01*
X134269436Y-72586476D01*
X134343077Y-72554719D01*
X134417439Y-72522712D01*
X134490898Y-72491152D01*
X134561835Y-72460737D01*
X134628626Y-72432165D01*
X134689651Y-72406134D01*
X134743288Y-72383342D01*
X134787915Y-72364487D01*
X134821911Y-72350267D01*
X134843654Y-72341379D01*
X134851522Y-72338521D01*
X134851540Y-72340184D01*
X134850461Y-72355681D01*
X134847873Y-72386698D01*
X134843863Y-72432325D01*
X134838514Y-72491652D01*
X134831911Y-72563771D01*
X134824141Y-72647772D01*
X134815287Y-72742744D01*
X134805434Y-72847778D01*
X134794668Y-72961965D01*
X134783074Y-73084396D01*
X134770736Y-73214159D01*
X134757739Y-73350347D01*
X134744169Y-73492049D01*
X134730111Y-73638356D01*
X134724090Y-73700943D01*
X134710529Y-73842136D01*
X134710216Y-73845398D01*
X134696854Y-73984858D01*
G37*
X134696854Y-73984858D02*
X134684089Y-74118413D01*
X134672008Y-74245155D01*
X134660696Y-74364174D01*
X134650238Y-74474560D01*
X134640721Y-74575405D01*
X134632230Y-74665799D01*
X134624851Y-74744833D01*
X134618669Y-74811598D01*
X134613770Y-74865184D01*
X134610240Y-74904683D01*
X134608165Y-74929184D01*
X134607630Y-74937780D01*
X134609115Y-74936793D01*
X134621151Y-74926803D01*
X134644553Y-74906691D01*
X134678459Y-74877214D01*
X134722008Y-74839128D01*
X134774341Y-74793191D01*
X134834596Y-74740160D01*
X134901914Y-74680791D01*
X134975433Y-74615841D01*
X135054294Y-74546067D01*
X135137636Y-74472226D01*
X135224598Y-74395075D01*
X135265132Y-74359115D01*
X135350592Y-74283461D01*
X135432092Y-74211528D01*
X135508767Y-74144069D01*
X135579754Y-74081836D01*
X135644186Y-74025582D01*
X135701199Y-73976058D01*
X135749929Y-73934017D01*
X135789509Y-73900212D01*
X135819076Y-73875394D01*
X135837764Y-73860315D01*
X135844709Y-73855729D01*
X135846295Y-73859146D01*
X135853111Y-73876305D01*
X135864449Y-73905926D01*
X135879519Y-73945869D01*
X135897530Y-73993994D01*
X135917694Y-74048162D01*
X135939220Y-74106233D01*
X135961318Y-74166066D01*
X135983200Y-74225522D01*
X136004074Y-74282462D01*
X136023152Y-74334745D01*
X136039644Y-74380231D01*
X136052760Y-74416781D01*
X136061710Y-74442255D01*
X136065704Y-74454513D01*
X136065522Y-74456064D01*
X136058292Y-74468713D01*
X136042294Y-74490590D01*
X136019501Y-74519102D01*
X135991885Y-74551653D01*
X135914206Y-74641810D01*
X135755483Y-74831881D01*
X135593114Y-75033672D01*
X135428576Y-75245093D01*
X135263345Y-75464056D01*
X135098898Y-75688471D01*
X134936712Y-75916252D01*
X134778262Y-76145307D01*
X134625026Y-76373549D01*
X134478481Y-76598890D01*
X134340103Y-76819239D01*
X134211368Y-77032509D01*
X134093754Y-77236611D01*
X134085036Y-77252204D01*
X134060563Y-77296533D01*
X134037768Y-77338563D01*
X134018875Y-77374167D01*
X134006110Y-77399215D01*
X133993983Y-77422520D01*
X133982817Y-77440787D01*
X133976170Y-77447785D01*
X133973277Y-77446487D01*
X133961240Y-77433531D01*
X133942768Y-77408061D01*
X133918871Y-77371793D01*
X133890557Y-77326444D01*
X133858835Y-77273728D01*
X133824713Y-77215361D01*
X133789201Y-77153061D01*
X133753307Y-77088542D01*
X133718040Y-77023520D01*
X133684410Y-76959712D01*
X133653424Y-76898833D01*
X133599392Y-76787847D01*
X133523690Y-76622278D01*
X133452897Y-76454203D01*
X133386142Y-76281223D01*
X133322552Y-76100941D01*
X133261257Y-75910961D01*
X133201384Y-75708884D01*
X133142063Y-75492314D01*
X133117152Y-75395585D01*
X133083732Y-75259111D01*
X133049876Y-75113967D01*
X133016595Y-74964711D01*
X132984899Y-74815895D01*
X132955799Y-74672076D01*
X132930305Y-74537808D01*
X132929460Y-74533180D01*
X132918415Y-74473391D01*
X132909754Y-74429104D01*
X132902985Y-74399254D01*
X132897617Y-74382773D01*
X132893160Y-74378595D01*
X132889124Y-74385653D01*
X132885017Y-74402880D01*
X132880349Y-74429210D01*
X132873936Y-74465789D01*
X132863878Y-74520106D01*
X132851509Y-74584779D01*
X132837482Y-74656529D01*
X132822451Y-74732075D01*
X132807068Y-74808137D01*
X132791988Y-74881434D01*
X132777863Y-74948687D01*
X132765348Y-75006614D01*
X132762819Y-75018069D01*
X132691062Y-75324851D01*
X132614995Y-75615712D01*
X132534466Y-75891091D01*
X132449324Y-76151428D01*
X132359418Y-76397159D01*
X132264596Y-76628726D01*
X132164707Y-76846565D01*
X132059599Y-77051116D01*
X132037585Y-77090948D01*
X132008525Y-77142110D01*
X131977687Y-77195152D01*
X131946340Y-77248002D01*
X131915749Y-77298591D01*
X131887182Y-77344849D01*
X131861905Y-77384704D01*
X131841184Y-77416088D01*
X131826288Y-77436930D01*
X131818481Y-77445160D01*
X131813954Y-77441923D01*
X131802679Y-77426609D01*
X131787197Y-77401486D01*
X131769457Y-77369560D01*
X131745500Y-77324848D01*
X131657296Y-77166291D01*
X131558878Y-76997652D01*
X131451384Y-76820566D01*
X131335948Y-76636666D01*
X131213708Y-76447588D01*
X131085798Y-76254967D01*
X130953355Y-76060438D01*
X130817516Y-75865635D01*
X130679415Y-75672193D01*
X130540189Y-75481747D01*
X130400975Y-75295932D01*
X130262907Y-75116383D01*
X130127123Y-74944735D01*
X129994758Y-74782622D01*
X129866948Y-74631679D01*
X129865150Y-74629599D01*
X129830364Y-74589273D01*
X129798334Y-74552014D01*
X129771137Y-74520247D01*
X129750850Y-74496399D01*
X129739549Y-74482893D01*
X129720829Y-74459856D01*
X129830932Y-74160953D01*
X129833899Y-74152902D01*
X129858655Y-74086004D01*
X129881661Y-74024319D01*
X129902240Y-73969623D01*
X129919718Y-73923692D01*
X129933419Y-73888301D01*
X129942669Y-73865226D01*
X129946792Y-73856242D01*
X129948367Y-73856952D01*
X129960631Y-73866322D01*
X129984255Y-73885851D01*
X130018370Y-73914784D01*
X130062110Y-73952366D01*
X130114608Y-73997843D01*
X130174996Y-74050461D01*
X130242408Y-74109464D01*
X130315977Y-74174099D01*
X130394835Y-74243610D01*
X130478117Y-74317243D01*
X130564954Y-74394244D01*
X130637112Y-74458268D01*
X130743013Y-74552001D01*
X130836803Y-74634702D01*
X130918721Y-74706574D01*
X130989004Y-74767825D01*
X131047893Y-74818658D01*
X131095625Y-74859280D01*
X131132438Y-74889896D01*
X131158572Y-74910712D01*
X131174266Y-74921933D01*
X131179756Y-74923764D01*
X131179758Y-74922283D01*
X131178712Y-74906974D01*
X131176154Y-74876084D01*
X131172171Y-74830537D01*
X131166850Y-74771258D01*
X131160275Y-74699172D01*
X131152534Y-74615204D01*
X131143712Y-74520278D01*
X131133896Y-74415320D01*
X131123172Y-74301255D01*
X131111626Y-74179006D01*
X131099343Y-74049500D01*
X131086411Y-73913662D01*
X131081839Y-73865808D01*
X132375686Y-73865808D01*
X132375933Y-73865599D01*
X132383228Y-73857779D01*
X132398415Y-73840981D01*
X132418647Y-73818348D01*
X132419588Y-73817293D01*
X132488690Y-73751226D01*
X132568710Y-73693907D01*
X132655340Y-73648011D01*
X132744269Y-73616213D01*
X132780908Y-73608609D01*
X132834057Y-73603214D01*
X132900537Y-73601528D01*
X132908613Y-73601543D01*
X132952469Y-73602179D01*
X132986037Y-73604369D01*
X133015031Y-73608973D01*
X133045163Y-73616850D01*
X133082147Y-73628861D01*
X133176052Y-73668477D01*
X133267129Y-73724483D01*
X133350618Y-73795481D01*
X133370259Y-73814279D01*
X133390931Y-73832584D01*
X133404247Y-73842477D01*
X133407967Y-73842136D01*
X133407631Y-73841021D01*
X133397887Y-73809007D01*
X133384132Y-73764323D01*
X133366777Y-73708279D01*
X133346235Y-73642183D01*
X133322917Y-73567344D01*
X133297233Y-73485071D01*
X133269595Y-73396673D01*
X133240415Y-73303458D01*
X133210103Y-73206736D01*
X133179072Y-73107815D01*
X133147732Y-73008004D01*
X133116495Y-72908612D01*
X133085772Y-72810947D01*
X133055974Y-72716319D01*
X133027513Y-72626037D01*
X133000801Y-72541409D01*
X132976248Y-72463744D01*
X132954265Y-72394351D01*
X132935265Y-72334539D01*
X132919659Y-72285616D01*
X132907857Y-72248892D01*
X132900271Y-72225675D01*
X132897313Y-72217274D01*
X132896179Y-72218969D01*
X132890404Y-72233887D01*
X132880212Y-72263144D01*
X132865985Y-72305561D01*
X132848103Y-72359960D01*
X132826948Y-72425160D01*
X132802903Y-72499982D01*
X132776348Y-72583248D01*
X132747665Y-72673778D01*
X132717237Y-72770392D01*
X132685444Y-72871913D01*
X132678165Y-72895220D01*
X132644880Y-73001791D01*
X132612049Y-73106894D01*
X132580181Y-73208901D01*
X132549785Y-73306183D01*
X132521370Y-73397112D01*
X132495445Y-73480059D01*
X132472519Y-73553394D01*
X132453101Y-73615490D01*
X132437701Y-73664717D01*
X132426826Y-73699447D01*
X132422173Y-73714307D01*
X132407089Y-73762666D01*
X132394172Y-73804357D01*
X132384149Y-73837019D01*
X132377745Y-73858290D01*
X132375686Y-73865808D01*
X131081839Y-73865808D01*
X131072916Y-73772415D01*
X131058943Y-73626685D01*
X131054052Y-73575733D01*
X131040264Y-73431692D01*
X131027001Y-73292571D01*
X131014348Y-73159285D01*
X131002390Y-73032749D01*
X130991211Y-72913878D01*
X130980897Y-72803587D01*
X130971532Y-72702792D01*
X130963201Y-72612406D01*
X130955989Y-72533345D01*
X130949981Y-72466525D01*
X130945261Y-72412860D01*
X130941915Y-72373265D01*
X130940026Y-72348655D01*
X130939681Y-72339946D01*
X130947056Y-72342203D01*
X130968630Y-72350664D01*
X131003028Y-72364804D01*
X131048890Y-72384047D01*
X131104857Y-72407815D01*
X131169570Y-72435530D01*
X131241671Y-72466615D01*
X131319799Y-72500493D01*
X131402596Y-72536587D01*
X131478768Y-72569775D01*
X131558270Y-72604185D01*
X131632234Y-72635962D01*
X131699241Y-72664509D01*
X131757875Y-72689228D01*
X131806718Y-72709524D01*
X131844354Y-72724798D01*
X131869365Y-72734453D01*
X131880333Y-72737892D01*
X131881355Y-72737791D01*
X131885449Y-72735483D01*
X131891246Y-72729583D01*
X131899177Y-72719344D01*
X131909672Y-72704019D01*
X131923165Y-72682863D01*
X131940086Y-72655129D01*
X131960867Y-72620072D01*
X131985940Y-72576946D01*
X132015736Y-72525004D01*
X132050686Y-72463500D01*
X132091222Y-72391689D01*
X132137776Y-72308824D01*
X132190779Y-72214159D01*
X132250663Y-72106948D01*
X132317859Y-71986445D01*
X132392799Y-71851905D01*
X132438888Y-71769173D01*
X132500390Y-71658924D01*
X132559305Y-71553483D01*
X132615123Y-71453755D01*
X132667333Y-71360646D01*
X132715425Y-71275062D01*
X132758888Y-71197908D01*
X132797212Y-71130091D01*
X132829887Y-71072515D01*
X132856402Y-71026086D01*
X132876247Y-70991710D01*
X132888912Y-70970292D01*
X132893886Y-70962739D01*
X132897158Y-70967031D01*
X132908239Y-70984999D01*
X132926603Y-71016139D01*
X132951742Y-71059556D01*
X132983149Y-71114354D01*
X133020317Y-71179638D01*
X133062740Y-71254513D01*
X133109909Y-71338082D01*
X133161318Y-71429451D01*
X133216460Y-71527724D01*
X133274828Y-71632005D01*
X133335913Y-71741399D01*
X133399210Y-71855011D01*
X133449516Y-71945355D01*
X133511030Y-72055684D01*
X133569886Y-72161090D01*
X133625581Y-72260677D01*
X133677610Y-72353550D01*
X133725470Y-72438813D01*
X133768656Y-72515572D01*
X133806667Y-72582931D01*
X133838996Y-72639996D01*
X133865141Y-72685870D01*
X133884598Y-72719659D01*
X133896863Y-72740468D01*
X133901433Y-72747402D01*
X133910323Y-72743136D01*
X133933519Y-72732674D01*
X133968786Y-72717076D01*
X134014503Y-72697040D01*
X134069048Y-72673265D01*
X134130800Y-72646447D01*
X134198136Y-72617284D01*
X134269436Y-72586476D01*
X134343077Y-72554719D01*
X134417439Y-72522712D01*
X134490898Y-72491152D01*
X134561835Y-72460737D01*
X134628626Y-72432165D01*
X134689651Y-72406134D01*
X134743288Y-72383342D01*
X134787915Y-72364487D01*
X134821911Y-72350267D01*
X134843654Y-72341379D01*
X134851522Y-72338521D01*
X134851540Y-72340184D01*
X134850461Y-72355681D01*
X134847873Y-72386698D01*
X134843863Y-72432325D01*
X134838514Y-72491652D01*
X134831911Y-72563771D01*
X134824141Y-72647772D01*
X134815287Y-72742744D01*
X134805434Y-72847778D01*
X134794668Y-72961965D01*
X134783074Y-73084396D01*
X134770736Y-73214159D01*
X134757739Y-73350347D01*
X134744169Y-73492049D01*
X134730111Y-73638356D01*
X134724090Y-73700943D01*
X134710529Y-73842136D01*
X134710216Y-73845398D01*
X134696854Y-73984858D01*
G36*
X125113775Y-72136649D02*
G01*
X125397096Y-72138872D01*
X125721526Y-73122943D01*
X125756502Y-73229020D01*
X125796366Y-73349893D01*
X125834528Y-73465572D01*
X125870662Y-73575071D01*
X125904441Y-73677403D01*
X125935541Y-73771583D01*
X125963634Y-73856622D01*
X125988396Y-73931536D01*
X126009500Y-73995337D01*
X126026621Y-74047038D01*
X126039431Y-74085654D01*
X126047607Y-74110198D01*
X126050821Y-74119683D01*
X126052014Y-74117323D01*
X126057730Y-74101153D01*
X126067802Y-74070753D01*
X126081861Y-74027310D01*
X126099539Y-73972010D01*
X126120468Y-73906043D01*
X126144279Y-73830594D01*
X126170604Y-73746852D01*
X126199075Y-73656003D01*
X126229323Y-73559235D01*
X126260979Y-73457735D01*
X126293676Y-73352691D01*
X126327044Y-73245289D01*
X126360716Y-73136717D01*
X126394322Y-73028163D01*
X126427495Y-72920813D01*
X126459866Y-72815855D01*
X126491067Y-72714476D01*
X126520729Y-72617864D01*
X126548484Y-72527205D01*
X126573964Y-72443688D01*
X126596799Y-72368498D01*
X126616622Y-72302825D01*
X126633064Y-72247854D01*
X126645756Y-72204774D01*
X126654332Y-72174772D01*
X126663111Y-72143095D01*
X127018461Y-72143095D01*
X127036985Y-72143097D01*
X127120880Y-72143162D01*
X127189622Y-72143365D01*
X127244667Y-72143762D01*
X127287468Y-72144411D01*
X127319478Y-72145367D01*
X127342152Y-72146689D01*
X127356945Y-72148432D01*
X127365309Y-72150653D01*
X127368699Y-72153409D01*
X127368569Y-72156757D01*
X127366705Y-72162119D01*
X127359663Y-72182717D01*
X127347673Y-72217924D01*
X127331005Y-72266943D01*
X127309931Y-72328973D01*
X127284722Y-72403214D01*
X127255650Y-72488867D01*
X127222986Y-72585132D01*
X127187001Y-72691209D01*
X127147966Y-72806298D01*
X127106153Y-72929601D01*
X127061833Y-73060315D01*
X127015278Y-73197644D01*
X126966759Y-73340785D01*
X126916546Y-73488940D01*
X126864912Y-73641309D01*
X126826490Y-73754699D01*
X126775915Y-73903943D01*
X126726977Y-74048350D01*
X126679946Y-74187125D01*
X126635092Y-74319469D01*
X126592685Y-74444586D01*
X126552996Y-74561677D01*
X126516295Y-74669944D01*
X126482852Y-74768592D01*
X126452938Y-74856821D01*
X126426823Y-74933835D01*
X126404778Y-74998836D01*
X126387073Y-75051026D01*
X126373977Y-75089609D01*
X126365763Y-75113786D01*
X126362699Y-75122760D01*
X126361522Y-75124132D01*
X126353316Y-75126865D01*
X126336344Y-75129042D01*
X126309254Y-75130713D01*
X126270689Y-75131927D01*
X126219297Y-75132733D01*
X126153721Y-75133180D01*
X126072608Y-75133318D01*
X125786317Y-75133318D01*
X125735782Y-74987608D01*
X125731268Y-74974579D01*
X125718662Y-74938140D01*
X125701244Y-74887742D01*
X125679470Y-74824708D01*
X125653798Y-74750361D01*
X125624683Y-74666023D01*
X125592582Y-74573018D01*
X125557953Y-74472667D01*
X125521250Y-74366294D01*
X125482931Y-74255221D01*
X125443452Y-74140770D01*
X125403270Y-74024265D01*
X125121293Y-73206633D01*
X125103161Y-73259816D01*
X125100557Y-73267402D01*
X125092460Y-73290911D01*
X125079589Y-73328240D01*
X125062380Y-73378131D01*
X125041265Y-73439325D01*
X125016682Y-73510561D01*
X124989063Y-73590581D01*
X124958845Y-73678126D01*
X124926461Y-73771936D01*
X124892347Y-73870752D01*
X124856938Y-73973315D01*
X124820668Y-74078365D01*
X124783972Y-74184643D01*
X124747284Y-74290891D01*
X124711041Y-74395848D01*
X124675676Y-74498256D01*
X124641624Y-74596855D01*
X124609320Y-74690386D01*
X124579199Y-74777589D01*
X124551696Y-74857206D01*
X124527245Y-74927977D01*
X124506282Y-74988643D01*
X124489241Y-75037945D01*
X124476557Y-75074623D01*
X124468664Y-75097419D01*
X124456216Y-75133318D01*
X123885248Y-75133318D01*
X123854802Y-75046737D01*
X123853579Y-75043233D01*
X123846073Y-75021425D01*
X123833537Y-74984752D01*
X123816266Y-74934091D01*
X123794558Y-74870317D01*
X123768711Y-74794305D01*
X123739021Y-74706931D01*
X123705786Y-74609070D01*
X123669303Y-74501599D01*
X123629870Y-74385392D01*
X123587783Y-74261325D01*
X123543340Y-74130274D01*
X123496837Y-73993114D01*
X123448574Y-73850721D01*
X123398845Y-73703970D01*
X123347949Y-73553737D01*
X122871544Y-72147319D01*
X123214316Y-72145111D01*
X123292645Y-72144768D01*
X123368962Y-72144807D01*
X123434269Y-72145261D01*
X123487389Y-72146110D01*
X123527146Y-72147336D01*
X123552365Y-72148917D01*
X123561868Y-72150836D01*
X123563859Y-72156577D01*
X123570558Y-72177548D01*
X123581639Y-72212902D01*
X123596796Y-72261648D01*
X123615725Y-72322794D01*
X123638119Y-72395346D01*
X123663672Y-72478312D01*
X123692080Y-72570700D01*
X123723036Y-72671518D01*
X123756235Y-72779771D01*
X123791372Y-72894469D01*
X123828140Y-73014618D01*
X123866233Y-73139226D01*
X123896722Y-73238929D01*
X123933749Y-73359799D01*
X123969206Y-73475311D01*
X124002790Y-73584483D01*
X124034194Y-73686333D01*
X124063115Y-73779879D01*
X124089248Y-73864138D01*
X124112287Y-73938129D01*
X124131929Y-74000870D01*
X124147869Y-74051378D01*
X124159801Y-74088671D01*
X124167422Y-74111767D01*
X124170426Y-74119683D01*
X124170604Y-74119650D01*
X124171631Y-74118573D01*
X124173275Y-74115434D01*
X124175783Y-74109497D01*
X124179400Y-74100025D01*
X124184372Y-74086283D01*
X124190946Y-74067536D01*
X124199366Y-74043046D01*
X124209878Y-74012078D01*
X124222728Y-73973897D01*
X124238163Y-73927766D01*
X124256428Y-73872949D01*
X124277768Y-73808710D01*
X124302429Y-73734314D01*
X124330658Y-73649024D01*
X124362700Y-73552105D01*
X124398801Y-73442821D01*
X124439206Y-73320435D01*
X124484162Y-73184212D01*
X124533913Y-73033416D01*
X124588707Y-72867310D01*
X124830455Y-72134425D01*
X125113775Y-72136649D01*
G37*
X125113775Y-72136649D02*
X125397096Y-72138872D01*
X125721526Y-73122943D01*
X125756502Y-73229020D01*
X125796366Y-73349893D01*
X125834528Y-73465572D01*
X125870662Y-73575071D01*
X125904441Y-73677403D01*
X125935541Y-73771583D01*
X125963634Y-73856622D01*
X125988396Y-73931536D01*
X126009500Y-73995337D01*
X126026621Y-74047038D01*
X126039431Y-74085654D01*
X126047607Y-74110198D01*
X126050821Y-74119683D01*
X126052014Y-74117323D01*
X126057730Y-74101153D01*
X126067802Y-74070753D01*
X126081861Y-74027310D01*
X126099539Y-73972010D01*
X126120468Y-73906043D01*
X126144279Y-73830594D01*
X126170604Y-73746852D01*
X126199075Y-73656003D01*
X126229323Y-73559235D01*
X126260979Y-73457735D01*
X126293676Y-73352691D01*
X126327044Y-73245289D01*
X126360716Y-73136717D01*
X126394322Y-73028163D01*
X126427495Y-72920813D01*
X126459866Y-72815855D01*
X126491067Y-72714476D01*
X126520729Y-72617864D01*
X126548484Y-72527205D01*
X126573964Y-72443688D01*
X126596799Y-72368498D01*
X126616622Y-72302825D01*
X126633064Y-72247854D01*
X126645756Y-72204774D01*
X126654332Y-72174772D01*
X126663111Y-72143095D01*
X127018461Y-72143095D01*
X127036985Y-72143097D01*
X127120880Y-72143162D01*
X127189622Y-72143365D01*
X127244667Y-72143762D01*
X127287468Y-72144411D01*
X127319478Y-72145367D01*
X127342152Y-72146689D01*
X127356945Y-72148432D01*
X127365309Y-72150653D01*
X127368699Y-72153409D01*
X127368569Y-72156757D01*
X127366705Y-72162119D01*
X127359663Y-72182717D01*
X127347673Y-72217924D01*
X127331005Y-72266943D01*
X127309931Y-72328973D01*
X127284722Y-72403214D01*
X127255650Y-72488867D01*
X127222986Y-72585132D01*
X127187001Y-72691209D01*
X127147966Y-72806298D01*
X127106153Y-72929601D01*
X127061833Y-73060315D01*
X127015278Y-73197644D01*
X126966759Y-73340785D01*
X126916546Y-73488940D01*
X126864912Y-73641309D01*
X126826490Y-73754699D01*
X126775915Y-73903943D01*
X126726977Y-74048350D01*
X126679946Y-74187125D01*
X126635092Y-74319469D01*
X126592685Y-74444586D01*
X126552996Y-74561677D01*
X126516295Y-74669944D01*
X126482852Y-74768592D01*
X126452938Y-74856821D01*
X126426823Y-74933835D01*
X126404778Y-74998836D01*
X126387073Y-75051026D01*
X126373977Y-75089609D01*
X126365763Y-75113786D01*
X126362699Y-75122760D01*
X126361522Y-75124132D01*
X126353316Y-75126865D01*
X126336344Y-75129042D01*
X126309254Y-75130713D01*
X126270689Y-75131927D01*
X126219297Y-75132733D01*
X126153721Y-75133180D01*
X126072608Y-75133318D01*
X125786317Y-75133318D01*
X125735782Y-74987608D01*
X125731268Y-74974579D01*
X125718662Y-74938140D01*
X125701244Y-74887742D01*
X125679470Y-74824708D01*
X125653798Y-74750361D01*
X125624683Y-74666023D01*
X125592582Y-74573018D01*
X125557953Y-74472667D01*
X125521250Y-74366294D01*
X125482931Y-74255221D01*
X125443452Y-74140770D01*
X125403270Y-74024265D01*
X125121293Y-73206633D01*
X125103161Y-73259816D01*
X125100557Y-73267402D01*
X125092460Y-73290911D01*
X125079589Y-73328240D01*
X125062380Y-73378131D01*
X125041265Y-73439325D01*
X125016682Y-73510561D01*
X124989063Y-73590581D01*
X124958845Y-73678126D01*
X124926461Y-73771936D01*
X124892347Y-73870752D01*
X124856938Y-73973315D01*
X124820668Y-74078365D01*
X124783972Y-74184643D01*
X124747284Y-74290891D01*
X124711041Y-74395848D01*
X124675676Y-74498256D01*
X124641624Y-74596855D01*
X124609320Y-74690386D01*
X124579199Y-74777589D01*
X124551696Y-74857206D01*
X124527245Y-74927977D01*
X124506282Y-74988643D01*
X124489241Y-75037945D01*
X124476557Y-75074623D01*
X124468664Y-75097419D01*
X124456216Y-75133318D01*
X123885248Y-75133318D01*
X123854802Y-75046737D01*
X123853579Y-75043233D01*
X123846073Y-75021425D01*
X123833537Y-74984752D01*
X123816266Y-74934091D01*
X123794558Y-74870317D01*
X123768711Y-74794305D01*
X123739021Y-74706931D01*
X123705786Y-74609070D01*
X123669303Y-74501599D01*
X123629870Y-74385392D01*
X123587783Y-74261325D01*
X123543340Y-74130274D01*
X123496837Y-73993114D01*
X123448574Y-73850721D01*
X123398845Y-73703970D01*
X123347949Y-73553737D01*
X122871544Y-72147319D01*
X123214316Y-72145111D01*
X123292645Y-72144768D01*
X123368962Y-72144807D01*
X123434269Y-72145261D01*
X123487389Y-72146110D01*
X123527146Y-72147336D01*
X123552365Y-72148917D01*
X123561868Y-72150836D01*
X123563859Y-72156577D01*
X123570558Y-72177548D01*
X123581639Y-72212902D01*
X123596796Y-72261648D01*
X123615725Y-72322794D01*
X123638119Y-72395346D01*
X123663672Y-72478312D01*
X123692080Y-72570700D01*
X123723036Y-72671518D01*
X123756235Y-72779771D01*
X123791372Y-72894469D01*
X123828140Y-73014618D01*
X123866233Y-73139226D01*
X123896722Y-73238929D01*
X123933749Y-73359799D01*
X123969206Y-73475311D01*
X124002790Y-73584483D01*
X124034194Y-73686333D01*
X124063115Y-73779879D01*
X124089248Y-73864138D01*
X124112287Y-73938129D01*
X124131929Y-74000870D01*
X124147869Y-74051378D01*
X124159801Y-74088671D01*
X124167422Y-74111767D01*
X124170426Y-74119683D01*
X124170604Y-74119650D01*
X124171631Y-74118573D01*
X124173275Y-74115434D01*
X124175783Y-74109497D01*
X124179400Y-74100025D01*
X124184372Y-74086283D01*
X124190946Y-74067536D01*
X124199366Y-74043046D01*
X124209878Y-74012078D01*
X124222728Y-73973897D01*
X124238163Y-73927766D01*
X124256428Y-73872949D01*
X124277768Y-73808710D01*
X124302429Y-73734314D01*
X124330658Y-73649024D01*
X124362700Y-73552105D01*
X124398801Y-73442821D01*
X124439206Y-73320435D01*
X124484162Y-73184212D01*
X124533913Y-73033416D01*
X124588707Y-72867310D01*
X124830455Y-72134425D01*
X125113775Y-72136649D01*
G36*
X113518994Y-75107977D02*
G01*
X113518994Y-74161918D01*
X113015567Y-74161918D01*
X112699223Y-74634589D01*
X112382878Y-75107259D01*
X111995932Y-75107618D01*
X111993579Y-75107620D01*
X111899989Y-75107618D01*
X111822072Y-75107407D01*
X111758638Y-75106956D01*
X111708493Y-75106233D01*
X111670447Y-75105206D01*
X111643308Y-75103843D01*
X111625883Y-75102112D01*
X111616980Y-75099981D01*
X111615409Y-75097419D01*
X111616925Y-75095109D01*
X111626807Y-75080463D01*
X111645053Y-75053594D01*
X111670860Y-75015683D01*
X111703425Y-74967905D01*
X111741943Y-74911441D01*
X111785612Y-74847468D01*
X111833627Y-74777164D01*
X111885184Y-74701708D01*
X111939481Y-74622277D01*
X111959876Y-74592447D01*
X112014516Y-74512519D01*
X112066833Y-74435974D01*
X112115926Y-74364132D01*
X112160892Y-74298314D01*
X112200830Y-74239840D01*
X112234839Y-74190029D01*
X112262016Y-74150203D01*
X112281459Y-74121680D01*
X112292268Y-74105783D01*
X112327406Y-74053870D01*
X112231576Y-74006912D01*
X112130183Y-73950482D01*
X112029507Y-73877661D01*
X111939549Y-73792872D01*
X111914330Y-73765377D01*
X111877958Y-73722663D01*
X111848554Y-73682597D01*
X111822370Y-73639875D01*
X111795657Y-73589190D01*
X111782293Y-73561256D01*
X111750088Y-73479270D01*
X111726769Y-73392756D01*
X111711854Y-73298997D01*
X111704864Y-73195277D01*
X111705014Y-73156730D01*
X112370208Y-73156730D01*
X112370950Y-73187387D01*
X112381602Y-73268604D01*
X112405381Y-73340281D01*
X112442912Y-73403944D01*
X112494820Y-73461120D01*
X112533741Y-73492356D01*
X112600299Y-73530224D01*
X112679975Y-73559621D01*
X112680220Y-73559693D01*
X112693789Y-73563137D01*
X112709977Y-73566036D01*
X112730370Y-73568451D01*
X112756554Y-73570445D01*
X112790116Y-73572079D01*
X112832641Y-73573417D01*
X112885716Y-73574519D01*
X112950927Y-73575449D01*
X113029859Y-73576268D01*
X113124099Y-73577039D01*
X113518994Y-73579998D01*
X113518994Y-72742829D01*
X113148071Y-72742829D01*
X113094724Y-72742858D01*
X113002539Y-72743137D01*
X112924651Y-72743853D01*
X112859344Y-72745170D01*
X112804903Y-72747253D01*
X112759611Y-72750268D01*
X112721753Y-72754381D01*
X112689612Y-72759756D01*
X112661472Y-72766559D01*
X112635618Y-72774955D01*
X112610334Y-72785110D01*
X112583903Y-72797189D01*
X112536817Y-72822933D01*
X112476373Y-72869966D01*
X112429665Y-72926568D01*
X112396517Y-72993035D01*
X112376756Y-73069658D01*
X112370208Y-73156730D01*
X111705014Y-73156730D01*
X111705318Y-73078880D01*
X111708068Y-73019247D01*
X111716338Y-72930035D01*
X111730026Y-72850926D01*
X111750097Y-72777949D01*
X111777514Y-72707133D01*
X111813243Y-72634506D01*
X111862333Y-72554683D01*
X111935270Y-72464620D01*
X112020971Y-72384606D01*
X112118576Y-72315234D01*
X112227229Y-72257096D01*
X112346073Y-72210787D01*
X112474251Y-72176899D01*
X112480851Y-72175541D01*
X112509317Y-72169992D01*
X112537720Y-72165108D01*
X112567271Y-72160847D01*
X112599181Y-72157167D01*
X112634661Y-72154027D01*
X112674924Y-72151385D01*
X112721179Y-72149199D01*
X112774639Y-72147427D01*
X112836514Y-72146026D01*
X112908016Y-72144956D01*
X112990355Y-72144175D01*
X113084743Y-72143640D01*
X113192392Y-72143310D01*
X113314511Y-72143142D01*
X113452314Y-72143095D01*
X114177857Y-72143095D01*
X114177857Y-75107977D01*
X113518994Y-75107977D01*
G37*
X113518994Y-75107977D02*
X113518994Y-74161918D01*
X113015567Y-74161918D01*
X112699223Y-74634589D01*
X112382878Y-75107259D01*
X111995932Y-75107618D01*
X111993579Y-75107620D01*
X111899989Y-75107618D01*
X111822072Y-75107407D01*
X111758638Y-75106956D01*
X111708493Y-75106233D01*
X111670447Y-75105206D01*
X111643308Y-75103843D01*
X111625883Y-75102112D01*
X111616980Y-75099981D01*
X111615409Y-75097419D01*
X111616925Y-75095109D01*
X111626807Y-75080463D01*
X111645053Y-75053594D01*
X111670860Y-75015683D01*
X111703425Y-74967905D01*
X111741943Y-74911441D01*
X111785612Y-74847468D01*
X111833627Y-74777164D01*
X111885184Y-74701708D01*
X111939481Y-74622277D01*
X111959876Y-74592447D01*
X112014516Y-74512519D01*
X112066833Y-74435974D01*
X112115926Y-74364132D01*
X112160892Y-74298314D01*
X112200830Y-74239840D01*
X112234839Y-74190029D01*
X112262016Y-74150203D01*
X112281459Y-74121680D01*
X112292268Y-74105783D01*
X112327406Y-74053870D01*
X112231576Y-74006912D01*
X112130183Y-73950482D01*
X112029507Y-73877661D01*
X111939549Y-73792872D01*
X111914330Y-73765377D01*
X111877958Y-73722663D01*
X111848554Y-73682597D01*
X111822370Y-73639875D01*
X111795657Y-73589190D01*
X111782293Y-73561256D01*
X111750088Y-73479270D01*
X111726769Y-73392756D01*
X111711854Y-73298997D01*
X111704864Y-73195277D01*
X111705014Y-73156730D01*
X112370208Y-73156730D01*
X112370950Y-73187387D01*
X112381602Y-73268604D01*
X112405381Y-73340281D01*
X112442912Y-73403944D01*
X112494820Y-73461120D01*
X112533741Y-73492356D01*
X112600299Y-73530224D01*
X112679975Y-73559621D01*
X112680220Y-73559693D01*
X112693789Y-73563137D01*
X112709977Y-73566036D01*
X112730370Y-73568451D01*
X112756554Y-73570445D01*
X112790116Y-73572079D01*
X112832641Y-73573417D01*
X112885716Y-73574519D01*
X112950927Y-73575449D01*
X113029859Y-73576268D01*
X113124099Y-73577039D01*
X113518994Y-73579998D01*
X113518994Y-72742829D01*
X113148071Y-72742829D01*
X113094724Y-72742858D01*
X113002539Y-72743137D01*
X112924651Y-72743853D01*
X112859344Y-72745170D01*
X112804903Y-72747253D01*
X112759611Y-72750268D01*
X112721753Y-72754381D01*
X112689612Y-72759756D01*
X112661472Y-72766559D01*
X112635618Y-72774955D01*
X112610334Y-72785110D01*
X112583903Y-72797189D01*
X112536817Y-72822933D01*
X112476373Y-72869966D01*
X112429665Y-72926568D01*
X112396517Y-72993035D01*
X112376756Y-73069658D01*
X112370208Y-73156730D01*
X111705014Y-73156730D01*
X111705318Y-73078880D01*
X111708068Y-73019247D01*
X111716338Y-72930035D01*
X111730026Y-72850926D01*
X111750097Y-72777949D01*
X111777514Y-72707133D01*
X111813243Y-72634506D01*
X111862333Y-72554683D01*
X111935270Y-72464620D01*
X112020971Y-72384606D01*
X112118576Y-72315234D01*
X112227229Y-72257096D01*
X112346073Y-72210787D01*
X112474251Y-72176899D01*
X112480851Y-72175541D01*
X112509317Y-72169992D01*
X112537720Y-72165108D01*
X112567271Y-72160847D01*
X112599181Y-72157167D01*
X112634661Y-72154027D01*
X112674924Y-72151385D01*
X112721179Y-72149199D01*
X112774639Y-72147427D01*
X112836514Y-72146026D01*
X112908016Y-72144956D01*
X112990355Y-72144175D01*
X113084743Y-72143640D01*
X113192392Y-72143310D01*
X113314511Y-72143142D01*
X113452314Y-72143095D01*
X114177857Y-72143095D01*
X114177857Y-75107977D01*
X113518994Y-75107977D01*
G36*
X122677238Y-74097926D02*
G01*
X122729183Y-74220031D01*
X122779349Y-74337967D01*
X122827334Y-74450784D01*
X122872733Y-74557537D01*
X122915144Y-74657276D01*
X122954163Y-74749053D01*
X122989387Y-74831922D01*
X123020413Y-74904935D01*
X123046836Y-74967142D01*
X123068255Y-75017598D01*
X123084265Y-75055353D01*
X123094464Y-75079460D01*
X123098447Y-75088972D01*
X123105872Y-75107977D01*
X122432450Y-75107977D01*
X122386494Y-74996055D01*
X122374750Y-74967386D01*
X122354835Y-74918606D01*
X122331180Y-74860532D01*
X122305258Y-74796782D01*
X122278539Y-74730974D01*
X122252496Y-74666722D01*
X122164455Y-74449311D01*
X121540413Y-74451325D01*
X120916372Y-74453338D01*
X120651258Y-75103754D01*
X120306630Y-75105961D01*
X120267368Y-75106208D01*
X120188892Y-75106636D01*
X120125156Y-75106832D01*
X120074660Y-75106737D01*
X120035905Y-75106298D01*
X120007392Y-75105458D01*
X119987621Y-75104161D01*
X119975093Y-75102351D01*
X119968310Y-75099974D01*
X119965771Y-75096972D01*
X119965977Y-75093291D01*
X119969612Y-75084189D01*
X119979547Y-75060300D01*
X119995455Y-75022395D01*
X120017013Y-74971239D01*
X120043895Y-74907598D01*
X120075778Y-74832236D01*
X120112336Y-74745919D01*
X120153246Y-74649411D01*
X120198183Y-74543478D01*
X120246823Y-74428885D01*
X120298840Y-74306397D01*
X120353912Y-74176779D01*
X120411712Y-74040796D01*
X120471918Y-73899213D01*
X120489013Y-73859027D01*
X121156451Y-73859027D01*
X121161894Y-73860295D01*
X121182543Y-73861693D01*
X121217015Y-73862962D01*
X121263653Y-73864071D01*
X121320796Y-73864988D01*
X121386787Y-73865682D01*
X121459966Y-73866121D01*
X121538676Y-73866275D01*
X121605571Y-73866201D01*
X121679927Y-73865937D01*
X121747439Y-73865499D01*
X121806432Y-73864910D01*
X121855232Y-73864190D01*
X121892162Y-73863359D01*
X121915549Y-73862440D01*
X121923716Y-73861453D01*
X121922445Y-73857555D01*
X121915587Y-73839690D01*
X121903396Y-73808954D01*
X121886559Y-73767024D01*
X121865761Y-73715577D01*
X121841692Y-73656288D01*
X121815038Y-73590834D01*
X121786486Y-73520892D01*
X121756724Y-73448137D01*
X121726440Y-73374246D01*
X121696319Y-73300895D01*
X121667051Y-73229762D01*
X121639321Y-73162521D01*
X121613818Y-73100850D01*
X121591228Y-73046424D01*
X121572239Y-73000920D01*
X121557539Y-72966015D01*
X121547814Y-72943385D01*
X121543751Y-72934706D01*
X121541129Y-72938988D01*
X121532609Y-72957150D01*
X121518884Y-72988041D01*
X121500626Y-73030056D01*
X121478506Y-73081593D01*
X121453197Y-73141047D01*
X121425371Y-73206816D01*
X121395698Y-73277296D01*
X121364852Y-73350883D01*
X121333504Y-73425974D01*
X121302326Y-73500966D01*
X121271990Y-73574254D01*
X121243167Y-73644236D01*
X121216530Y-73709308D01*
X121192750Y-73767866D01*
X121172500Y-73818307D01*
X121156451Y-73859027D01*
X120489013Y-73859027D01*
X120534203Y-73752795D01*
X120598245Y-73602307D01*
X121226538Y-72126202D01*
X121837316Y-72126202D01*
X121892531Y-72255018D01*
X121897868Y-72267482D01*
X121912861Y-72302570D01*
X121933335Y-72350549D01*
X121958886Y-72410471D01*
X121989112Y-72481387D01*
X122023609Y-72562351D01*
X122061974Y-72652414D01*
X122103804Y-72750629D01*
X122148694Y-72856048D01*
X122196243Y-72967722D01*
X122246046Y-73084705D01*
X122297701Y-73206049D01*
X122350803Y-73330804D01*
X122404950Y-73458025D01*
X122459738Y-73586762D01*
X122514764Y-73716069D01*
X122569625Y-73844997D01*
X122576627Y-73861453D01*
X122623918Y-73972599D01*
X122677238Y-74097926D01*
G37*
X122677238Y-74097926D02*
X122729183Y-74220031D01*
X122779349Y-74337967D01*
X122827334Y-74450784D01*
X122872733Y-74557537D01*
X122915144Y-74657276D01*
X122954163Y-74749053D01*
X122989387Y-74831922D01*
X123020413Y-74904935D01*
X123046836Y-74967142D01*
X123068255Y-75017598D01*
X123084265Y-75055353D01*
X123094464Y-75079460D01*
X123098447Y-75088972D01*
X123105872Y-75107977D01*
X122432450Y-75107977D01*
X122386494Y-74996055D01*
X122374750Y-74967386D01*
X122354835Y-74918606D01*
X122331180Y-74860532D01*
X122305258Y-74796782D01*
X122278539Y-74730974D01*
X122252496Y-74666722D01*
X122164455Y-74449311D01*
X121540413Y-74451325D01*
X120916372Y-74453338D01*
X120651258Y-75103754D01*
X120306630Y-75105961D01*
X120267368Y-75106208D01*
X120188892Y-75106636D01*
X120125156Y-75106832D01*
X120074660Y-75106737D01*
X120035905Y-75106298D01*
X120007392Y-75105458D01*
X119987621Y-75104161D01*
X119975093Y-75102351D01*
X119968310Y-75099974D01*
X119965771Y-75096972D01*
X119965977Y-75093291D01*
X119969612Y-75084189D01*
X119979547Y-75060300D01*
X119995455Y-75022395D01*
X120017013Y-74971239D01*
X120043895Y-74907598D01*
X120075778Y-74832236D01*
X120112336Y-74745919D01*
X120153246Y-74649411D01*
X120198183Y-74543478D01*
X120246823Y-74428885D01*
X120298840Y-74306397D01*
X120353912Y-74176779D01*
X120411712Y-74040796D01*
X120471918Y-73899213D01*
X120489013Y-73859027D01*
X121156451Y-73859027D01*
X121161894Y-73860295D01*
X121182543Y-73861693D01*
X121217015Y-73862962D01*
X121263653Y-73864071D01*
X121320796Y-73864988D01*
X121386787Y-73865682D01*
X121459966Y-73866121D01*
X121538676Y-73866275D01*
X121605571Y-73866201D01*
X121679927Y-73865937D01*
X121747439Y-73865499D01*
X121806432Y-73864910D01*
X121855232Y-73864190D01*
X121892162Y-73863359D01*
X121915549Y-73862440D01*
X121923716Y-73861453D01*
X121922445Y-73857555D01*
X121915587Y-73839690D01*
X121903396Y-73808954D01*
X121886559Y-73767024D01*
X121865761Y-73715577D01*
X121841692Y-73656288D01*
X121815038Y-73590834D01*
X121786486Y-73520892D01*
X121756724Y-73448137D01*
X121726440Y-73374246D01*
X121696319Y-73300895D01*
X121667051Y-73229762D01*
X121639321Y-73162521D01*
X121613818Y-73100850D01*
X121591228Y-73046424D01*
X121572239Y-73000920D01*
X121557539Y-72966015D01*
X121547814Y-72943385D01*
X121543751Y-72934706D01*
X121541129Y-72938988D01*
X121532609Y-72957150D01*
X121518884Y-72988041D01*
X121500626Y-73030056D01*
X121478506Y-73081593D01*
X121453197Y-73141047D01*
X121425371Y-73206816D01*
X121395698Y-73277296D01*
X121364852Y-73350883D01*
X121333504Y-73425974D01*
X121302326Y-73500966D01*
X121271990Y-73574254D01*
X121243167Y-73644236D01*
X121216530Y-73709308D01*
X121192750Y-73767866D01*
X121172500Y-73818307D01*
X121156451Y-73859027D01*
X120489013Y-73859027D01*
X120534203Y-73752795D01*
X120598245Y-73602307D01*
X121226538Y-72126202D01*
X121837316Y-72126202D01*
X121892531Y-72255018D01*
X121897868Y-72267482D01*
X121912861Y-72302570D01*
X121933335Y-72350549D01*
X121958886Y-72410471D01*
X121989112Y-72481387D01*
X122023609Y-72562351D01*
X122061974Y-72652414D01*
X122103804Y-72750629D01*
X122148694Y-72856048D01*
X122196243Y-72967722D01*
X122246046Y-73084705D01*
X122297701Y-73206049D01*
X122350803Y-73330804D01*
X122404950Y-73458025D01*
X122459738Y-73586762D01*
X122514764Y-73716069D01*
X122569625Y-73844997D01*
X122576627Y-73861453D01*
X122623918Y-73972599D01*
X122677238Y-74097926D01*
G36*
X103796756Y-76713421D02*
G01*
X103859700Y-76805912D01*
X103925357Y-76902171D01*
X103987797Y-76993488D01*
X104046395Y-77078961D01*
X104100525Y-77157683D01*
X104149561Y-77228750D01*
X104192878Y-77291258D01*
X104229850Y-77344302D01*
X104259852Y-77386977D01*
X104282258Y-77418378D01*
X104296442Y-77437600D01*
X104301778Y-77443739D01*
X104305623Y-77438321D01*
X104318375Y-77419741D01*
X104339414Y-77388858D01*
X104368112Y-77346600D01*
X104403841Y-77293896D01*
X104445973Y-77231674D01*
X104493879Y-77160861D01*
X104546932Y-77082388D01*
X104604502Y-76997181D01*
X104665963Y-76906169D01*
X104730684Y-76810281D01*
X104798039Y-76710444D01*
X105289213Y-75982237D01*
X105497386Y-75979978D01*
X105541860Y-75979591D01*
X105594718Y-75979406D01*
X105639794Y-75979562D01*
X105674812Y-75980038D01*
X105697492Y-75980814D01*
X105705559Y-75981868D01*
X105705402Y-75982191D01*
X105699027Y-75991965D01*
X105683738Y-76014677D01*
X105660101Y-76049502D01*
X105628680Y-76095614D01*
X105590041Y-76152187D01*
X105544750Y-76218395D01*
X105493371Y-76293414D01*
X105436471Y-76376417D01*
X105374614Y-76466579D01*
X105308366Y-76563073D01*
X105238293Y-76665076D01*
X105164959Y-76771760D01*
X105088931Y-76882300D01*
X104472303Y-77778583D01*
X104472303Y-78942896D01*
X104125978Y-78942896D01*
X104125978Y-77763906D01*
X103513573Y-76875775D01*
X103503941Y-76861805D01*
X103428424Y-76752241D01*
X103355679Y-76646628D01*
X103286277Y-76545795D01*
X103220784Y-76450572D01*
X103159771Y-76361788D01*
X103103806Y-76280271D01*
X103053458Y-76206853D01*
X103009295Y-76142361D01*
X102971886Y-76087625D01*
X102941801Y-76043475D01*
X102919607Y-76010739D01*
X102905873Y-75990247D01*
X102901169Y-75982829D01*
X102904353Y-75981969D01*
X102921752Y-75980697D01*
X102952253Y-75979608D01*
X102993518Y-75978761D01*
X103043212Y-75978210D01*
X103098996Y-75978014D01*
X103296822Y-75978014D01*
X103796756Y-76713421D01*
G37*
X103796756Y-76713421D02*
X103859700Y-76805912D01*
X103925357Y-76902171D01*
X103987797Y-76993488D01*
X104046395Y-77078961D01*
X104100525Y-77157683D01*
X104149561Y-77228750D01*
X104192878Y-77291258D01*
X104229850Y-77344302D01*
X104259852Y-77386977D01*
X104282258Y-77418378D01*
X104296442Y-77437600D01*
X104301778Y-77443739D01*
X104305623Y-77438321D01*
X104318375Y-77419741D01*
X104339414Y-77388858D01*
X104368112Y-77346600D01*
X104403841Y-77293896D01*
X104445973Y-77231674D01*
X104493879Y-77160861D01*
X104546932Y-77082388D01*
X104604502Y-76997181D01*
X104665963Y-76906169D01*
X104730684Y-76810281D01*
X104798039Y-76710444D01*
X105289213Y-75982237D01*
X105497386Y-75979978D01*
X105541860Y-75979591D01*
X105594718Y-75979406D01*
X105639794Y-75979562D01*
X105674812Y-75980038D01*
X105697492Y-75980814D01*
X105705559Y-75981868D01*
X105705402Y-75982191D01*
X105699027Y-75991965D01*
X105683738Y-76014677D01*
X105660101Y-76049502D01*
X105628680Y-76095614D01*
X105590041Y-76152187D01*
X105544750Y-76218395D01*
X105493371Y-76293414D01*
X105436471Y-76376417D01*
X105374614Y-76466579D01*
X105308366Y-76563073D01*
X105238293Y-76665076D01*
X105164959Y-76771760D01*
X105088931Y-76882300D01*
X104472303Y-77778583D01*
X104472303Y-78942896D01*
X104125978Y-78942896D01*
X104125978Y-77763906D01*
X103513573Y-76875775D01*
X103503941Y-76861805D01*
X103428424Y-76752241D01*
X103355679Y-76646628D01*
X103286277Y-76545795D01*
X103220784Y-76450572D01*
X103159771Y-76361788D01*
X103103806Y-76280271D01*
X103053458Y-76206853D01*
X103009295Y-76142361D01*
X102971886Y-76087625D01*
X102941801Y-76043475D01*
X102919607Y-76010739D01*
X102905873Y-75990247D01*
X102901169Y-75982829D01*
X102904353Y-75981969D01*
X102921752Y-75980697D01*
X102952253Y-75979608D01*
X102993518Y-75978761D01*
X103043212Y-75978210D01*
X103098996Y-75978014D01*
X103296822Y-75978014D01*
X103796756Y-76713421D01*
G36*
X117007587Y-75107977D02*
G01*
X114743803Y-75107977D01*
X114743803Y-74525137D01*
X116357172Y-74525137D01*
X116357172Y-73908510D01*
X114954977Y-73908510D01*
X114954977Y-73325669D01*
X116357172Y-73325669D01*
X116357172Y-72734382D01*
X114769144Y-72734382D01*
X114769144Y-72143095D01*
X117007587Y-72143095D01*
X117007587Y-75107977D01*
G37*
X117007587Y-75107977D02*
X114743803Y-75107977D01*
X114743803Y-74525137D01*
X116357172Y-74525137D01*
X116357172Y-73908510D01*
X114954977Y-73908510D01*
X114954977Y-73325669D01*
X116357172Y-73325669D01*
X116357172Y-72734382D01*
X114769144Y-72734382D01*
X114769144Y-72143095D01*
X117007587Y-72143095D01*
X117007587Y-75107977D01*
G36*
X111297444Y-76290551D02*
G01*
X110309150Y-76290551D01*
X110309150Y-78942896D01*
X109962825Y-78942896D01*
X109962825Y-76290551D01*
X108966084Y-76290551D01*
X108966084Y-75978014D01*
X111297444Y-75978014D01*
X111297444Y-76290551D01*
G37*
X111297444Y-76290551D02*
X110309150Y-76290551D01*
X110309150Y-78942896D01*
X109962825Y-78942896D01*
X109962825Y-76290551D01*
X108966084Y-76290551D01*
X108966084Y-75978014D01*
X111297444Y-75978014D01*
X111297444Y-76290551D01*
G36*
X118919428Y-75941513D02*
G01*
X119074505Y-75969862D01*
X119223018Y-76013381D01*
X119364530Y-76071927D01*
X119498604Y-76145355D01*
X119624803Y-76233523D01*
X119742690Y-76336286D01*
X119840564Y-76439154D01*
X119932350Y-76555605D01*
X120010586Y-76679360D01*
X120076693Y-76812688D01*
X120132093Y-76957861D01*
X120140782Y-76984939D01*
X120177310Y-77129418D01*
X120200149Y-77280421D01*
X120209352Y-77435199D01*
X120204975Y-77590998D01*
X120187070Y-77745069D01*
X120155693Y-77894659D01*
X120110896Y-78037019D01*
X120094648Y-78078687D01*
X120027690Y-78221846D01*
X119947655Y-78354965D01*
X119855351Y-78477399D01*
X119751585Y-78588499D01*
X119637164Y-78687619D01*
X119512896Y-78774111D01*
X119379587Y-78847329D01*
X119238046Y-78906626D01*
X119089079Y-78951353D01*
X118933494Y-78980865D01*
X118901839Y-78984568D01*
X118828056Y-78989842D01*
X118745761Y-78992143D01*
X118660387Y-78991468D01*
X118577367Y-78987812D01*
X118502136Y-78981173D01*
X118429463Y-78970951D01*
X118275503Y-78937230D01*
X118127842Y-78887840D01*
X117986439Y-78822762D01*
X117851252Y-78741979D01*
X117722240Y-78645472D01*
X117719722Y-78643381D01*
X117685981Y-78614619D01*
X117651025Y-78583665D01*
X117617190Y-78552723D01*
X117586810Y-78523998D01*
X117562220Y-78499693D01*
X117545753Y-78482012D01*
X117539746Y-78473161D01*
X117544851Y-78465726D01*
X117560200Y-78448241D01*
X117583918Y-78422860D01*
X117614106Y-78391610D01*
X117648870Y-78356517D01*
X117757994Y-78247636D01*
X117824144Y-78306410D01*
X117860044Y-78337741D01*
X117968051Y-78424577D01*
X118072851Y-78496870D01*
X118176369Y-78555632D01*
X118280532Y-78601876D01*
X118387265Y-78636614D01*
X118498496Y-78660858D01*
X118561047Y-78668867D01*
X118633536Y-78673781D01*
X118709927Y-78675442D01*
X118785100Y-78673852D01*
X118853935Y-78669008D01*
X118911312Y-78660911D01*
X118923040Y-78658570D01*
X119058894Y-78622610D01*
X119186201Y-78572354D01*
X119304409Y-78508364D01*
X119412965Y-78431204D01*
X119511317Y-78341436D01*
X119598914Y-78239623D01*
X119675203Y-78126329D01*
X119739632Y-78002117D01*
X119791650Y-77867549D01*
X119830703Y-77723190D01*
X119837382Y-77685091D01*
X119844262Y-77622727D01*
X119848768Y-77551225D01*
X119850868Y-77474891D01*
X119850530Y-77398031D01*
X119847721Y-77324951D01*
X119842410Y-77259956D01*
X119834564Y-77207353D01*
X119829024Y-77181192D01*
X119789999Y-77039069D01*
X119737880Y-76907374D01*
X119672376Y-76785551D01*
X119593195Y-76673046D01*
X119500046Y-76569301D01*
X119496599Y-76565890D01*
X119392701Y-76474278D01*
X119282479Y-76398249D01*
X119165361Y-76337505D01*
X119040776Y-76291749D01*
X118908153Y-76260681D01*
X118852677Y-76253525D01*
X118784118Y-76248942D01*
X118710169Y-76247324D01*
X118636336Y-76248676D01*
X118568122Y-76253004D01*
X118511032Y-76260312D01*
X118496969Y-76262890D01*
X118359461Y-76297441D01*
X118225277Y-76348049D01*
X118095742Y-76414051D01*
X117972179Y-76494779D01*
X117855911Y-76589570D01*
X117838984Y-76604631D01*
X117814244Y-76625585D01*
X117795674Y-76639976D01*
X117786366Y-76645324D01*
X117783112Y-76643399D01*
X117769699Y-76631478D01*
X117748384Y-76610659D01*
X117721360Y-76583263D01*
X117690822Y-76551612D01*
X117658963Y-76518025D01*
X117627977Y-76484824D01*
X117600057Y-76454330D01*
X117577399Y-76428864D01*
X117562195Y-76410746D01*
X117556640Y-76402297D01*
X117557324Y-76399892D01*
X117567648Y-76386251D01*
X117588948Y-76364612D01*
X117619377Y-76336690D01*
X117657089Y-76304200D01*
X117700238Y-76268859D01*
X117811267Y-76186769D01*
X117941916Y-76107094D01*
X118076928Y-76042866D01*
X118217992Y-75993402D01*
X118366796Y-75958022D01*
X118525029Y-75936042D01*
X118591330Y-75930899D01*
X118758224Y-75928477D01*
X118919428Y-75941513D01*
G37*
X118919428Y-75941513D02*
X119074505Y-75969862D01*
X119223018Y-76013381D01*
X119364530Y-76071927D01*
X119498604Y-76145355D01*
X119624803Y-76233523D01*
X119742690Y-76336286D01*
X119840564Y-76439154D01*
X119932350Y-76555605D01*
X120010586Y-76679360D01*
X120076693Y-76812688D01*
X120132093Y-76957861D01*
X120140782Y-76984939D01*
X120177310Y-77129418D01*
X120200149Y-77280421D01*
X120209352Y-77435199D01*
X120204975Y-77590998D01*
X120187070Y-77745069D01*
X120155693Y-77894659D01*
X120110896Y-78037019D01*
X120094648Y-78078687D01*
X120027690Y-78221846D01*
X119947655Y-78354965D01*
X119855351Y-78477399D01*
X119751585Y-78588499D01*
X119637164Y-78687619D01*
X119512896Y-78774111D01*
X119379587Y-78847329D01*
X119238046Y-78906626D01*
X119089079Y-78951353D01*
X118933494Y-78980865D01*
X118901839Y-78984568D01*
X118828056Y-78989842D01*
X118745761Y-78992143D01*
X118660387Y-78991468D01*
X118577367Y-78987812D01*
X118502136Y-78981173D01*
X118429463Y-78970951D01*
X118275503Y-78937230D01*
X118127842Y-78887840D01*
X117986439Y-78822762D01*
X117851252Y-78741979D01*
X117722240Y-78645472D01*
X117719722Y-78643381D01*
X117685981Y-78614619D01*
X117651025Y-78583665D01*
X117617190Y-78552723D01*
X117586810Y-78523998D01*
X117562220Y-78499693D01*
X117545753Y-78482012D01*
X117539746Y-78473161D01*
X117544851Y-78465726D01*
X117560200Y-78448241D01*
X117583918Y-78422860D01*
X117614106Y-78391610D01*
X117648870Y-78356517D01*
X117757994Y-78247636D01*
X117824144Y-78306410D01*
X117860044Y-78337741D01*
X117968051Y-78424577D01*
X118072851Y-78496870D01*
X118176369Y-78555632D01*
X118280532Y-78601876D01*
X118387265Y-78636614D01*
X118498496Y-78660858D01*
X118561047Y-78668867D01*
X118633536Y-78673781D01*
X118709927Y-78675442D01*
X118785100Y-78673852D01*
X118853935Y-78669008D01*
X118911312Y-78660911D01*
X118923040Y-78658570D01*
X119058894Y-78622610D01*
X119186201Y-78572354D01*
X119304409Y-78508364D01*
X119412965Y-78431204D01*
X119511317Y-78341436D01*
X119598914Y-78239623D01*
X119675203Y-78126329D01*
X119739632Y-78002117D01*
X119791650Y-77867549D01*
X119830703Y-77723190D01*
X119837382Y-77685091D01*
X119844262Y-77622727D01*
X119848768Y-77551225D01*
X119850868Y-77474891D01*
X119850530Y-77398031D01*
X119847721Y-77324951D01*
X119842410Y-77259956D01*
X119834564Y-77207353D01*
X119829024Y-77181192D01*
X119789999Y-77039069D01*
X119737880Y-76907374D01*
X119672376Y-76785551D01*
X119593195Y-76673046D01*
X119500046Y-76569301D01*
X119496599Y-76565890D01*
X119392701Y-76474278D01*
X119282479Y-76398249D01*
X119165361Y-76337505D01*
X119040776Y-76291749D01*
X118908153Y-76260681D01*
X118852677Y-76253525D01*
X118784118Y-76248942D01*
X118710169Y-76247324D01*
X118636336Y-76248676D01*
X118568122Y-76253004D01*
X118511032Y-76260312D01*
X118496969Y-76262890D01*
X118359461Y-76297441D01*
X118225277Y-76348049D01*
X118095742Y-76414051D01*
X117972179Y-76494779D01*
X117855911Y-76589570D01*
X117838984Y-76604631D01*
X117814244Y-76625585D01*
X117795674Y-76639976D01*
X117786366Y-76645324D01*
X117783112Y-76643399D01*
X117769699Y-76631478D01*
X117748384Y-76610659D01*
X117721360Y-76583263D01*
X117690822Y-76551612D01*
X117658963Y-76518025D01*
X117627977Y-76484824D01*
X117600057Y-76454330D01*
X117577399Y-76428864D01*
X117562195Y-76410746D01*
X117556640Y-76402297D01*
X117557324Y-76399892D01*
X117567648Y-76386251D01*
X117588948Y-76364612D01*
X117619377Y-76336690D01*
X117657089Y-76304200D01*
X117700238Y-76268859D01*
X117811267Y-76186769D01*
X117941916Y-76107094D01*
X118076928Y-76042866D01*
X118217992Y-75993402D01*
X118366796Y-75958022D01*
X118525029Y-75936042D01*
X118591330Y-75930899D01*
X118758224Y-75928477D01*
X118919428Y-75941513D01*
G36*
X123629600Y-77626387D02*
G01*
X123609906Y-77764422D01*
X123573190Y-77920012D01*
X123522261Y-78068458D01*
X123457678Y-78208928D01*
X123380003Y-78340587D01*
X123289797Y-78462603D01*
X123187620Y-78574141D01*
X123074032Y-78674367D01*
X122949596Y-78762449D01*
X122814870Y-78837552D01*
X122763227Y-78861770D01*
X122617819Y-78918633D01*
X122470870Y-78959284D01*
X122320723Y-78984216D01*
X122292740Y-78987048D01*
X122183291Y-78992730D01*
X122067532Y-78991256D01*
X121951012Y-78982979D01*
X121839280Y-78968248D01*
X121737883Y-78947413D01*
X121629973Y-78915819D01*
X121485989Y-78859011D01*
X121349932Y-78787978D01*
X121222657Y-78703526D01*
X121105017Y-78606460D01*
X120997868Y-78497587D01*
X120902064Y-78377713D01*
X120818459Y-78247644D01*
X120747908Y-78108185D01*
X120691265Y-77960144D01*
X120677079Y-77915512D01*
X120658362Y-77851417D01*
X120644001Y-77792825D01*
X120633466Y-77736011D01*
X120626227Y-77677249D01*
X120621753Y-77612811D01*
X120619516Y-77538973D01*
X120619062Y-77464678D01*
X120973962Y-77464678D01*
X120974208Y-77516792D01*
X120976140Y-77589918D01*
X120980473Y-77652815D01*
X120987784Y-77709561D01*
X120998652Y-77764235D01*
X121013656Y-77820916D01*
X121033373Y-77883682D01*
X121040425Y-77904335D01*
X121093930Y-78032497D01*
X121160724Y-78151673D01*
X121239804Y-78260979D01*
X121330165Y-78359531D01*
X121430801Y-78446446D01*
X121540709Y-78520840D01*
X121658882Y-78581828D01*
X121784316Y-78628527D01*
X121916007Y-78660052D01*
X121936212Y-78663192D01*
X121980962Y-78668553D01*
X122030832Y-78673044D01*
X122078307Y-78675931D01*
X122168472Y-78676203D01*
X122303348Y-78663261D01*
X122433837Y-78634786D01*
X122558895Y-78591475D01*
X122677481Y-78534024D01*
X122788550Y-78463128D01*
X122891059Y-78379483D01*
X122983967Y-78283784D01*
X123066230Y-78176727D01*
X123136804Y-78059008D01*
X123194648Y-77931322D01*
X123231284Y-77821499D01*
X123262307Y-77683963D01*
X123278614Y-77543876D01*
X123280384Y-77403064D01*
X123267800Y-77263353D01*
X123241042Y-77126565D01*
X123200292Y-76994528D01*
X123145730Y-76869065D01*
X123077539Y-76752001D01*
X123060896Y-76727690D01*
X122973902Y-76617728D01*
X122877052Y-76521300D01*
X122771014Y-76438759D01*
X122656459Y-76370461D01*
X122534056Y-76316761D01*
X122404472Y-76278016D01*
X122268379Y-76254580D01*
X122126443Y-76246808D01*
X122053542Y-76248954D01*
X121915290Y-76265022D01*
X121783338Y-76296709D01*
X121657956Y-76343903D01*
X121539416Y-76406493D01*
X121427987Y-76484367D01*
X121323940Y-76577413D01*
X121231729Y-76680881D01*
X121151176Y-76795769D01*
X121084623Y-76919878D01*
X121031903Y-77053521D01*
X120992850Y-77197008D01*
X120989723Y-77211801D01*
X120983967Y-77242964D01*
X120979783Y-77273976D01*
X120976931Y-77308245D01*
X120975170Y-77349180D01*
X120974261Y-77400188D01*
X120973962Y-77464678D01*
X120619062Y-77464678D01*
X120618985Y-77452008D01*
X120619156Y-77393332D01*
X120619661Y-77338452D01*
X120620709Y-77294718D01*
X120622523Y-77259044D01*
X120625328Y-77228346D01*
X120629346Y-77199537D01*
X120634800Y-77169533D01*
X120641914Y-77135247D01*
X120659347Y-77060167D01*
X120688248Y-76959398D01*
X120723173Y-76863702D01*
X120766469Y-76766123D01*
X120819145Y-76665097D01*
X120903395Y-76532791D01*
X120999265Y-76412683D01*
X121106985Y-76304521D01*
X121226787Y-76208054D01*
X121358904Y-76123029D01*
X121460545Y-76069970D01*
X121599980Y-76013124D01*
X121746328Y-75970992D01*
X121900420Y-75943347D01*
X122063091Y-75929961D01*
X122073556Y-75929597D01*
X122236578Y-75932361D01*
X122395346Y-75950976D01*
X122549068Y-75985224D01*
X122696954Y-76034888D01*
X122838210Y-76099750D01*
X122972045Y-76179592D01*
X123064241Y-76247019D01*
X123179338Y-76348814D01*
X123282800Y-76461675D01*
X123374110Y-76584464D01*
X123452752Y-76716043D01*
X123518208Y-76855275D01*
X123569961Y-77001021D01*
X123607494Y-77152143D01*
X123630290Y-77307503D01*
X123634838Y-77403064D01*
X123637831Y-77465964D01*
X123629600Y-77626387D01*
G37*
X123629600Y-77626387D02*
X123609906Y-77764422D01*
X123573190Y-77920012D01*
X123522261Y-78068458D01*
X123457678Y-78208928D01*
X123380003Y-78340587D01*
X123289797Y-78462603D01*
X123187620Y-78574141D01*
X123074032Y-78674367D01*
X122949596Y-78762449D01*
X122814870Y-78837552D01*
X122763227Y-78861770D01*
X122617819Y-78918633D01*
X122470870Y-78959284D01*
X122320723Y-78984216D01*
X122292740Y-78987048D01*
X122183291Y-78992730D01*
X122067532Y-78991256D01*
X121951012Y-78982979D01*
X121839280Y-78968248D01*
X121737883Y-78947413D01*
X121629973Y-78915819D01*
X121485989Y-78859011D01*
X121349932Y-78787978D01*
X121222657Y-78703526D01*
X121105017Y-78606460D01*
X120997868Y-78497587D01*
X120902064Y-78377713D01*
X120818459Y-78247644D01*
X120747908Y-78108185D01*
X120691265Y-77960144D01*
X120677079Y-77915512D01*
X120658362Y-77851417D01*
X120644001Y-77792825D01*
X120633466Y-77736011D01*
X120626227Y-77677249D01*
X120621753Y-77612811D01*
X120619516Y-77538973D01*
X120619062Y-77464678D01*
X120973962Y-77464678D01*
X120974208Y-77516792D01*
X120976140Y-77589918D01*
X120980473Y-77652815D01*
X120987784Y-77709561D01*
X120998652Y-77764235D01*
X121013656Y-77820916D01*
X121033373Y-77883682D01*
X121040425Y-77904335D01*
X121093930Y-78032497D01*
X121160724Y-78151673D01*
X121239804Y-78260979D01*
X121330165Y-78359531D01*
X121430801Y-78446446D01*
X121540709Y-78520840D01*
X121658882Y-78581828D01*
X121784316Y-78628527D01*
X121916007Y-78660052D01*
X121936212Y-78663192D01*
X121980962Y-78668553D01*
X122030832Y-78673044D01*
X122078307Y-78675931D01*
X122168472Y-78676203D01*
X122303348Y-78663261D01*
X122433837Y-78634786D01*
X122558895Y-78591475D01*
X122677481Y-78534024D01*
X122788550Y-78463128D01*
X122891059Y-78379483D01*
X122983967Y-78283784D01*
X123066230Y-78176727D01*
X123136804Y-78059008D01*
X123194648Y-77931322D01*
X123231284Y-77821499D01*
X123262307Y-77683963D01*
X123278614Y-77543876D01*
X123280384Y-77403064D01*
X123267800Y-77263353D01*
X123241042Y-77126565D01*
X123200292Y-76994528D01*
X123145730Y-76869065D01*
X123077539Y-76752001D01*
X123060896Y-76727690D01*
X122973902Y-76617728D01*
X122877052Y-76521300D01*
X122771014Y-76438759D01*
X122656459Y-76370461D01*
X122534056Y-76316761D01*
X122404472Y-76278016D01*
X122268379Y-76254580D01*
X122126443Y-76246808D01*
X122053542Y-76248954D01*
X121915290Y-76265022D01*
X121783338Y-76296709D01*
X121657956Y-76343903D01*
X121539416Y-76406493D01*
X121427987Y-76484367D01*
X121323940Y-76577413D01*
X121231729Y-76680881D01*
X121151176Y-76795769D01*
X121084623Y-76919878D01*
X121031903Y-77053521D01*
X120992850Y-77197008D01*
X120989723Y-77211801D01*
X120983967Y-77242964D01*
X120979783Y-77273976D01*
X120976931Y-77308245D01*
X120975170Y-77349180D01*
X120974261Y-77400188D01*
X120973962Y-77464678D01*
X120619062Y-77464678D01*
X120618985Y-77452008D01*
X120619156Y-77393332D01*
X120619661Y-77338452D01*
X120620709Y-77294718D01*
X120622523Y-77259044D01*
X120625328Y-77228346D01*
X120629346Y-77199537D01*
X120634800Y-77169533D01*
X120641914Y-77135247D01*
X120659347Y-77060167D01*
X120688248Y-76959398D01*
X120723173Y-76863702D01*
X120766469Y-76766123D01*
X120819145Y-76665097D01*
X120903395Y-76532791D01*
X120999265Y-76412683D01*
X121106985Y-76304521D01*
X121226787Y-76208054D01*
X121358904Y-76123029D01*
X121460545Y-76069970D01*
X121599980Y-76013124D01*
X121746328Y-75970992D01*
X121900420Y-75943347D01*
X122063091Y-75929961D01*
X122073556Y-75929597D01*
X122236578Y-75932361D01*
X122395346Y-75950976D01*
X122549068Y-75985224D01*
X122696954Y-76034888D01*
X122838210Y-76099750D01*
X122972045Y-76179592D01*
X123064241Y-76247019D01*
X123179338Y-76348814D01*
X123282800Y-76461675D01*
X123374110Y-76584464D01*
X123452752Y-76716043D01*
X123518208Y-76855275D01*
X123569961Y-77001021D01*
X123607494Y-77152143D01*
X123630290Y-77307503D01*
X123634838Y-77403064D01*
X123637831Y-77465964D01*
X123629600Y-77626387D01*
G36*
X116614804Y-77733568D02*
G01*
X116619106Y-75978014D01*
X116956906Y-75978014D01*
X116956906Y-78942896D01*
X116619027Y-78942896D01*
X116619027Y-78151805D01*
X116304378Y-77833642D01*
X115989729Y-77515478D01*
X115424796Y-78229187D01*
X114859864Y-78942896D01*
X114645066Y-78942896D01*
X114584598Y-78942731D01*
X114526753Y-78942074D01*
X114483970Y-78940875D01*
X114455252Y-78939088D01*
X114439604Y-78936669D01*
X114436030Y-78933574D01*
X114441367Y-78926609D01*
X114456636Y-78907141D01*
X114481175Y-78876018D01*
X114514344Y-78834045D01*
X114555505Y-78782028D01*
X114604021Y-78720772D01*
X114659253Y-78651083D01*
X114720562Y-78573766D01*
X114787311Y-78489626D01*
X114858861Y-78399469D01*
X114934574Y-78304100D01*
X115013812Y-78204324D01*
X115095936Y-78100946D01*
X115750081Y-77277640D01*
X115684356Y-77208555D01*
X115682477Y-77206587D01*
X115665039Y-77188509D01*
X115636875Y-77159512D01*
X115598931Y-77120560D01*
X115552150Y-77072620D01*
X115497478Y-77016659D01*
X115435860Y-76953641D01*
X115368239Y-76884534D01*
X115295560Y-76810304D01*
X115218768Y-76731916D01*
X115138808Y-76650337D01*
X115056624Y-76566532D01*
X115031046Y-76540451D01*
X114951482Y-76459258D01*
X114875570Y-76381693D01*
X114804128Y-76308598D01*
X114737975Y-76240814D01*
X114677930Y-76179185D01*
X114624813Y-76124552D01*
X114579442Y-76077757D01*
X114542636Y-76039643D01*
X114515215Y-76011051D01*
X114497997Y-75992824D01*
X114491802Y-75985804D01*
X114494580Y-75984297D01*
X114511786Y-75982187D01*
X114543300Y-75980447D01*
X114587544Y-75979133D01*
X114642937Y-75978303D01*
X114707900Y-75978014D01*
X114926814Y-75978014D01*
X116614804Y-77733568D01*
G37*
X116614804Y-77733568D02*
X116619106Y-75978014D01*
X116956906Y-75978014D01*
X116956906Y-78942896D01*
X116619027Y-78942896D01*
X116619027Y-78151805D01*
X116304378Y-77833642D01*
X115989729Y-77515478D01*
X115424796Y-78229187D01*
X114859864Y-78942896D01*
X114645066Y-78942896D01*
X114584598Y-78942731D01*
X114526753Y-78942074D01*
X114483970Y-78940875D01*
X114455252Y-78939088D01*
X114439604Y-78936669D01*
X114436030Y-78933574D01*
X114441367Y-78926609D01*
X114456636Y-78907141D01*
X114481175Y-78876018D01*
X114514344Y-78834045D01*
X114555505Y-78782028D01*
X114604021Y-78720772D01*
X114659253Y-78651083D01*
X114720562Y-78573766D01*
X114787311Y-78489626D01*
X114858861Y-78399469D01*
X114934574Y-78304100D01*
X115013812Y-78204324D01*
X115095936Y-78100946D01*
X115750081Y-77277640D01*
X115684356Y-77208555D01*
X115682477Y-77206587D01*
X115665039Y-77188509D01*
X115636875Y-77159512D01*
X115598931Y-77120560D01*
X115552150Y-77072620D01*
X115497478Y-77016659D01*
X115435860Y-76953641D01*
X115368239Y-76884534D01*
X115295560Y-76810304D01*
X115218768Y-76731916D01*
X115138808Y-76650337D01*
X115056624Y-76566532D01*
X115031046Y-76540451D01*
X114951482Y-76459258D01*
X114875570Y-76381693D01*
X114804128Y-76308598D01*
X114737975Y-76240814D01*
X114677930Y-76179185D01*
X114624813Y-76124552D01*
X114579442Y-76077757D01*
X114542636Y-76039643D01*
X114515215Y-76011051D01*
X114497997Y-75992824D01*
X114491802Y-75985804D01*
X114494580Y-75984297D01*
X114511786Y-75982187D01*
X114543300Y-75980447D01*
X114587544Y-75979133D01*
X114642937Y-75978303D01*
X114707900Y-75978014D01*
X114926814Y-75978014D01*
X116614804Y-77733568D01*
G36*
X126147195Y-78942896D02*
G01*
X126147195Y-77794110D01*
X125313275Y-77794110D01*
X124884747Y-78368503D01*
X124456218Y-78942896D01*
X124245417Y-78942896D01*
X124191118Y-78942802D01*
X124136606Y-78942370D01*
X124096077Y-78941507D01*
X124067910Y-78940128D01*
X124050485Y-78938146D01*
X124042179Y-78935475D01*
X124041371Y-78932028D01*
X124045993Y-78925634D01*
X124060172Y-78906495D01*
X124083124Y-78875699D01*
X124114107Y-78834233D01*
X124152381Y-78783085D01*
X124197206Y-78723244D01*
X124247842Y-78655698D01*
X124303548Y-78581436D01*
X124363585Y-78501444D01*
X124427211Y-78416712D01*
X124493687Y-78328227D01*
X124559926Y-78240068D01*
X124629166Y-78147851D01*
X124689341Y-78067584D01*
X124741043Y-77998427D01*
X124784864Y-77939543D01*
X124821396Y-77890093D01*
X124851230Y-77849239D01*
X124874960Y-77816143D01*
X124893176Y-77789965D01*
X124906470Y-77769868D01*
X124915435Y-77755014D01*
X124920663Y-77744563D01*
X124922745Y-77737678D01*
X124922273Y-77733520D01*
X124919839Y-77731251D01*
X124916035Y-77730033D01*
X124840492Y-77711135D01*
X124709328Y-77668446D01*
X124592011Y-77616244D01*
X124488369Y-77554383D01*
X124398230Y-77482715D01*
X124321422Y-77401096D01*
X124257772Y-77309377D01*
X124207108Y-77207413D01*
X124169259Y-77095058D01*
X124164687Y-77075408D01*
X124156491Y-77023726D01*
X124150513Y-76962525D01*
X124146969Y-76896747D01*
X124146706Y-76877615D01*
X124491591Y-76877615D01*
X124496454Y-76958594D01*
X124515909Y-77052879D01*
X124549772Y-77139167D01*
X124597551Y-77217010D01*
X124658755Y-77285955D01*
X124732895Y-77345552D01*
X124819479Y-77395352D01*
X124918017Y-77434903D01*
X125028020Y-77463754D01*
X125148995Y-77481456D01*
X125155759Y-77482008D01*
X125186852Y-77483629D01*
X125232212Y-77485135D01*
X125289859Y-77486494D01*
X125357815Y-77487677D01*
X125434103Y-77488651D01*
X125516744Y-77489386D01*
X125603759Y-77489850D01*
X125693171Y-77490012D01*
X126147195Y-77490019D01*
X126147195Y-76290551D01*
X125696509Y-76290551D01*
X125673003Y-76290563D01*
X125583482Y-76290813D01*
X125496327Y-76291364D01*
X125413612Y-76292185D01*
X125337413Y-76293243D01*
X125269806Y-76294506D01*
X125212866Y-76295942D01*
X125168669Y-76297518D01*
X125139290Y-76299202D01*
X125124981Y-76300436D01*
X125003339Y-76317431D01*
X124894621Y-76345080D01*
X124798580Y-76383481D01*
X124714973Y-76432728D01*
X124643553Y-76492918D01*
X124591861Y-76551618D01*
X124546669Y-76622175D01*
X124515482Y-76698538D01*
X124497417Y-76782940D01*
X124491591Y-76877615D01*
X124146706Y-76877615D01*
X124146071Y-76831331D01*
X124148034Y-76771217D01*
X124153071Y-76721346D01*
X124158701Y-76688665D01*
X124188501Y-76574343D01*
X124232385Y-76468951D01*
X124289954Y-76372820D01*
X124360806Y-76286280D01*
X124444540Y-76209662D01*
X124540756Y-76143298D01*
X124649053Y-76087519D01*
X124769031Y-76042654D01*
X124900287Y-76009036D01*
X125042422Y-75986994D01*
X125045965Y-75986644D01*
X125074135Y-75984930D01*
X125118270Y-75983383D01*
X125177594Y-75982013D01*
X125251330Y-75980829D01*
X125338700Y-75979840D01*
X125438928Y-75979055D01*
X125551236Y-75978483D01*
X125674847Y-75978133D01*
X125808984Y-75978014D01*
X126493520Y-75978014D01*
X126493520Y-78942896D01*
X126147195Y-78942896D01*
G37*
X126147195Y-78942896D02*
X126147195Y-77794110D01*
X125313275Y-77794110D01*
X124884747Y-78368503D01*
X124456218Y-78942896D01*
X124245417Y-78942896D01*
X124191118Y-78942802D01*
X124136606Y-78942370D01*
X124096077Y-78941507D01*
X124067910Y-78940128D01*
X124050485Y-78938146D01*
X124042179Y-78935475D01*
X124041371Y-78932028D01*
X124045993Y-78925634D01*
X124060172Y-78906495D01*
X124083124Y-78875699D01*
X124114107Y-78834233D01*
X124152381Y-78783085D01*
X124197206Y-78723244D01*
X124247842Y-78655698D01*
X124303548Y-78581436D01*
X124363585Y-78501444D01*
X124427211Y-78416712D01*
X124493687Y-78328227D01*
X124559926Y-78240068D01*
X124629166Y-78147851D01*
X124689341Y-78067584D01*
X124741043Y-77998427D01*
X124784864Y-77939543D01*
X124821396Y-77890093D01*
X124851230Y-77849239D01*
X124874960Y-77816143D01*
X124893176Y-77789965D01*
X124906470Y-77769868D01*
X124915435Y-77755014D01*
X124920663Y-77744563D01*
X124922745Y-77737678D01*
X124922273Y-77733520D01*
X124919839Y-77731251D01*
X124916035Y-77730033D01*
X124840492Y-77711135D01*
X124709328Y-77668446D01*
X124592011Y-77616244D01*
X124488369Y-77554383D01*
X124398230Y-77482715D01*
X124321422Y-77401096D01*
X124257772Y-77309377D01*
X124207108Y-77207413D01*
X124169259Y-77095058D01*
X124164687Y-77075408D01*
X124156491Y-77023726D01*
X124150513Y-76962525D01*
X124146969Y-76896747D01*
X124146706Y-76877615D01*
X124491591Y-76877615D01*
X124496454Y-76958594D01*
X124515909Y-77052879D01*
X124549772Y-77139167D01*
X124597551Y-77217010D01*
X124658755Y-77285955D01*
X124732895Y-77345552D01*
X124819479Y-77395352D01*
X124918017Y-77434903D01*
X125028020Y-77463754D01*
X125148995Y-77481456D01*
X125155759Y-77482008D01*
X125186852Y-77483629D01*
X125232212Y-77485135D01*
X125289859Y-77486494D01*
X125357815Y-77487677D01*
X125434103Y-77488651D01*
X125516744Y-77489386D01*
X125603759Y-77489850D01*
X125693171Y-77490012D01*
X126147195Y-77490019D01*
X126147195Y-76290551D01*
X125696509Y-76290551D01*
X125673003Y-76290563D01*
X125583482Y-76290813D01*
X125496327Y-76291364D01*
X125413612Y-76292185D01*
X125337413Y-76293243D01*
X125269806Y-76294506D01*
X125212866Y-76295942D01*
X125168669Y-76297518D01*
X125139290Y-76299202D01*
X125124981Y-76300436D01*
X125003339Y-76317431D01*
X124894621Y-76345080D01*
X124798580Y-76383481D01*
X124714973Y-76432728D01*
X124643553Y-76492918D01*
X124591861Y-76551618D01*
X124546669Y-76622175D01*
X124515482Y-76698538D01*
X124497417Y-76782940D01*
X124491591Y-76877615D01*
X124146706Y-76877615D01*
X124146071Y-76831331D01*
X124148034Y-76771217D01*
X124153071Y-76721346D01*
X124158701Y-76688665D01*
X124188501Y-76574343D01*
X124232385Y-76468951D01*
X124289954Y-76372820D01*
X124360806Y-76286280D01*
X124444540Y-76209662D01*
X124540756Y-76143298D01*
X124649053Y-76087519D01*
X124769031Y-76042654D01*
X124900287Y-76009036D01*
X125042422Y-75986994D01*
X125045965Y-75986644D01*
X125074135Y-75984930D01*
X125118270Y-75983383D01*
X125177594Y-75982013D01*
X125251330Y-75980829D01*
X125338700Y-75979840D01*
X125438928Y-75979055D01*
X125551236Y-75978483D01*
X125674847Y-75978133D01*
X125808984Y-75978014D01*
X126493520Y-75978014D01*
X126493520Y-78942896D01*
X126147195Y-78942896D01*
%TD*%
M02*
