%TF.GenerationSoftware,KiCad,Pcbnew,(6.0.10)*%
%TF.CreationDate,2023-02-14T20:35:35-05:00*%
%TF.ProjectId,starterProject,73746172-7465-4725-9072-6f6a6563742e,rev?*%
%TF.SameCoordinates,Original*%
%TF.FileFunction,Soldermask,Top*%
%TF.FilePolarity,Negative*%
%FSLAX46Y46*%
G04 Gerber Fmt 4.6, Leading zero omitted, Abs format (unit mm)*
G04 Created by KiCad (PCBNEW (6.0.10)) date 2023-02-14 20:35:35*
%MOMM*%
%LPD*%
G01*
G04 APERTURE LIST*
G04 Aperture macros list*
%AMRoundRect*
0 Rectangle with rounded corners*
0 $1 Rounding radius*
0 $2 $3 $4 $5 $6 $7 $8 $9 X,Y pos of 4 corners*
0 Add a 4 corners polygon primitive as box body*
4,1,4,$2,$3,$4,$5,$6,$7,$8,$9,$2,$3,0*
0 Add four circle primitives for the rounded corners*
1,1,$1+$1,$2,$3*
1,1,$1+$1,$4,$5*
1,1,$1+$1,$6,$7*
1,1,$1+$1,$8,$9*
0 Add four rect primitives between the rounded corners*
20,1,$1+$1,$2,$3,$4,$5,0*
20,1,$1+$1,$4,$5,$6,$7,0*
20,1,$1+$1,$6,$7,$8,$9,0*
20,1,$1+$1,$8,$9,$2,$3,0*%
G04 Aperture macros list end*
%ADD10R,2.000000X2.000000*%
%ADD11RoundRect,0.250000X-0.350000X-0.450000X0.350000X-0.450000X0.350000X0.450000X-0.350000X0.450000X0*%
%ADD12C,4.000000*%
%ADD13C,1.800000*%
%ADD14RoundRect,0.250000X-0.450000X0.350000X-0.450000X-0.350000X0.450000X-0.350000X0.450000X0.350000X0*%
%ADD15RoundRect,0.250001X0.624999X-0.462499X0.624999X0.462499X-0.624999X0.462499X-0.624999X-0.462499X0*%
%ADD16R,1.000000X2.000000*%
%ADD17C,2.000000*%
%ADD18C,6.400000*%
%ADD19R,2.600000X2.600000*%
%ADD20C,2.600000*%
%ADD21RoundRect,0.150000X-0.825000X-0.150000X0.825000X-0.150000X0.825000X0.150000X-0.825000X0.150000X0*%
%ADD22RoundRect,0.250000X-0.337500X-0.475000X0.337500X-0.475000X0.337500X0.475000X-0.337500X0.475000X0*%
G04 APERTURE END LIST*
D10*
%TO.C,TP2*%
X132588000Y-99715977D03*
%TD*%
D11*
%TO.C,R2*%
X116872000Y-71120000D03*
X118872000Y-71120000D03*
%TD*%
D12*
%TO.C,RV1*%
X137840000Y-92390000D03*
X146640000Y-92390000D03*
D13*
X139740000Y-85390000D03*
X142240000Y-85390000D03*
X144740000Y-85390000D03*
%TD*%
D14*
%TO.C,R3*%
X127508000Y-86555500D03*
X127508000Y-88555500D03*
%TD*%
D11*
%TO.C,R1*%
X130048000Y-71120000D03*
X132048000Y-71120000D03*
%TD*%
D15*
%TO.C,D2*%
X120904000Y-96991500D03*
X120904000Y-94016500D03*
%TD*%
D16*
%TO.C,J2*%
X118364000Y-62992000D03*
X120904000Y-62992000D03*
X123444000Y-62992000D03*
X125984000Y-62992000D03*
X128524000Y-62992000D03*
%TD*%
D17*
%TO.C,SW1*%
X111454000Y-93182000D03*
X104954000Y-93182000D03*
X104954000Y-88682000D03*
X111454000Y-88682000D03*
%TD*%
D14*
%TO.C,R4*%
X120904000Y-86519000D03*
X120904000Y-88519000D03*
%TD*%
D10*
%TO.C,TP1*%
X115316000Y-99715977D03*
%TD*%
D18*
%TO.C,REF\u002A\u002A*%
X144272000Y-76855977D03*
%TD*%
D19*
%TO.C,J1*%
X108188000Y-62671977D03*
D20*
X108188000Y-67671977D03*
%TD*%
D10*
%TO.C,BZ1*%
X141732000Y-64516000D03*
D17*
X141732000Y-59516000D03*
%TD*%
D15*
%TO.C,D1*%
X127508000Y-97028000D03*
X127508000Y-94053000D03*
%TD*%
D21*
%TO.C,U1*%
X121477000Y-77851000D03*
X121477000Y-79121000D03*
X121477000Y-80391000D03*
X121477000Y-81661000D03*
X126427000Y-81661000D03*
X126427000Y-80391000D03*
X126427000Y-79121000D03*
X126427000Y-77851000D03*
%TD*%
D22*
%TO.C,C1*%
X123422500Y-71120000D03*
X125497500Y-71120000D03*
%TD*%
M02*
