%TF.GenerationSoftware,KiCad,Pcbnew,(6.0.10)*%
%TF.CreationDate,2023-02-14T20:35:35-05:00*%
%TF.ProjectId,starterProject,73746172-7465-4725-9072-6f6a6563742e,rev?*%
%TF.SameCoordinates,Original*%
%TF.FileFunction,Copper,L1,Top*%
%TF.FilePolarity,Positive*%
%FSLAX46Y46*%
G04 Gerber Fmt 4.6, Leading zero omitted, Abs format (unit mm)*
G04 Created by KiCad (PCBNEW (6.0.10)) date 2023-02-14 20:35:35*
%MOMM*%
%LPD*%
G01*
G04 APERTURE LIST*
G04 Aperture macros list*
%AMRoundRect*
0 Rectangle with rounded corners*
0 $1 Rounding radius*
0 $2 $3 $4 $5 $6 $7 $8 $9 X,Y pos of 4 corners*
0 Add a 4 corners polygon primitive as box body*
4,1,4,$2,$3,$4,$5,$6,$7,$8,$9,$2,$3,0*
0 Add four circle primitives for the rounded corners*
1,1,$1+$1,$2,$3*
1,1,$1+$1,$4,$5*
1,1,$1+$1,$6,$7*
1,1,$1+$1,$8,$9*
0 Add four rect primitives between the rounded corners*
20,1,$1+$1,$2,$3,$4,$5,0*
20,1,$1+$1,$4,$5,$6,$7,0*
20,1,$1+$1,$6,$7,$8,$9,0*
20,1,$1+$1,$8,$9,$2,$3,0*%
G04 Aperture macros list end*
%TA.AperFunction,ComponentPad*%
%ADD10R,2.000000X2.000000*%
%TD*%
%TA.AperFunction,SMDPad,CuDef*%
%ADD11RoundRect,0.250000X-0.350000X-0.450000X0.350000X-0.450000X0.350000X0.450000X-0.350000X0.450000X0*%
%TD*%
%TA.AperFunction,WasherPad*%
%ADD12C,4.000000*%
%TD*%
%TA.AperFunction,ComponentPad*%
%ADD13C,1.800000*%
%TD*%
%TA.AperFunction,SMDPad,CuDef*%
%ADD14RoundRect,0.250000X-0.450000X0.350000X-0.450000X-0.350000X0.450000X-0.350000X0.450000X0.350000X0*%
%TD*%
%TA.AperFunction,SMDPad,CuDef*%
%ADD15RoundRect,0.250001X0.624999X-0.462499X0.624999X0.462499X-0.624999X0.462499X-0.624999X-0.462499X0*%
%TD*%
%TA.AperFunction,SMDPad,CuDef*%
%ADD16R,1.000000X2.000000*%
%TD*%
%TA.AperFunction,ComponentPad*%
%ADD17C,2.000000*%
%TD*%
%TA.AperFunction,ComponentPad*%
%ADD18C,6.400000*%
%TD*%
%TA.AperFunction,ComponentPad*%
%ADD19R,2.600000X2.600000*%
%TD*%
%TA.AperFunction,ComponentPad*%
%ADD20C,2.600000*%
%TD*%
%TA.AperFunction,SMDPad,CuDef*%
%ADD21RoundRect,0.150000X-0.825000X-0.150000X0.825000X-0.150000X0.825000X0.150000X-0.825000X0.150000X0*%
%TD*%
%TA.AperFunction,SMDPad,CuDef*%
%ADD22RoundRect,0.250000X-0.337500X-0.475000X0.337500X-0.475000X0.337500X0.475000X-0.337500X0.475000X0*%
%TD*%
%TA.AperFunction,ViaPad*%
%ADD23C,0.762000*%
%TD*%
%TA.AperFunction,Conductor*%
%ADD24C,0.203200*%
%TD*%
G04 APERTURE END LIST*
D10*
%TO.P,TP2,1,1*%
%TO.N,Net-(RV1-Pad2)*%
X132588000Y-99715977D03*
%TD*%
D11*
%TO.P,R2,1*%
%TO.N,+3.3V*%
X116872000Y-71120000D03*
%TO.P,R2,2*%
%TO.N,/~{MCLR}*%
X118872000Y-71120000D03*
%TD*%
D12*
%TO.P,RV1,*%
%TO.N,*%
X137840000Y-92390000D03*
X146640000Y-92390000D03*
D13*
%TO.P,RV1,1,1*%
%TO.N,+3.3V*%
X139740000Y-85390000D03*
%TO.P,RV1,2,2*%
%TO.N,Net-(RV1-Pad2)*%
X142240000Y-85390000D03*
%TO.P,RV1,3,3*%
%TO.N,GND*%
X144740000Y-85390000D03*
%TD*%
D14*
%TO.P,R3,1*%
%TO.N,/ICSPCLK*%
X127508000Y-86555500D03*
%TO.P,R3,2*%
%TO.N,Net-(D1-Pad2)*%
X127508000Y-88555500D03*
%TD*%
D11*
%TO.P,R1,1*%
%TO.N,Net-(R1-Pad1)*%
X130048000Y-71120000D03*
%TO.P,R1,2*%
%TO.N,Net-(BZ1-Pad1)*%
X132048000Y-71120000D03*
%TD*%
D15*
%TO.P,D2,1,K*%
%TO.N,GND*%
X120904000Y-96991500D03*
%TO.P,D2,2,A*%
%TO.N,Net-(D2-Pad2)*%
X120904000Y-94016500D03*
%TD*%
D16*
%TO.P,J2,1,Pin_1*%
%TO.N,/~{MCLR}*%
X118364000Y-62992000D03*
%TO.P,J2,2,Pin_2*%
%TO.N,+3.3V*%
X120904000Y-62992000D03*
%TO.P,J2,3,Pin_3*%
%TO.N,GND*%
X123444000Y-62992000D03*
%TO.P,J2,4,Pin_4*%
%TO.N,/ICSPDAT*%
X125984000Y-62992000D03*
%TO.P,J2,5,Pin_5*%
%TO.N,/ICSPCLK*%
X128524000Y-62992000D03*
%TD*%
D17*
%TO.P,SW1,1,1*%
%TO.N,GND*%
X111454000Y-93182000D03*
X104954000Y-93182000D03*
%TO.P,SW1,2,2*%
%TO.N,Net-(SW1-Pad2)*%
X104954000Y-88682000D03*
X111454000Y-88682000D03*
%TD*%
D14*
%TO.P,R4,1*%
%TO.N,/ICSPDAT*%
X120904000Y-86519000D03*
%TO.P,R4,2*%
%TO.N,Net-(D2-Pad2)*%
X120904000Y-88519000D03*
%TD*%
D10*
%TO.P,TP1,1,1*%
%TO.N,GND*%
X115316000Y-99715977D03*
%TD*%
D18*
%TO.P,REF\u002A\u002A,1*%
%TO.N,N/C*%
X144272000Y-76855977D03*
%TD*%
D19*
%TO.P,J1,1,Pin_1*%
%TO.N,GND*%
X108188000Y-62671977D03*
D20*
%TO.P,J1,2,Pin_2*%
%TO.N,+3.3V*%
X108188000Y-67671977D03*
%TD*%
D10*
%TO.P,BZ1,1,-*%
%TO.N,Net-(BZ1-Pad1)*%
X141732000Y-64516000D03*
D17*
%TO.P,BZ1,2,+*%
%TO.N,GND*%
X141732000Y-59516000D03*
%TD*%
D15*
%TO.P,D1,1,K*%
%TO.N,GND*%
X127508000Y-97028000D03*
%TO.P,D1,2,A*%
%TO.N,Net-(D1-Pad2)*%
X127508000Y-94053000D03*
%TD*%
D21*
%TO.P,U1,1,VDD*%
%TO.N,+3.3V*%
X121477000Y-77851000D03*
%TO.P,U1,2,RA5*%
%TO.N,Net-(RV1-Pad2)*%
X121477000Y-79121000D03*
%TO.P,U1,3,RA4*%
%TO.N,Net-(SW1-Pad2)*%
X121477000Y-80391000D03*
%TO.P,U1,4,RA3/~{MCLR}*%
%TO.N,/~{MCLR}*%
X121477000Y-81661000D03*
%TO.P,U1,5,RA2*%
%TO.N,Net-(R1-Pad1)*%
X126427000Y-81661000D03*
%TO.P,U1,6,RA1/ICSPCLK*%
%TO.N,/ICSPCLK*%
X126427000Y-80391000D03*
%TO.P,U1,7,RA0/ICSPDAT*%
%TO.N,/ICSPDAT*%
X126427000Y-79121000D03*
%TO.P,U1,8,VSS*%
%TO.N,GND*%
X126427000Y-77851000D03*
%TD*%
D22*
%TO.P,C1,1*%
%TO.N,+3.3V*%
X123422500Y-71120000D03*
%TO.P,C1,2*%
%TO.N,GND*%
X125497500Y-71120000D03*
%TD*%
D23*
%TO.N,+3.3V*%
X116840000Y-74168000D03*
X121412000Y-74168000D03*
%TD*%
D24*
%TO.N,Net-(BZ1-Pad1)*%
X138652000Y-64516000D02*
X141732000Y-64516000D01*
X132048000Y-71120000D02*
X138652000Y-64516000D01*
%TO.N,+3.3V*%
X116840000Y-71152000D02*
X116872000Y-71120000D01*
X123422500Y-71120000D02*
X121412000Y-73130500D01*
X121412000Y-77786000D02*
X121477000Y-77851000D01*
X121412000Y-73130500D02*
X121412000Y-74168000D01*
X120904000Y-68601500D02*
X123422500Y-71120000D01*
X116840000Y-74168000D02*
X116840000Y-71152000D01*
X121412000Y-74168000D02*
X121412000Y-77786000D01*
X120904000Y-62992000D02*
X120904000Y-68601500D01*
%TO.N,Net-(D1-Pad2)*%
X127508000Y-94053000D02*
X127508000Y-88555500D01*
%TO.N,Net-(D2-Pad2)*%
X120904000Y-94016500D02*
X120904000Y-88519000D01*
%TO.N,/ICSPCLK*%
X127381000Y-80391000D02*
X126427000Y-80391000D01*
X126687500Y-86555500D02*
X127508000Y-86555500D01*
X124968000Y-81501816D02*
X124968000Y-84836000D01*
X126078816Y-80391000D02*
X124968000Y-81501816D01*
X124968000Y-84836000D02*
X126687500Y-86555500D01*
X128524000Y-79248000D02*
X127381000Y-80391000D01*
X126427000Y-80391000D02*
X126078816Y-80391000D01*
X128524000Y-62992000D02*
X128524000Y-79248000D01*
%TO.N,/ICSPDAT*%
X126775184Y-79121000D02*
X126427000Y-79121000D01*
X124460000Y-80264000D02*
X124460000Y-84836000D01*
X126427000Y-79121000D02*
X125603000Y-79121000D01*
X122777000Y-86519000D02*
X120904000Y-86519000D01*
X124460000Y-84836000D02*
X122777000Y-86519000D01*
X125603000Y-79121000D02*
X124460000Y-80264000D01*
X125984000Y-62992000D02*
X127706800Y-64714800D01*
X127706800Y-64714800D02*
X127706800Y-78189384D01*
X127706800Y-78189384D02*
X126775184Y-79121000D01*
%TO.N,/~{MCLR}*%
X119888000Y-80420184D02*
X121128816Y-81661000D01*
X119888000Y-70104000D02*
X119888000Y-80420184D01*
X119888000Y-69596000D02*
X119888000Y-70104000D01*
X118872000Y-71120000D02*
X119888000Y-70104000D01*
X121128816Y-81661000D02*
X121477000Y-81661000D01*
X118364000Y-62992000D02*
X119888000Y-64516000D01*
X119888000Y-64516000D02*
X119888000Y-69596000D01*
%TO.N,Net-(R1-Pad1)*%
X126775184Y-81661000D02*
X130048000Y-78388184D01*
X130048000Y-78388184D02*
X130048000Y-71120000D01*
X126427000Y-81661000D02*
X126775184Y-81661000D01*
%TO.N,Net-(RV1-Pad2)*%
X121825184Y-79121000D02*
X123163200Y-80459016D01*
X123163200Y-82675194D02*
X119899200Y-85939194D01*
X119899200Y-87289206D02*
X120224194Y-87614200D01*
X132588000Y-89408000D02*
X138222000Y-89408000D01*
X121477000Y-79121000D02*
X121825184Y-79121000D01*
X138222000Y-89408000D02*
X142240000Y-85390000D01*
X119899200Y-85939194D02*
X119899200Y-87289206D01*
X132588000Y-89408000D02*
X132588000Y-99715977D01*
X123163200Y-80459016D02*
X123163200Y-82675194D01*
X120224194Y-87614200D02*
X130794200Y-87614200D01*
X130794200Y-87614200D02*
X132588000Y-89408000D01*
%TO.N,Net-(SW1-Pad2)*%
X116824000Y-83312000D02*
X111454000Y-88682000D01*
X121920000Y-83312000D02*
X116824000Y-83312000D01*
X104954000Y-88682000D02*
X108274023Y-88682000D01*
X108274023Y-88682000D02*
X111454000Y-88682000D01*
X121825184Y-80391000D02*
X122756800Y-81322616D01*
X122756800Y-82475200D02*
X121920000Y-83312000D01*
X121477000Y-80391000D02*
X121825184Y-80391000D01*
X122756800Y-81322616D02*
X122756800Y-82475200D01*
%TD*%
%TA.AperFunction,Conductor*%
%TO.N,GND*%
G36*
X141194020Y-52398205D02*
G01*
X141208125Y-52400401D01*
X141208328Y-52400433D01*
X141217724Y-52401896D01*
X141226626Y-52400732D01*
X141226628Y-52400732D01*
X141234424Y-52399712D01*
X141240837Y-52398874D01*
X141261129Y-52397872D01*
X141826065Y-52415626D01*
X141833965Y-52416123D01*
X142175432Y-52448401D01*
X142429719Y-52472438D01*
X142437554Y-52473428D01*
X143028604Y-52567041D01*
X143036372Y-52568524D01*
X143620372Y-52699064D01*
X143628039Y-52701032D01*
X143903338Y-52781013D01*
X144202687Y-52867982D01*
X144210190Y-52870420D01*
X144773243Y-53073131D01*
X144780571Y-53076033D01*
X145329787Y-53313700D01*
X145336919Y-53317056D01*
X145670713Y-53487132D01*
X145870128Y-53588739D01*
X145877064Y-53592553D01*
X146392113Y-53897153D01*
X146398796Y-53901394D01*
X146893732Y-54237752D01*
X146900136Y-54242405D01*
X147372972Y-54609175D01*
X147379071Y-54614220D01*
X147827932Y-55009943D01*
X147833703Y-55015362D01*
X148256842Y-55438502D01*
X148262260Y-55444272D01*
X148657983Y-55893133D01*
X148663028Y-55899232D01*
X149029803Y-56372075D01*
X149034456Y-56378479D01*
X149370796Y-56873389D01*
X149375038Y-56880072D01*
X149679656Y-57395153D01*
X149683469Y-57402089D01*
X149955146Y-57935285D01*
X149958509Y-57942433D01*
X150196161Y-58491618D01*
X150199075Y-58498977D01*
X150254122Y-58651876D01*
X150395292Y-59043988D01*
X150401777Y-59062002D01*
X150404223Y-59069530D01*
X150571170Y-59644166D01*
X150573139Y-59651833D01*
X150703678Y-60235832D01*
X150705160Y-60243600D01*
X150785155Y-60748670D01*
X150798772Y-60834643D01*
X150799764Y-60842497D01*
X150856077Y-61438240D01*
X150856574Y-61446139D01*
X150874091Y-62003531D01*
X150872653Y-62026874D01*
X150871690Y-62033056D01*
X150871690Y-62033060D01*
X150870309Y-62041929D01*
X150871473Y-62050831D01*
X150871473Y-62050833D01*
X150874436Y-62073488D01*
X150875500Y-62089826D01*
X150875500Y-95822616D01*
X150855498Y-95890737D01*
X150838890Y-95911416D01*
X144721401Y-102069541D01*
X144659202Y-102103772D01*
X144632014Y-102106741D01*
X129557403Y-102107079D01*
X110865563Y-102107499D01*
X110846185Y-102106000D01*
X110832080Y-102103804D01*
X110831351Y-102103690D01*
X110822481Y-102102309D01*
X110813579Y-102103473D01*
X110813577Y-102103473D01*
X110805781Y-102104493D01*
X110799368Y-102105331D01*
X110779076Y-102106333D01*
X110214139Y-102088579D01*
X110206240Y-102088082D01*
X109610497Y-102031769D01*
X109602643Y-102030777D01*
X109532745Y-102019706D01*
X109011599Y-101937165D01*
X109003831Y-101935682D01*
X108419831Y-101805142D01*
X108412164Y-101803174D01*
X108136865Y-101723193D01*
X107837516Y-101636224D01*
X107830013Y-101633786D01*
X107548488Y-101532431D01*
X107266975Y-101431080D01*
X107259616Y-101428166D01*
X106710431Y-101190514D01*
X106703283Y-101187151D01*
X106170086Y-100915473D01*
X106163150Y-100911660D01*
X105907799Y-100760646D01*
X113808001Y-100760646D01*
X113808371Y-100767467D01*
X113813895Y-100818329D01*
X113817521Y-100833581D01*
X113862676Y-100954031D01*
X113871214Y-100969626D01*
X113947715Y-101071701D01*
X113960276Y-101084262D01*
X114062351Y-101160763D01*
X114077946Y-101169301D01*
X114198394Y-101214455D01*
X114213649Y-101218082D01*
X114264514Y-101223608D01*
X114271328Y-101223977D01*
X115043885Y-101223977D01*
X115059124Y-101219502D01*
X115060329Y-101218112D01*
X115062000Y-101210429D01*
X115062000Y-101205861D01*
X115570000Y-101205861D01*
X115574475Y-101221100D01*
X115575865Y-101222305D01*
X115583548Y-101223976D01*
X116360669Y-101223976D01*
X116367490Y-101223606D01*
X116418352Y-101218082D01*
X116433604Y-101214456D01*
X116554054Y-101169301D01*
X116569649Y-101160763D01*
X116671724Y-101084262D01*
X116684285Y-101071701D01*
X116760786Y-100969626D01*
X116769324Y-100954031D01*
X116814478Y-100833583D01*
X116818105Y-100818328D01*
X116823631Y-100767463D01*
X116824000Y-100760649D01*
X116824000Y-99988092D01*
X116819525Y-99972853D01*
X116818135Y-99971648D01*
X116810452Y-99969977D01*
X115588115Y-99969977D01*
X115572876Y-99974452D01*
X115571671Y-99975842D01*
X115570000Y-99983525D01*
X115570000Y-101205861D01*
X115062000Y-101205861D01*
X115062000Y-99988092D01*
X115057525Y-99972853D01*
X115056135Y-99971648D01*
X115048452Y-99969977D01*
X113826116Y-99969977D01*
X113810877Y-99974452D01*
X113809672Y-99975842D01*
X113808001Y-99983525D01*
X113808001Y-100760646D01*
X105907799Y-100760646D01*
X105648076Y-100607047D01*
X105641392Y-100602805D01*
X105146468Y-100266455D01*
X105140065Y-100261803D01*
X105085235Y-100219272D01*
X104667228Y-99895033D01*
X104661129Y-99889987D01*
X104212260Y-99494256D01*
X104206490Y-99488837D01*
X104161515Y-99443862D01*
X113808000Y-99443862D01*
X113812475Y-99459101D01*
X113813865Y-99460306D01*
X113821548Y-99461977D01*
X115043885Y-99461977D01*
X115059124Y-99457502D01*
X115060329Y-99456112D01*
X115062000Y-99448429D01*
X115062000Y-99443862D01*
X115570000Y-99443862D01*
X115574475Y-99459101D01*
X115575865Y-99460306D01*
X115583548Y-99461977D01*
X116805884Y-99461977D01*
X116821123Y-99457502D01*
X116822328Y-99456112D01*
X116823999Y-99448429D01*
X116823999Y-98671308D01*
X116823629Y-98664487D01*
X116818105Y-98613625D01*
X116814479Y-98598373D01*
X116769324Y-98477923D01*
X116760786Y-98462328D01*
X116684285Y-98360253D01*
X116671724Y-98347692D01*
X116569649Y-98271191D01*
X116554054Y-98262653D01*
X116433606Y-98217499D01*
X116418351Y-98213872D01*
X116367486Y-98208346D01*
X116360672Y-98207977D01*
X115588115Y-98207977D01*
X115572876Y-98212452D01*
X115571671Y-98213842D01*
X115570000Y-98221525D01*
X115570000Y-99443862D01*
X115062000Y-99443862D01*
X115062000Y-98226093D01*
X115057525Y-98210854D01*
X115056135Y-98209649D01*
X115048452Y-98207978D01*
X114271331Y-98207978D01*
X114264510Y-98208348D01*
X114213648Y-98213872D01*
X114198396Y-98217498D01*
X114077946Y-98262653D01*
X114062351Y-98271191D01*
X113960276Y-98347692D01*
X113947715Y-98360253D01*
X113871214Y-98462328D01*
X113862676Y-98477923D01*
X113817522Y-98598371D01*
X113813895Y-98613626D01*
X113808369Y-98664491D01*
X113808000Y-98671305D01*
X113808000Y-99443862D01*
X104161515Y-99443862D01*
X103783366Y-99065713D01*
X103777947Y-99059943D01*
X103435319Y-98671308D01*
X103382203Y-98611059D01*
X103377181Y-98604990D01*
X103010395Y-98132132D01*
X103005748Y-98125736D01*
X102958313Y-98055937D01*
X102669387Y-97630796D01*
X102665165Y-97624144D01*
X102592395Y-97501096D01*
X119521000Y-97501096D01*
X119521337Y-97507611D01*
X119531256Y-97603203D01*
X119534150Y-97616602D01*
X119585588Y-97770783D01*
X119591762Y-97783962D01*
X119677063Y-97921807D01*
X119686099Y-97933208D01*
X119800830Y-98047739D01*
X119812241Y-98056751D01*
X119950245Y-98141818D01*
X119963423Y-98147962D01*
X120117716Y-98199139D01*
X120131081Y-98202005D01*
X120225439Y-98211672D01*
X120231855Y-98212000D01*
X120631885Y-98212000D01*
X120647124Y-98207525D01*
X120648329Y-98206135D01*
X120650000Y-98198452D01*
X120650000Y-98193885D01*
X121158000Y-98193885D01*
X121162475Y-98209124D01*
X121163865Y-98210329D01*
X121171548Y-98212000D01*
X121576096Y-98212000D01*
X121582611Y-98211663D01*
X121678203Y-98201744D01*
X121691602Y-98198850D01*
X121845783Y-98147412D01*
X121858962Y-98141238D01*
X121996807Y-98055937D01*
X122008208Y-98046901D01*
X122122739Y-97932170D01*
X122131751Y-97920759D01*
X122216818Y-97782755D01*
X122222962Y-97769577D01*
X122274139Y-97615284D01*
X122277005Y-97601919D01*
X122283595Y-97537596D01*
X126125000Y-97537596D01*
X126125337Y-97544111D01*
X126135256Y-97639703D01*
X126138150Y-97653102D01*
X126189588Y-97807283D01*
X126195762Y-97820462D01*
X126281063Y-97958307D01*
X126290099Y-97969708D01*
X126404830Y-98084239D01*
X126416241Y-98093251D01*
X126554245Y-98178318D01*
X126567423Y-98184462D01*
X126721716Y-98235639D01*
X126735081Y-98238505D01*
X126829439Y-98248172D01*
X126835855Y-98248500D01*
X127235885Y-98248500D01*
X127251124Y-98244025D01*
X127252329Y-98242635D01*
X127254000Y-98234952D01*
X127254000Y-98230385D01*
X127762000Y-98230385D01*
X127766475Y-98245624D01*
X127767865Y-98246829D01*
X127775548Y-98248500D01*
X128180096Y-98248500D01*
X128186611Y-98248163D01*
X128282203Y-98238244D01*
X128295602Y-98235350D01*
X128449783Y-98183912D01*
X128462962Y-98177738D01*
X128600807Y-98092437D01*
X128612208Y-98083401D01*
X128726739Y-97968670D01*
X128735751Y-97957259D01*
X128820818Y-97819255D01*
X128826962Y-97806077D01*
X128878139Y-97651784D01*
X128881005Y-97638419D01*
X128890672Y-97544061D01*
X128891000Y-97537645D01*
X128891000Y-97300115D01*
X128886525Y-97284876D01*
X128885135Y-97283671D01*
X128877452Y-97282000D01*
X127780115Y-97282000D01*
X127764876Y-97286475D01*
X127763671Y-97287865D01*
X127762000Y-97295548D01*
X127762000Y-98230385D01*
X127254000Y-98230385D01*
X127254000Y-97300115D01*
X127249525Y-97284876D01*
X127248135Y-97283671D01*
X127240452Y-97282000D01*
X126143115Y-97282000D01*
X126127876Y-97286475D01*
X126126671Y-97287865D01*
X126125000Y-97295548D01*
X126125000Y-97537596D01*
X122283595Y-97537596D01*
X122286672Y-97507561D01*
X122287000Y-97501145D01*
X122287000Y-97263615D01*
X122282525Y-97248376D01*
X122281135Y-97247171D01*
X122273452Y-97245500D01*
X121176115Y-97245500D01*
X121160876Y-97249975D01*
X121159671Y-97251365D01*
X121158000Y-97259048D01*
X121158000Y-98193885D01*
X120650000Y-98193885D01*
X120650000Y-97263615D01*
X120645525Y-97248376D01*
X120644135Y-97247171D01*
X120636452Y-97245500D01*
X119539115Y-97245500D01*
X119523876Y-97249975D01*
X119522671Y-97251365D01*
X119521000Y-97259048D01*
X119521000Y-97501096D01*
X102592395Y-97501096D01*
X102360542Y-97109054D01*
X102356729Y-97102118D01*
X102189544Y-96774000D01*
X102180314Y-96755885D01*
X126125000Y-96755885D01*
X126129475Y-96771124D01*
X126130865Y-96772329D01*
X126138548Y-96774000D01*
X127235885Y-96774000D01*
X127251124Y-96769525D01*
X127252329Y-96768135D01*
X127254000Y-96760452D01*
X127254000Y-96755885D01*
X127762000Y-96755885D01*
X127766475Y-96771124D01*
X127767865Y-96772329D01*
X127775548Y-96774000D01*
X128872885Y-96774000D01*
X128888124Y-96769525D01*
X128889329Y-96768135D01*
X128891000Y-96760452D01*
X128891000Y-96518404D01*
X128890663Y-96511889D01*
X128880744Y-96416297D01*
X128877850Y-96402898D01*
X128826412Y-96248717D01*
X128820238Y-96235538D01*
X128734937Y-96097693D01*
X128725901Y-96086292D01*
X128611170Y-95971761D01*
X128599759Y-95962749D01*
X128461755Y-95877682D01*
X128448577Y-95871538D01*
X128294284Y-95820361D01*
X128280919Y-95817495D01*
X128186561Y-95807828D01*
X128180144Y-95807500D01*
X127780115Y-95807500D01*
X127764876Y-95811975D01*
X127763671Y-95813365D01*
X127762000Y-95821048D01*
X127762000Y-96755885D01*
X127254000Y-96755885D01*
X127254000Y-95825615D01*
X127249525Y-95810376D01*
X127248135Y-95809171D01*
X127240452Y-95807500D01*
X126835904Y-95807500D01*
X126829389Y-95807837D01*
X126733797Y-95817756D01*
X126720398Y-95820650D01*
X126566217Y-95872088D01*
X126553038Y-95878262D01*
X126415193Y-95963563D01*
X126403792Y-95972599D01*
X126289261Y-96087330D01*
X126280249Y-96098741D01*
X126195182Y-96236745D01*
X126189038Y-96249923D01*
X126137861Y-96404216D01*
X126134995Y-96417581D01*
X126125328Y-96511939D01*
X126125000Y-96518356D01*
X126125000Y-96755885D01*
X102180314Y-96755885D01*
X102161716Y-96719385D01*
X119521000Y-96719385D01*
X119525475Y-96734624D01*
X119526865Y-96735829D01*
X119534548Y-96737500D01*
X120631885Y-96737500D01*
X120647124Y-96733025D01*
X120648329Y-96731635D01*
X120650000Y-96723952D01*
X120650000Y-96719385D01*
X121158000Y-96719385D01*
X121162475Y-96734624D01*
X121163865Y-96735829D01*
X121171548Y-96737500D01*
X122268885Y-96737500D01*
X122284124Y-96733025D01*
X122285329Y-96731635D01*
X122287000Y-96723952D01*
X122287000Y-96481904D01*
X122286663Y-96475389D01*
X122276744Y-96379797D01*
X122273850Y-96366398D01*
X122222412Y-96212217D01*
X122216238Y-96199038D01*
X122130937Y-96061193D01*
X122121901Y-96049792D01*
X122007170Y-95935261D01*
X121995759Y-95926249D01*
X121857755Y-95841182D01*
X121844577Y-95835038D01*
X121690284Y-95783861D01*
X121676919Y-95780995D01*
X121582561Y-95771328D01*
X121576144Y-95771000D01*
X121176115Y-95771000D01*
X121160876Y-95775475D01*
X121159671Y-95776865D01*
X121158000Y-95784548D01*
X121158000Y-96719385D01*
X120650000Y-96719385D01*
X120650000Y-95789115D01*
X120645525Y-95773876D01*
X120644135Y-95772671D01*
X120636452Y-95771000D01*
X120231904Y-95771000D01*
X120225389Y-95771337D01*
X120129797Y-95781256D01*
X120116398Y-95784150D01*
X119962217Y-95835588D01*
X119949038Y-95841762D01*
X119811193Y-95927063D01*
X119799792Y-95936099D01*
X119685261Y-96050830D01*
X119676249Y-96062241D01*
X119591182Y-96200245D01*
X119585038Y-96213423D01*
X119533861Y-96367716D01*
X119530995Y-96381081D01*
X119521328Y-96475439D01*
X119521000Y-96481856D01*
X119521000Y-96719385D01*
X102161716Y-96719385D01*
X102085051Y-96568921D01*
X102081695Y-96561789D01*
X101844029Y-96012574D01*
X101841127Y-96005244D01*
X101638415Y-95442191D01*
X101635973Y-95434676D01*
X101589198Y-95273672D01*
X101504930Y-94983620D01*
X101469027Y-94860040D01*
X101467059Y-94852373D01*
X101369220Y-94414670D01*
X104086160Y-94414670D01*
X104091887Y-94422320D01*
X104263042Y-94527205D01*
X104271837Y-94531687D01*
X104481988Y-94618734D01*
X104491373Y-94621783D01*
X104712554Y-94674885D01*
X104722301Y-94676428D01*
X104949070Y-94694275D01*
X104958930Y-94694275D01*
X105185699Y-94676428D01*
X105195446Y-94674885D01*
X105416627Y-94621783D01*
X105426012Y-94618734D01*
X105636163Y-94531687D01*
X105644958Y-94527205D01*
X105812445Y-94424568D01*
X105821400Y-94414670D01*
X110586160Y-94414670D01*
X110591887Y-94422320D01*
X110763042Y-94527205D01*
X110771837Y-94531687D01*
X110981988Y-94618734D01*
X110991373Y-94621783D01*
X111212554Y-94674885D01*
X111222301Y-94676428D01*
X111449070Y-94694275D01*
X111458930Y-94694275D01*
X111685699Y-94676428D01*
X111695446Y-94674885D01*
X111916627Y-94621783D01*
X111926012Y-94618734D01*
X112136163Y-94531687D01*
X112144958Y-94527205D01*
X112312445Y-94424568D01*
X112321907Y-94414110D01*
X112318124Y-94405334D01*
X111466812Y-93554022D01*
X111452868Y-93546408D01*
X111451035Y-93546539D01*
X111444420Y-93550790D01*
X110592920Y-94402290D01*
X110586160Y-94414670D01*
X105821400Y-94414670D01*
X105821907Y-94414110D01*
X105818124Y-94405334D01*
X104966812Y-93554022D01*
X104952868Y-93546408D01*
X104951035Y-93546539D01*
X104944420Y-93550790D01*
X104092920Y-94402290D01*
X104086160Y-94414670D01*
X101369220Y-94414670D01*
X101336519Y-94268373D01*
X101335035Y-94260598D01*
X101311275Y-94110582D01*
X101241423Y-93669555D01*
X101240432Y-93661711D01*
X101239705Y-93654012D01*
X101199040Y-93223824D01*
X101195553Y-93186930D01*
X103441725Y-93186930D01*
X103459572Y-93413699D01*
X103461115Y-93423446D01*
X103514217Y-93644627D01*
X103517266Y-93654012D01*
X103604313Y-93864163D01*
X103608795Y-93872958D01*
X103711432Y-94040445D01*
X103721890Y-94049907D01*
X103730666Y-94046124D01*
X104581978Y-93194812D01*
X104588356Y-93183132D01*
X105318408Y-93183132D01*
X105318539Y-93184965D01*
X105322790Y-93191580D01*
X106174290Y-94043080D01*
X106186670Y-94049840D01*
X106194320Y-94044113D01*
X106299205Y-93872958D01*
X106303687Y-93864163D01*
X106390734Y-93654012D01*
X106393783Y-93644627D01*
X106446885Y-93423446D01*
X106448428Y-93413699D01*
X106466275Y-93186930D01*
X109941725Y-93186930D01*
X109959572Y-93413699D01*
X109961115Y-93423446D01*
X110014217Y-93644627D01*
X110017266Y-93654012D01*
X110104313Y-93864163D01*
X110108795Y-93872958D01*
X110211432Y-94040445D01*
X110221890Y-94049907D01*
X110230666Y-94046124D01*
X111081978Y-93194812D01*
X111088356Y-93183132D01*
X111818408Y-93183132D01*
X111818539Y-93184965D01*
X111822790Y-93191580D01*
X112674290Y-94043080D01*
X112686670Y-94049840D01*
X112694320Y-94044113D01*
X112799205Y-93872958D01*
X112803687Y-93864163D01*
X112890734Y-93654012D01*
X112893783Y-93644627D01*
X112946885Y-93423446D01*
X112948428Y-93413699D01*
X112966275Y-93186930D01*
X112966275Y-93177070D01*
X112948428Y-92950301D01*
X112946885Y-92940554D01*
X112893783Y-92719373D01*
X112890734Y-92709988D01*
X112803687Y-92499837D01*
X112799205Y-92491042D01*
X112696568Y-92323555D01*
X112686110Y-92314093D01*
X112677334Y-92317876D01*
X111826022Y-93169188D01*
X111818408Y-93183132D01*
X111088356Y-93183132D01*
X111089592Y-93180868D01*
X111089461Y-93179035D01*
X111085210Y-93172420D01*
X110233710Y-92320920D01*
X110221330Y-92314160D01*
X110213680Y-92319887D01*
X110108795Y-92491042D01*
X110104313Y-92499837D01*
X110017266Y-92709988D01*
X110014217Y-92719373D01*
X109961115Y-92940554D01*
X109959572Y-92950301D01*
X109941725Y-93177070D01*
X109941725Y-93186930D01*
X106466275Y-93186930D01*
X106466275Y-93177070D01*
X106448428Y-92950301D01*
X106446885Y-92940554D01*
X106393783Y-92719373D01*
X106390734Y-92709988D01*
X106303687Y-92499837D01*
X106299205Y-92491042D01*
X106196568Y-92323555D01*
X106186110Y-92314093D01*
X106177334Y-92317876D01*
X105326022Y-93169188D01*
X105318408Y-93183132D01*
X104588356Y-93183132D01*
X104589592Y-93180868D01*
X104589461Y-93179035D01*
X104585210Y-93172420D01*
X103733710Y-92320920D01*
X103721330Y-92314160D01*
X103713680Y-92319887D01*
X103608795Y-92491042D01*
X103604313Y-92499837D01*
X103517266Y-92709988D01*
X103514217Y-92719373D01*
X103461115Y-92940554D01*
X103459572Y-92950301D01*
X103441725Y-93177070D01*
X103441725Y-93186930D01*
X101195553Y-93186930D01*
X101184118Y-93065965D01*
X101183621Y-93058065D01*
X101166106Y-92500725D01*
X101167544Y-92477384D01*
X101168515Y-92471150D01*
X101168515Y-92471145D01*
X101169896Y-92462276D01*
X101165769Y-92430714D01*
X101164705Y-92414379D01*
X101164705Y-91949890D01*
X104086093Y-91949890D01*
X104089876Y-91958666D01*
X104941188Y-92809978D01*
X104955132Y-92817592D01*
X104956965Y-92817461D01*
X104963580Y-92813210D01*
X105815080Y-91961710D01*
X105821534Y-91949890D01*
X110586093Y-91949890D01*
X110589876Y-91958666D01*
X111441188Y-92809978D01*
X111455132Y-92817592D01*
X111456965Y-92817461D01*
X111463580Y-92813210D01*
X112315080Y-91961710D01*
X112321840Y-91949330D01*
X112316113Y-91941680D01*
X112144958Y-91836795D01*
X112136163Y-91832313D01*
X111926012Y-91745266D01*
X111916627Y-91742217D01*
X111695446Y-91689115D01*
X111685699Y-91687572D01*
X111458930Y-91669725D01*
X111449070Y-91669725D01*
X111222301Y-91687572D01*
X111212554Y-91689115D01*
X110991373Y-91742217D01*
X110981988Y-91745266D01*
X110771837Y-91832313D01*
X110763042Y-91836795D01*
X110595555Y-91939432D01*
X110586093Y-91949890D01*
X105821534Y-91949890D01*
X105821840Y-91949330D01*
X105816113Y-91941680D01*
X105644958Y-91836795D01*
X105636163Y-91832313D01*
X105426012Y-91745266D01*
X105416627Y-91742217D01*
X105195446Y-91689115D01*
X105185699Y-91687572D01*
X104958930Y-91669725D01*
X104949070Y-91669725D01*
X104722301Y-91687572D01*
X104712554Y-91689115D01*
X104491373Y-91742217D01*
X104481988Y-91745266D01*
X104271837Y-91832313D01*
X104263042Y-91836795D01*
X104095555Y-91939432D01*
X104086093Y-91949890D01*
X101164705Y-91949890D01*
X101164705Y-88682000D01*
X103440835Y-88682000D01*
X103459465Y-88918711D01*
X103460619Y-88923518D01*
X103460620Y-88923524D01*
X103486276Y-89030389D01*
X103514895Y-89149594D01*
X103516788Y-89154165D01*
X103516789Y-89154167D01*
X103597293Y-89348521D01*
X103605760Y-89368963D01*
X103608346Y-89373183D01*
X103727241Y-89567202D01*
X103727245Y-89567208D01*
X103729824Y-89571416D01*
X103884031Y-89751969D01*
X104064584Y-89906176D01*
X104068792Y-89908755D01*
X104068798Y-89908759D01*
X104215366Y-89998576D01*
X104267037Y-90030240D01*
X104271607Y-90032133D01*
X104271611Y-90032135D01*
X104469972Y-90114298D01*
X104486406Y-90121105D01*
X104566609Y-90140360D01*
X104712476Y-90175380D01*
X104712482Y-90175381D01*
X104717289Y-90176535D01*
X104954000Y-90195165D01*
X105190711Y-90176535D01*
X105195518Y-90175381D01*
X105195524Y-90175380D01*
X105341391Y-90140360D01*
X105421594Y-90121105D01*
X105438028Y-90114298D01*
X105636389Y-90032135D01*
X105636393Y-90032133D01*
X105640963Y-90030240D01*
X105692634Y-89998576D01*
X105839202Y-89908759D01*
X105839208Y-89908755D01*
X105843416Y-89906176D01*
X106023969Y-89751969D01*
X106178176Y-89571416D01*
X106180755Y-89567208D01*
X106180759Y-89567202D01*
X106299653Y-89373185D01*
X106299654Y-89373183D01*
X106302240Y-89368963D01*
X106304137Y-89364384D01*
X106305910Y-89360903D01*
X106354656Y-89309285D01*
X106418180Y-89292100D01*
X109989820Y-89292100D01*
X110057941Y-89312102D01*
X110102090Y-89360903D01*
X110103863Y-89364384D01*
X110105760Y-89368963D01*
X110108346Y-89373183D01*
X110108347Y-89373185D01*
X110227241Y-89567202D01*
X110227245Y-89567208D01*
X110229824Y-89571416D01*
X110384031Y-89751969D01*
X110564584Y-89906176D01*
X110568792Y-89908755D01*
X110568798Y-89908759D01*
X110715366Y-89998576D01*
X110767037Y-90030240D01*
X110771607Y-90032133D01*
X110771611Y-90032135D01*
X110969972Y-90114298D01*
X110986406Y-90121105D01*
X111066609Y-90140360D01*
X111212476Y-90175380D01*
X111212482Y-90175381D01*
X111217289Y-90176535D01*
X111454000Y-90195165D01*
X111690711Y-90176535D01*
X111695518Y-90175381D01*
X111695524Y-90175380D01*
X111841391Y-90140360D01*
X111921594Y-90121105D01*
X111938028Y-90114298D01*
X112136389Y-90032135D01*
X112136393Y-90032133D01*
X112140963Y-90030240D01*
X112192634Y-89998576D01*
X112339202Y-89908759D01*
X112339208Y-89908755D01*
X112343416Y-89906176D01*
X112523969Y-89751969D01*
X112678176Y-89571416D01*
X112680755Y-89567208D01*
X112680759Y-89567202D01*
X112799654Y-89373183D01*
X112802240Y-89368963D01*
X112810708Y-89348521D01*
X112891211Y-89154167D01*
X112891212Y-89154165D01*
X112893105Y-89149594D01*
X112921724Y-89030389D01*
X112947380Y-88923524D01*
X112947381Y-88923518D01*
X112948535Y-88918711D01*
X112967165Y-88682000D01*
X112948535Y-88445289D01*
X112925731Y-88350300D01*
X112894260Y-88219216D01*
X112894259Y-88219213D01*
X112893105Y-88214406D01*
X112891210Y-88209830D01*
X112890001Y-88206111D01*
X112887970Y-88135143D01*
X112920737Y-88078074D01*
X114971575Y-86027237D01*
X117039807Y-83959005D01*
X117102119Y-83924979D01*
X117128902Y-83922100D01*
X120749292Y-83922100D01*
X120817413Y-83942102D01*
X120863906Y-83995758D01*
X120874010Y-84066032D01*
X120844516Y-84130612D01*
X120838387Y-84137195D01*
X119521310Y-85454273D01*
X119513494Y-85461385D01*
X119507217Y-85465368D01*
X119501791Y-85471146D01*
X119462370Y-85513125D01*
X119459615Y-85515967D01*
X119440653Y-85534929D01*
X119438227Y-85538056D01*
X119437662Y-85538697D01*
X119430694Y-85546855D01*
X119401696Y-85577736D01*
X119392472Y-85594513D01*
X119381625Y-85611026D01*
X119374748Y-85619892D01*
X119374745Y-85619897D01*
X119369887Y-85626160D01*
X119353062Y-85665041D01*
X119347846Y-85675689D01*
X119327435Y-85712816D01*
X119322727Y-85731152D01*
X119322675Y-85731355D01*
X119316274Y-85750053D01*
X119308668Y-85767629D01*
X119307428Y-85775460D01*
X119302042Y-85809468D01*
X119299635Y-85821091D01*
X119289100Y-85862120D01*
X119289100Y-85881258D01*
X119287549Y-85900968D01*
X119284554Y-85919878D01*
X119285300Y-85927769D01*
X119288541Y-85962055D01*
X119289100Y-85973913D01*
X119289100Y-87213528D01*
X119288602Y-87224080D01*
X119286981Y-87231334D01*
X119287230Y-87239255D01*
X119289038Y-87296801D01*
X119289100Y-87300758D01*
X119289100Y-87327589D01*
X119289596Y-87331516D01*
X119289653Y-87332422D01*
X119290492Y-87343066D01*
X119291822Y-87385405D01*
X119294034Y-87393018D01*
X119297164Y-87403792D01*
X119301172Y-87423149D01*
X119303571Y-87442138D01*
X119306491Y-87449513D01*
X119319164Y-87481524D01*
X119323008Y-87492751D01*
X119332615Y-87525815D01*
X119334828Y-87533431D01*
X119344574Y-87549911D01*
X119353265Y-87567651D01*
X119360316Y-87585460D01*
X119384758Y-87619102D01*
X119385220Y-87619738D01*
X119391736Y-87629658D01*
X119413295Y-87666112D01*
X119426822Y-87679639D01*
X119439663Y-87694673D01*
X119450921Y-87710168D01*
X119457029Y-87715221D01*
X119483566Y-87737174D01*
X119492347Y-87745164D01*
X119668972Y-87921790D01*
X119702997Y-87984102D01*
X119705220Y-88023727D01*
X119700285Y-88071900D01*
X119695500Y-88118600D01*
X119695500Y-88919400D01*
X119706474Y-89025166D01*
X119708655Y-89031702D01*
X119708655Y-89031704D01*
X119746381Y-89144782D01*
X119762450Y-89192946D01*
X119855522Y-89343348D01*
X119980697Y-89468305D01*
X119986927Y-89472145D01*
X119986928Y-89472146D01*
X120039911Y-89504805D01*
X120131262Y-89561115D01*
X120149614Y-89567202D01*
X120207567Y-89586424D01*
X120265927Y-89626854D01*
X120293164Y-89692418D01*
X120293900Y-89706017D01*
X120293900Y-92675122D01*
X120273898Y-92743243D01*
X120220242Y-92789736D01*
X120180903Y-92800449D01*
X120129694Y-92805762D01*
X120129691Y-92805763D01*
X120122835Y-92806474D01*
X120116299Y-92808655D01*
X120116297Y-92808655D01*
X120006894Y-92845155D01*
X119955055Y-92862450D01*
X119804652Y-92955522D01*
X119679695Y-93080697D01*
X119675855Y-93086927D01*
X119675854Y-93086928D01*
X119620290Y-93177070D01*
X119586885Y-93231262D01*
X119531203Y-93399139D01*
X119530503Y-93405975D01*
X119530502Y-93405978D01*
X119526091Y-93449031D01*
X119520500Y-93503600D01*
X119520500Y-94529400D01*
X119520837Y-94532646D01*
X119520837Y-94532650D01*
X119530086Y-94621783D01*
X119531474Y-94635165D01*
X119533655Y-94641701D01*
X119533655Y-94641703D01*
X119551195Y-94694275D01*
X119587450Y-94802945D01*
X119680522Y-94953348D01*
X119805697Y-95078305D01*
X119811927Y-95082145D01*
X119811928Y-95082146D01*
X119949090Y-95166694D01*
X119956262Y-95171115D01*
X120036005Y-95197564D01*
X120117611Y-95224632D01*
X120117613Y-95224632D01*
X120124139Y-95226797D01*
X120130975Y-95227497D01*
X120130978Y-95227498D01*
X120174031Y-95231909D01*
X120228600Y-95237500D01*
X121579400Y-95237500D01*
X121582646Y-95237163D01*
X121582650Y-95237163D01*
X121678307Y-95227238D01*
X121678311Y-95227237D01*
X121685165Y-95226526D01*
X121691701Y-95224345D01*
X121691703Y-95224345D01*
X121823805Y-95180272D01*
X121852945Y-95170550D01*
X122003348Y-95077478D01*
X122128305Y-94952303D01*
X122221115Y-94801738D01*
X122256759Y-94694275D01*
X122274632Y-94640389D01*
X122274632Y-94640387D01*
X122276797Y-94633861D01*
X122287500Y-94529400D01*
X122287500Y-93503600D01*
X122281025Y-93441193D01*
X122277238Y-93404693D01*
X122277237Y-93404689D01*
X122276526Y-93397835D01*
X122250177Y-93318856D01*
X122222868Y-93237003D01*
X122220550Y-93230055D01*
X122127478Y-93079652D01*
X122002303Y-92954695D01*
X121918124Y-92902806D01*
X121857968Y-92865725D01*
X121857966Y-92865724D01*
X121851738Y-92861885D01*
X121695493Y-92810061D01*
X121690389Y-92808368D01*
X121690387Y-92808368D01*
X121683861Y-92806203D01*
X121677025Y-92805503D01*
X121677022Y-92805502D01*
X121627256Y-92800403D01*
X121561529Y-92773561D01*
X121520748Y-92715446D01*
X121514100Y-92675059D01*
X121514100Y-89706004D01*
X121534102Y-89637883D01*
X121587758Y-89591390D01*
X121600223Y-89586481D01*
X121671002Y-89562867D01*
X121671004Y-89562866D01*
X121677946Y-89560550D01*
X121828348Y-89467478D01*
X121953305Y-89342303D01*
X122019776Y-89234468D01*
X122042275Y-89197968D01*
X122042276Y-89197966D01*
X122046115Y-89191738D01*
X122089691Y-89060361D01*
X122099632Y-89030389D01*
X122099632Y-89030387D01*
X122101797Y-89023861D01*
X122112500Y-88919400D01*
X122112500Y-88350300D01*
X122132502Y-88282179D01*
X122186158Y-88235686D01*
X122238500Y-88224300D01*
X126173500Y-88224300D01*
X126241621Y-88244302D01*
X126288114Y-88297958D01*
X126299500Y-88350300D01*
X126299500Y-88955900D01*
X126299837Y-88959146D01*
X126299837Y-88959150D01*
X126307229Y-89030389D01*
X126310474Y-89061666D01*
X126366450Y-89229446D01*
X126459522Y-89379848D01*
X126584697Y-89504805D01*
X126590927Y-89508645D01*
X126590928Y-89508646D01*
X126698858Y-89575175D01*
X126735262Y-89597615D01*
X126787855Y-89615059D01*
X126811567Y-89622924D01*
X126869927Y-89663354D01*
X126897164Y-89728918D01*
X126897900Y-89742517D01*
X126897900Y-92711622D01*
X126877898Y-92779743D01*
X126824242Y-92826236D01*
X126784903Y-92836949D01*
X126733694Y-92842262D01*
X126733691Y-92842263D01*
X126726835Y-92842974D01*
X126720299Y-92845155D01*
X126720297Y-92845155D01*
X126588195Y-92889228D01*
X126559055Y-92898950D01*
X126408652Y-92992022D01*
X126283695Y-93117197D01*
X126279855Y-93123427D01*
X126279854Y-93123428D01*
X126246789Y-93177070D01*
X126190885Y-93267762D01*
X126188581Y-93274709D01*
X126149911Y-93391297D01*
X126135203Y-93435639D01*
X126124500Y-93540100D01*
X126124500Y-94565900D01*
X126124837Y-94569146D01*
X126124837Y-94569150D01*
X126132229Y-94640389D01*
X126135474Y-94671665D01*
X126137655Y-94678201D01*
X126137655Y-94678203D01*
X126171765Y-94780443D01*
X126191450Y-94839445D01*
X126284522Y-94989848D01*
X126409697Y-95114805D01*
X126415927Y-95118645D01*
X126415928Y-95118646D01*
X126553090Y-95203194D01*
X126560262Y-95207615D01*
X126610702Y-95224345D01*
X126721611Y-95261132D01*
X126721613Y-95261132D01*
X126728139Y-95263297D01*
X126734975Y-95263997D01*
X126734978Y-95263998D01*
X126778031Y-95268409D01*
X126832600Y-95274000D01*
X128183400Y-95274000D01*
X128186646Y-95273663D01*
X128186650Y-95273663D01*
X128282307Y-95263738D01*
X128282311Y-95263737D01*
X128289165Y-95263026D01*
X128295701Y-95260845D01*
X128295703Y-95260845D01*
X128427805Y-95216772D01*
X128456945Y-95207050D01*
X128607348Y-95113978D01*
X128732305Y-94988803D01*
X128825115Y-94838238D01*
X128880797Y-94670361D01*
X128885238Y-94627022D01*
X128891172Y-94569098D01*
X128891500Y-94565900D01*
X128891500Y-93540100D01*
X128880526Y-93434335D01*
X128871066Y-93405978D01*
X128826868Y-93273503D01*
X128824550Y-93266555D01*
X128731478Y-93116152D01*
X128606303Y-92991195D01*
X128548431Y-92955522D01*
X128461968Y-92902225D01*
X128461966Y-92902224D01*
X128455738Y-92898385D01*
X128347397Y-92862450D01*
X128294389Y-92844868D01*
X128294387Y-92844868D01*
X128287861Y-92842703D01*
X128281025Y-92842003D01*
X128281022Y-92842002D01*
X128231256Y-92836903D01*
X128165529Y-92810061D01*
X128124748Y-92751946D01*
X128118100Y-92711559D01*
X128118100Y-89742504D01*
X128138102Y-89674383D01*
X128191758Y-89627890D01*
X128204223Y-89622981D01*
X128275002Y-89599367D01*
X128275004Y-89599366D01*
X128281946Y-89597050D01*
X128291093Y-89591390D01*
X128426120Y-89507832D01*
X128432348Y-89503978D01*
X128557305Y-89378803D01*
X128561146Y-89372572D01*
X128646275Y-89234468D01*
X128646276Y-89234466D01*
X128650115Y-89228238D01*
X128705797Y-89060361D01*
X128710238Y-89017022D01*
X128716172Y-88959098D01*
X128716500Y-88955900D01*
X128716500Y-88350300D01*
X128736502Y-88282179D01*
X128790158Y-88235686D01*
X128842500Y-88224300D01*
X130489299Y-88224300D01*
X130557420Y-88244302D01*
X130578394Y-88261205D01*
X131940995Y-89623807D01*
X131975021Y-89686119D01*
X131977900Y-89712902D01*
X131977900Y-98081477D01*
X131957898Y-98149598D01*
X131904242Y-98196091D01*
X131851900Y-98207477D01*
X131539866Y-98207477D01*
X131477684Y-98214232D01*
X131341295Y-98265362D01*
X131224739Y-98352716D01*
X131137385Y-98469272D01*
X131086255Y-98605661D01*
X131079500Y-98667843D01*
X131079500Y-100764111D01*
X131086255Y-100826293D01*
X131137385Y-100962682D01*
X131224739Y-101079238D01*
X131341295Y-101166592D01*
X131477684Y-101217722D01*
X131539866Y-101224477D01*
X133636134Y-101224477D01*
X133698316Y-101217722D01*
X133834705Y-101166592D01*
X133951261Y-101079238D01*
X134038615Y-100962682D01*
X134089745Y-100826293D01*
X134096500Y-100764111D01*
X134096500Y-98667843D01*
X134089745Y-98605661D01*
X134038615Y-98469272D01*
X133951261Y-98352716D01*
X133834705Y-98265362D01*
X133698316Y-98214232D01*
X133636134Y-98207477D01*
X133324100Y-98207477D01*
X133255979Y-98187475D01*
X133209486Y-98133819D01*
X133198100Y-98081477D01*
X133198100Y-90144100D01*
X133218102Y-90075979D01*
X133271758Y-90029486D01*
X133324100Y-90018100D01*
X136456716Y-90018100D01*
X136524837Y-90038102D01*
X136571330Y-90091758D01*
X136581434Y-90162032D01*
X136551940Y-90226612D01*
X136517417Y-90254514D01*
X136493221Y-90267816D01*
X136237860Y-90453346D01*
X136007767Y-90669418D01*
X135806568Y-90912625D01*
X135637438Y-91179131D01*
X135635754Y-91182710D01*
X135635750Y-91182717D01*
X135504733Y-91461144D01*
X135503044Y-91464734D01*
X135405505Y-91764928D01*
X135346359Y-92074980D01*
X135326540Y-92390000D01*
X135346359Y-92705020D01*
X135405505Y-93015072D01*
X135503044Y-93315266D01*
X135504731Y-93318852D01*
X135504733Y-93318856D01*
X135635750Y-93597283D01*
X135635754Y-93597290D01*
X135637438Y-93600869D01*
X135806568Y-93867375D01*
X135809093Y-93870427D01*
X135954443Y-94046124D01*
X136007767Y-94110582D01*
X136237860Y-94326654D01*
X136493221Y-94512184D01*
X136496690Y-94514091D01*
X136496693Y-94514093D01*
X136728814Y-94641703D01*
X136769821Y-94664247D01*
X136773490Y-94665700D01*
X136773495Y-94665702D01*
X137059628Y-94778990D01*
X137063298Y-94780443D01*
X137369025Y-94858940D01*
X137682179Y-94898500D01*
X137997821Y-94898500D01*
X138310975Y-94858940D01*
X138616702Y-94780443D01*
X138620372Y-94778990D01*
X138906505Y-94665702D01*
X138906510Y-94665700D01*
X138910179Y-94664247D01*
X138951186Y-94641703D01*
X139183307Y-94514093D01*
X139183310Y-94514091D01*
X139186779Y-94512184D01*
X139442140Y-94326654D01*
X139672233Y-94110582D01*
X139725558Y-94046124D01*
X139870907Y-93870427D01*
X139873432Y-93867375D01*
X140042562Y-93600869D01*
X140044246Y-93597290D01*
X140044250Y-93597283D01*
X140175267Y-93318856D01*
X140175269Y-93318852D01*
X140176956Y-93315266D01*
X140274495Y-93015072D01*
X140333641Y-92705020D01*
X140353460Y-92390000D01*
X144126540Y-92390000D01*
X144146359Y-92705020D01*
X144205505Y-93015072D01*
X144303044Y-93315266D01*
X144304731Y-93318852D01*
X144304733Y-93318856D01*
X144435750Y-93597283D01*
X144435754Y-93597290D01*
X144437438Y-93600869D01*
X144606568Y-93867375D01*
X144609093Y-93870427D01*
X144754443Y-94046124D01*
X144807767Y-94110582D01*
X145037860Y-94326654D01*
X145293221Y-94512184D01*
X145296690Y-94514091D01*
X145296693Y-94514093D01*
X145528814Y-94641703D01*
X145569821Y-94664247D01*
X145573490Y-94665700D01*
X145573495Y-94665702D01*
X145859628Y-94778990D01*
X145863298Y-94780443D01*
X146169025Y-94858940D01*
X146482179Y-94898500D01*
X146797821Y-94898500D01*
X147110975Y-94858940D01*
X147416702Y-94780443D01*
X147420372Y-94778990D01*
X147706505Y-94665702D01*
X147706510Y-94665700D01*
X147710179Y-94664247D01*
X147751186Y-94641703D01*
X147983307Y-94514093D01*
X147983310Y-94514091D01*
X147986779Y-94512184D01*
X148242140Y-94326654D01*
X148472233Y-94110582D01*
X148525558Y-94046124D01*
X148670907Y-93870427D01*
X148673432Y-93867375D01*
X148842562Y-93600869D01*
X148844246Y-93597290D01*
X148844250Y-93597283D01*
X148975267Y-93318856D01*
X148975269Y-93318852D01*
X148976956Y-93315266D01*
X149074495Y-93015072D01*
X149133641Y-92705020D01*
X149153460Y-92390000D01*
X149133641Y-92074980D01*
X149074495Y-91764928D01*
X148976956Y-91464734D01*
X148975267Y-91461144D01*
X148844250Y-91182717D01*
X148844246Y-91182710D01*
X148842562Y-91179131D01*
X148673432Y-90912625D01*
X148472233Y-90669418D01*
X148242140Y-90453346D01*
X147986779Y-90267816D01*
X147853923Y-90194777D01*
X147713648Y-90117660D01*
X147713647Y-90117659D01*
X147710179Y-90115753D01*
X147706510Y-90114300D01*
X147706505Y-90114298D01*
X147420372Y-90001010D01*
X147420371Y-90001010D01*
X147416702Y-89999557D01*
X147110975Y-89921060D01*
X146797821Y-89881500D01*
X146482179Y-89881500D01*
X146169025Y-89921060D01*
X145863298Y-89999557D01*
X145859629Y-90001010D01*
X145859628Y-90001010D01*
X145573495Y-90114298D01*
X145573490Y-90114300D01*
X145569821Y-90115753D01*
X145566353Y-90117659D01*
X145566352Y-90117660D01*
X145426078Y-90194777D01*
X145293221Y-90267816D01*
X145037860Y-90453346D01*
X144807767Y-90669418D01*
X144606568Y-90912625D01*
X144437438Y-91179131D01*
X144435754Y-91182710D01*
X144435750Y-91182717D01*
X144304733Y-91461144D01*
X144303044Y-91464734D01*
X144205505Y-91764928D01*
X144146359Y-92074980D01*
X144126540Y-92390000D01*
X140353460Y-92390000D01*
X140333641Y-92074980D01*
X140274495Y-91764928D01*
X140176956Y-91464734D01*
X140175267Y-91461144D01*
X140044250Y-91182717D01*
X140044246Y-91182710D01*
X140042562Y-91179131D01*
X139873432Y-90912625D01*
X139672233Y-90669418D01*
X139442140Y-90453346D01*
X139186779Y-90267816D01*
X139053923Y-90194777D01*
X138913648Y-90117660D01*
X138913647Y-90117659D01*
X138910179Y-90115753D01*
X138906510Y-90114300D01*
X138906505Y-90114298D01*
X138708443Y-90035880D01*
X138652469Y-89992205D01*
X138628993Y-89925203D01*
X138645469Y-89856144D01*
X138657742Y-89838413D01*
X138669973Y-89823628D01*
X138677963Y-89814848D01*
X141715786Y-86777026D01*
X141778098Y-86743000D01*
X141840032Y-86745124D01*
X141840877Y-86745369D01*
X141845694Y-86747209D01*
X141850743Y-86748236D01*
X141850749Y-86748238D01*
X141960015Y-86770468D01*
X142072656Y-86793385D01*
X142203324Y-86798176D01*
X142298949Y-86801683D01*
X142298953Y-86801683D01*
X142304113Y-86801872D01*
X142309233Y-86801216D01*
X142309235Y-86801216D01*
X142404554Y-86789005D01*
X142533847Y-86772442D01*
X142538795Y-86770957D01*
X142538802Y-86770956D01*
X142750747Y-86707369D01*
X142755690Y-86705886D01*
X142837161Y-86665974D01*
X142959049Y-86606262D01*
X142959052Y-86606260D01*
X142963684Y-86603991D01*
X143037406Y-86551406D01*
X143943423Y-86551406D01*
X143948704Y-86558461D01*
X144125080Y-86661527D01*
X144134363Y-86665974D01*
X144341003Y-86744883D01*
X144350901Y-86747759D01*
X144567653Y-86791857D01*
X144577883Y-86793076D01*
X144798914Y-86801182D01*
X144809223Y-86800714D01*
X145028623Y-86772608D01*
X145038688Y-86770468D01*
X145250557Y-86706905D01*
X145260152Y-86703144D01*
X145458778Y-86605838D01*
X145467636Y-86600559D01*
X145525097Y-86559572D01*
X145533497Y-86548874D01*
X145526510Y-86535721D01*
X144752811Y-85762021D01*
X144738868Y-85754408D01*
X144737034Y-85754539D01*
X144730420Y-85758790D01*
X143950180Y-86539031D01*
X143943423Y-86551406D01*
X143037406Y-86551406D01*
X143152243Y-86469494D01*
X143316303Y-86306005D01*
X143390714Y-86202451D01*
X143446709Y-86158803D01*
X143517412Y-86152357D01*
X143577572Y-86182543D01*
X143580555Y-86185242D01*
X143589330Y-86181459D01*
X144367979Y-85402811D01*
X144374356Y-85391132D01*
X145104408Y-85391132D01*
X145104539Y-85392966D01*
X145108790Y-85399580D01*
X145886307Y-86177096D01*
X145898313Y-86183652D01*
X145910052Y-86174684D01*
X145948010Y-86121859D01*
X145953321Y-86113020D01*
X146051318Y-85914737D01*
X146055117Y-85905142D01*
X146119415Y-85693517D01*
X146121594Y-85683436D01*
X146150702Y-85462338D01*
X146151221Y-85455663D01*
X146152744Y-85393364D01*
X146152550Y-85386646D01*
X146134279Y-85164400D01*
X146132596Y-85154238D01*
X146078710Y-84939708D01*
X146075389Y-84929953D01*
X145987193Y-84727118D01*
X145982315Y-84718020D01*
X145909224Y-84605038D01*
X145898538Y-84595835D01*
X145888973Y-84600238D01*
X145112021Y-85377189D01*
X145104408Y-85391132D01*
X144374356Y-85391132D01*
X144375592Y-85388868D01*
X144375461Y-85387034D01*
X144371210Y-85380420D01*
X143593862Y-84603073D01*
X143582331Y-84596776D01*
X143572877Y-84604183D01*
X143506918Y-84630450D01*
X143437229Y-84616887D01*
X143389377Y-84573440D01*
X143379312Y-84557881D01*
X143359764Y-84527665D01*
X143203887Y-84356358D01*
X143199836Y-84353159D01*
X143199832Y-84353155D01*
X143044790Y-84230711D01*
X143945508Y-84230711D01*
X143952251Y-84243040D01*
X144727189Y-85017979D01*
X144741132Y-85025592D01*
X144742966Y-85025461D01*
X144749580Y-85021210D01*
X145528994Y-84241795D01*
X145536011Y-84228944D01*
X145528237Y-84218274D01*
X145525902Y-84216430D01*
X145517320Y-84210729D01*
X145323678Y-84103833D01*
X145314272Y-84099606D01*
X145105772Y-84025772D01*
X145095809Y-84023140D01*
X144878047Y-83984350D01*
X144867796Y-83983381D01*
X144646616Y-83980679D01*
X144636332Y-83981399D01*
X144417693Y-84014855D01*
X144407666Y-84017244D01*
X144197426Y-84085961D01*
X144187916Y-84089958D01*
X143991725Y-84192089D01*
X143983007Y-84197578D01*
X143953961Y-84219386D01*
X143945508Y-84230711D01*
X143044790Y-84230711D01*
X143026177Y-84216011D01*
X143026172Y-84216008D01*
X143022123Y-84212810D01*
X143017607Y-84210317D01*
X143017604Y-84210315D01*
X142823879Y-84103373D01*
X142823875Y-84103371D01*
X142819355Y-84100876D01*
X142814486Y-84099152D01*
X142814482Y-84099150D01*
X142605903Y-84025288D01*
X142605899Y-84025287D01*
X142601028Y-84023562D01*
X142595935Y-84022655D01*
X142595932Y-84022654D01*
X142378095Y-83983851D01*
X142378089Y-83983850D01*
X142373006Y-83982945D01*
X142300096Y-83982054D01*
X142146581Y-83980179D01*
X142146579Y-83980179D01*
X142141411Y-83980116D01*
X141912464Y-84015150D01*
X141692314Y-84087106D01*
X141687726Y-84089494D01*
X141687722Y-84089496D01*
X141491461Y-84191663D01*
X141486872Y-84194052D01*
X141482739Y-84197155D01*
X141482736Y-84197157D01*
X141423284Y-84241795D01*
X141301655Y-84333117D01*
X141141639Y-84500564D01*
X141094836Y-84569174D01*
X141039927Y-84614175D01*
X140969402Y-84622346D01*
X140905655Y-84591092D01*
X140884959Y-84566609D01*
X140862577Y-84532013D01*
X140862576Y-84532012D01*
X140859764Y-84527665D01*
X140703887Y-84356358D01*
X140699836Y-84353159D01*
X140699832Y-84353155D01*
X140526177Y-84216011D01*
X140526172Y-84216008D01*
X140522123Y-84212810D01*
X140517607Y-84210317D01*
X140517604Y-84210315D01*
X140323879Y-84103373D01*
X140323875Y-84103371D01*
X140319355Y-84100876D01*
X140314486Y-84099152D01*
X140314482Y-84099150D01*
X140105903Y-84025288D01*
X140105899Y-84025287D01*
X140101028Y-84023562D01*
X140095935Y-84022655D01*
X140095932Y-84022654D01*
X139878095Y-83983851D01*
X139878089Y-83983850D01*
X139873006Y-83982945D01*
X139800096Y-83982054D01*
X139646581Y-83980179D01*
X139646579Y-83980179D01*
X139641411Y-83980116D01*
X139412464Y-84015150D01*
X139192314Y-84087106D01*
X139187726Y-84089494D01*
X139187722Y-84089496D01*
X138991461Y-84191663D01*
X138986872Y-84194052D01*
X138982739Y-84197155D01*
X138982736Y-84197157D01*
X138923284Y-84241795D01*
X138801655Y-84333117D01*
X138641639Y-84500564D01*
X138638730Y-84504829D01*
X138638724Y-84504837D01*
X138623152Y-84527665D01*
X138511119Y-84691899D01*
X138413602Y-84901981D01*
X138351707Y-85125169D01*
X138327095Y-85355469D01*
X138327392Y-85360622D01*
X138327392Y-85360625D01*
X138337383Y-85533906D01*
X138340427Y-85586697D01*
X138341564Y-85591743D01*
X138341565Y-85591749D01*
X138359311Y-85670492D01*
X138391346Y-85812642D01*
X138393288Y-85817424D01*
X138393289Y-85817428D01*
X138431711Y-85912050D01*
X138478484Y-86027237D01*
X138599501Y-86224719D01*
X138751147Y-86399784D01*
X138929349Y-86547730D01*
X139129322Y-86664584D01*
X139345694Y-86747209D01*
X139350760Y-86748240D01*
X139350761Y-86748240D01*
X139403846Y-86759040D01*
X139572656Y-86793385D01*
X139641045Y-86795893D01*
X139670720Y-86796981D01*
X139738062Y-86819466D01*
X139782558Y-86874789D01*
X139790080Y-86945386D01*
X139755198Y-87011991D01*
X138845398Y-87921790D01*
X138006193Y-88760995D01*
X137943881Y-88795021D01*
X137917098Y-88797900D01*
X132892902Y-88797900D01*
X132824781Y-88777898D01*
X132803807Y-88760995D01*
X131279120Y-87236308D01*
X131272010Y-87228495D01*
X131268026Y-87222217D01*
X131220269Y-87177370D01*
X131217427Y-87174615D01*
X131198465Y-87155653D01*
X131195338Y-87153227D01*
X131194697Y-87152662D01*
X131186537Y-87145693D01*
X131161439Y-87122125D01*
X131155658Y-87116696D01*
X131138881Y-87107472D01*
X131122368Y-87096625D01*
X131113502Y-87089748D01*
X131113497Y-87089745D01*
X131107234Y-87084887D01*
X131068350Y-87068061D01*
X131057705Y-87062846D01*
X131020578Y-87042435D01*
X131002038Y-87037675D01*
X130983341Y-87031274D01*
X130965765Y-87023668D01*
X130923922Y-87017041D01*
X130912303Y-87014635D01*
X130871274Y-87004100D01*
X130852136Y-87004100D01*
X130832425Y-87002549D01*
X130813516Y-86999554D01*
X130800399Y-87000794D01*
X130771339Y-87003541D01*
X130759481Y-87004100D01*
X128842500Y-87004100D01*
X128774379Y-86984098D01*
X128727886Y-86930442D01*
X128716500Y-86878100D01*
X128716500Y-86155100D01*
X128705526Y-86049334D01*
X128680364Y-85973913D01*
X128651868Y-85888502D01*
X128649550Y-85881554D01*
X128556478Y-85731152D01*
X128431303Y-85606195D01*
X128421370Y-85600072D01*
X128286968Y-85517225D01*
X128286966Y-85517224D01*
X128280738Y-85513385D01*
X128182271Y-85480725D01*
X128119389Y-85459868D01*
X128119387Y-85459868D01*
X128112861Y-85457703D01*
X128106025Y-85457003D01*
X128106022Y-85457002D01*
X128062969Y-85452591D01*
X128008400Y-85447000D01*
X127007600Y-85447000D01*
X127004354Y-85447337D01*
X127004350Y-85447337D01*
X126908692Y-85457262D01*
X126908688Y-85457263D01*
X126901834Y-85457974D01*
X126895298Y-85460155D01*
X126895296Y-85460155D01*
X126845151Y-85476885D01*
X126734054Y-85513950D01*
X126727822Y-85517806D01*
X126727823Y-85517806D01*
X126679728Y-85547568D01*
X126611276Y-85566406D01*
X126543506Y-85545245D01*
X126524335Y-85529524D01*
X125615003Y-84620191D01*
X125580979Y-84557881D01*
X125578100Y-84531098D01*
X125578100Y-82595500D01*
X125598102Y-82527379D01*
X125651758Y-82480886D01*
X125704100Y-82469500D01*
X127318502Y-82469500D01*
X127320950Y-82469307D01*
X127320958Y-82469307D01*
X127349421Y-82467067D01*
X127349426Y-82467066D01*
X127355831Y-82466562D01*
X127455769Y-82437528D01*
X127507988Y-82422357D01*
X127507990Y-82422356D01*
X127515601Y-82420145D01*
X127544411Y-82403107D01*
X127651980Y-82339491D01*
X127651983Y-82339489D01*
X127658807Y-82335453D01*
X127776453Y-82217807D01*
X127780489Y-82210983D01*
X127780491Y-82210980D01*
X127857108Y-82081427D01*
X127861145Y-82074601D01*
X127907562Y-81914831D01*
X127910500Y-81877502D01*
X127910500Y-81444498D01*
X127910774Y-81444498D01*
X127927767Y-81376920D01*
X127947261Y-81351735D01*
X130425890Y-78873105D01*
X130433706Y-78865993D01*
X130439983Y-78862010D01*
X130484830Y-78814253D01*
X130487585Y-78811411D01*
X130506547Y-78792449D01*
X130508973Y-78789322D01*
X130509538Y-78788681D01*
X130516507Y-78780521D01*
X130540075Y-78755423D01*
X130545504Y-78749642D01*
X130554728Y-78732865D01*
X130565575Y-78716352D01*
X130572452Y-78707486D01*
X130572455Y-78707481D01*
X130577313Y-78701218D01*
X130594139Y-78662334D01*
X130599354Y-78651689D01*
X130619765Y-78614562D01*
X130624525Y-78596022D01*
X130630928Y-78577320D01*
X130633654Y-78571022D01*
X130638532Y-78559749D01*
X130645159Y-78517906D01*
X130647566Y-78506282D01*
X130656129Y-78472934D01*
X130658100Y-78465258D01*
X130658100Y-78446120D01*
X130659651Y-78426409D01*
X130661406Y-78415328D01*
X130662646Y-78407500D01*
X130658659Y-78365323D01*
X130658100Y-78353465D01*
X130658100Y-76855977D01*
X140558411Y-76855977D01*
X140578754Y-77244153D01*
X140579267Y-77247393D01*
X140579268Y-77247401D01*
X140607268Y-77424184D01*
X140639562Y-77628076D01*
X140740167Y-78003539D01*
X140741352Y-78006627D01*
X140741353Y-78006629D01*
X140774744Y-78093614D01*
X140879468Y-78366430D01*
X140880966Y-78369370D01*
X141053201Y-78707399D01*
X141055938Y-78712771D01*
X141057734Y-78715537D01*
X141057736Y-78715540D01*
X141202737Y-78938823D01*
X141267643Y-79038770D01*
X141269718Y-79041332D01*
X141507551Y-79335030D01*
X141512266Y-79340853D01*
X141787124Y-79615711D01*
X142089207Y-79860334D01*
X142091970Y-79862129D01*
X142091971Y-79862129D01*
X142409876Y-80068578D01*
X142415205Y-80072039D01*
X142418139Y-80073534D01*
X142418146Y-80073538D01*
X142695370Y-80214790D01*
X142761547Y-80248509D01*
X142794538Y-80261173D01*
X143058014Y-80362312D01*
X143124438Y-80387810D01*
X143499901Y-80488415D01*
X143703793Y-80520709D01*
X143880576Y-80548709D01*
X143880584Y-80548710D01*
X143883824Y-80549223D01*
X144272000Y-80569566D01*
X144660176Y-80549223D01*
X144663416Y-80548710D01*
X144663424Y-80548709D01*
X144840207Y-80520709D01*
X145044099Y-80488415D01*
X145419562Y-80387810D01*
X145485987Y-80362312D01*
X145749462Y-80261173D01*
X145782453Y-80248509D01*
X145848630Y-80214790D01*
X146125854Y-80073538D01*
X146125861Y-80073534D01*
X146128795Y-80072039D01*
X146134125Y-80068578D01*
X146452029Y-79862129D01*
X146452030Y-79862129D01*
X146454793Y-79860334D01*
X146756876Y-79615711D01*
X147031734Y-79340853D01*
X147036450Y-79335030D01*
X147274282Y-79041332D01*
X147276357Y-79038770D01*
X147341263Y-78938823D01*
X147486264Y-78715540D01*
X147486266Y-78715537D01*
X147488062Y-78712771D01*
X147490800Y-78707399D01*
X147663034Y-78369370D01*
X147664532Y-78366430D01*
X147769256Y-78093614D01*
X147802647Y-78006629D01*
X147802648Y-78006627D01*
X147803833Y-78003539D01*
X147904438Y-77628076D01*
X147936732Y-77424184D01*
X147964732Y-77247401D01*
X147964733Y-77247393D01*
X147965246Y-77244153D01*
X147985589Y-76855977D01*
X147965246Y-76467801D01*
X147904438Y-76083878D01*
X147803833Y-75708415D01*
X147664532Y-75345524D01*
X147517077Y-75056128D01*
X147489561Y-75002124D01*
X147489557Y-75002117D01*
X147488062Y-74999183D01*
X147371540Y-74819753D01*
X147278152Y-74675948D01*
X147278152Y-74675947D01*
X147276357Y-74673184D01*
X147031734Y-74371101D01*
X146756876Y-74096243D01*
X146454793Y-73851620D01*
X146372983Y-73798492D01*
X146131564Y-73641713D01*
X146131561Y-73641711D01*
X146128795Y-73639915D01*
X146125861Y-73638420D01*
X146125854Y-73638416D01*
X145785393Y-73464943D01*
X145782453Y-73463445D01*
X145419562Y-73324144D01*
X145044099Y-73223539D01*
X144840207Y-73191245D01*
X144663424Y-73163245D01*
X144663416Y-73163244D01*
X144660176Y-73162731D01*
X144272000Y-73142388D01*
X143883824Y-73162731D01*
X143880584Y-73163244D01*
X143880576Y-73163245D01*
X143703793Y-73191245D01*
X143499901Y-73223539D01*
X143124438Y-73324144D01*
X142761547Y-73463445D01*
X142758607Y-73464943D01*
X142418147Y-73638416D01*
X142418140Y-73638420D01*
X142415206Y-73639915D01*
X142412440Y-73641711D01*
X142412437Y-73641713D01*
X142091971Y-73849825D01*
X142089207Y-73851620D01*
X141787124Y-74096243D01*
X141512266Y-74371101D01*
X141267643Y-74673184D01*
X141265848Y-74675947D01*
X141265848Y-74675948D01*
X141172461Y-74819753D01*
X141055938Y-74999183D01*
X141054443Y-75002117D01*
X141054439Y-75002124D01*
X141026923Y-75056128D01*
X140879468Y-75345524D01*
X140740167Y-75708415D01*
X140639562Y-76083878D01*
X140578754Y-76467801D01*
X140558411Y-76855977D01*
X130658100Y-76855977D01*
X130658100Y-72370638D01*
X130678102Y-72302517D01*
X130722989Y-72263236D01*
X130721946Y-72261550D01*
X130866120Y-72172332D01*
X130872348Y-72168478D01*
X130958784Y-72081891D01*
X131021066Y-72047812D01*
X131091886Y-72052815D01*
X131136976Y-72081736D01*
X131224697Y-72169305D01*
X131230927Y-72173145D01*
X131230928Y-72173146D01*
X131368095Y-72257697D01*
X131375262Y-72262115D01*
X131437900Y-72282891D01*
X131536611Y-72315632D01*
X131536613Y-72315632D01*
X131543139Y-72317797D01*
X131549975Y-72318497D01*
X131549978Y-72318498D01*
X131593031Y-72322909D01*
X131647600Y-72328500D01*
X132448400Y-72328500D01*
X132451646Y-72328163D01*
X132451650Y-72328163D01*
X132547308Y-72318238D01*
X132547312Y-72318237D01*
X132554166Y-72317526D01*
X132560702Y-72315345D01*
X132560704Y-72315345D01*
X132697509Y-72269703D01*
X132721946Y-72261550D01*
X132872348Y-72168478D01*
X132997305Y-72043303D01*
X133074705Y-71917738D01*
X133086275Y-71898968D01*
X133086276Y-71898966D01*
X133090115Y-71892738D01*
X133145797Y-71724861D01*
X133156500Y-71620400D01*
X133156500Y-70926501D01*
X133176502Y-70858380D01*
X133193405Y-70837406D01*
X138867806Y-65163005D01*
X138930118Y-65128979D01*
X138956901Y-65126100D01*
X140097500Y-65126100D01*
X140165621Y-65146102D01*
X140212114Y-65199758D01*
X140223500Y-65252100D01*
X140223500Y-65564134D01*
X140230255Y-65626316D01*
X140281385Y-65762705D01*
X140368739Y-65879261D01*
X140485295Y-65966615D01*
X140621684Y-66017745D01*
X140683866Y-66024500D01*
X142780134Y-66024500D01*
X142842316Y-66017745D01*
X142978705Y-65966615D01*
X143095261Y-65879261D01*
X143182615Y-65762705D01*
X143233745Y-65626316D01*
X143240500Y-65564134D01*
X143240500Y-63467866D01*
X143233745Y-63405684D01*
X143182615Y-63269295D01*
X143095261Y-63152739D01*
X142978705Y-63065385D01*
X142842316Y-63014255D01*
X142780134Y-63007500D01*
X140683866Y-63007500D01*
X140621684Y-63014255D01*
X140485295Y-63065385D01*
X140368739Y-63152739D01*
X140281385Y-63269295D01*
X140230255Y-63405684D01*
X140223500Y-63467866D01*
X140223500Y-63779900D01*
X140203498Y-63848021D01*
X140149842Y-63894514D01*
X140097500Y-63905900D01*
X138727677Y-63905900D01*
X138717125Y-63905402D01*
X138709871Y-63903781D01*
X138647451Y-63905742D01*
X138644405Y-63905838D01*
X138640448Y-63905900D01*
X138613617Y-63905900D01*
X138609690Y-63906396D01*
X138608784Y-63906453D01*
X138598140Y-63907292D01*
X138555801Y-63908622D01*
X138537414Y-63913964D01*
X138518057Y-63917972D01*
X138499068Y-63920371D01*
X138459680Y-63935965D01*
X138448457Y-63939807D01*
X138415390Y-63949415D01*
X138415388Y-63949416D01*
X138407774Y-63951628D01*
X138391293Y-63961375D01*
X138373551Y-63970067D01*
X138355746Y-63977116D01*
X138349332Y-63981776D01*
X138321472Y-64002017D01*
X138311552Y-64008533D01*
X138281920Y-64026057D01*
X138281917Y-64026059D01*
X138275093Y-64030095D01*
X138261562Y-64043626D01*
X138246530Y-64056465D01*
X138231038Y-64067721D01*
X138225985Y-64073829D01*
X138204031Y-64100367D01*
X138196041Y-64109147D01*
X132430593Y-69874595D01*
X132368281Y-69908621D01*
X132341498Y-69911500D01*
X131647600Y-69911500D01*
X131644354Y-69911837D01*
X131644350Y-69911837D01*
X131548692Y-69921762D01*
X131548688Y-69921763D01*
X131541834Y-69922474D01*
X131535298Y-69924655D01*
X131535296Y-69924655D01*
X131437796Y-69957184D01*
X131374054Y-69978450D01*
X131223652Y-70071522D01*
X131179826Y-70115425D01*
X131137216Y-70158109D01*
X131074934Y-70192188D01*
X131004114Y-70187185D01*
X130959025Y-70158264D01*
X130876483Y-70075866D01*
X130871303Y-70070695D01*
X130841135Y-70052099D01*
X130726968Y-69981725D01*
X130726966Y-69981724D01*
X130720738Y-69977885D01*
X130560254Y-69924655D01*
X130559389Y-69924368D01*
X130559387Y-69924368D01*
X130552861Y-69922203D01*
X130546025Y-69921503D01*
X130546022Y-69921502D01*
X130502969Y-69917091D01*
X130448400Y-69911500D01*
X129647600Y-69911500D01*
X129644354Y-69911837D01*
X129644350Y-69911837D01*
X129548692Y-69921762D01*
X129548688Y-69921763D01*
X129541834Y-69922474D01*
X129535298Y-69924655D01*
X129535296Y-69924655D01*
X129437796Y-69957184D01*
X129374054Y-69978450D01*
X129330159Y-70005613D01*
X129326402Y-70007938D01*
X129257950Y-70026775D01*
X129190181Y-70005613D01*
X129144610Y-69951172D01*
X129134100Y-69900793D01*
X129134100Y-64581154D01*
X129154102Y-64513033D01*
X129207758Y-64466540D01*
X129215870Y-64463172D01*
X129262297Y-64445767D01*
X129270705Y-64442615D01*
X129387261Y-64355261D01*
X129474615Y-64238705D01*
X129525745Y-64102316D01*
X129532500Y-64040134D01*
X129532500Y-61943866D01*
X129525745Y-61881684D01*
X129474615Y-61745295D01*
X129387261Y-61628739D01*
X129270705Y-61541385D01*
X129134316Y-61490255D01*
X129072134Y-61483500D01*
X127975866Y-61483500D01*
X127913684Y-61490255D01*
X127777295Y-61541385D01*
X127660739Y-61628739D01*
X127573385Y-61745295D01*
X127522255Y-61881684D01*
X127515500Y-61943866D01*
X127515500Y-63356498D01*
X127495498Y-63424619D01*
X127441842Y-63471112D01*
X127371568Y-63481216D01*
X127306988Y-63451722D01*
X127300404Y-63445593D01*
X127253097Y-63398285D01*
X127029404Y-63174592D01*
X126995379Y-63112280D01*
X126992500Y-63085497D01*
X126992500Y-61943866D01*
X126985745Y-61881684D01*
X126934615Y-61745295D01*
X126847261Y-61628739D01*
X126730705Y-61541385D01*
X126594316Y-61490255D01*
X126532134Y-61483500D01*
X125435866Y-61483500D01*
X125373684Y-61490255D01*
X125237295Y-61541385D01*
X125120739Y-61628739D01*
X125033385Y-61745295D01*
X124982255Y-61881684D01*
X124975500Y-61943866D01*
X124975500Y-64040134D01*
X124982255Y-64102316D01*
X125033385Y-64238705D01*
X125120739Y-64355261D01*
X125237295Y-64442615D01*
X125373684Y-64493745D01*
X125435866Y-64500500D01*
X126532134Y-64500500D01*
X126535524Y-64500132D01*
X126535538Y-64500131D01*
X126560117Y-64497461D01*
X126629999Y-64509990D01*
X126662817Y-64533629D01*
X127059795Y-64930607D01*
X127093821Y-64992919D01*
X127096700Y-65019702D01*
X127096700Y-76917000D01*
X127076698Y-76985121D01*
X127023042Y-77031614D01*
X126970700Y-77043000D01*
X126699115Y-77043000D01*
X126683876Y-77047475D01*
X126682671Y-77048865D01*
X126681000Y-77056548D01*
X126681000Y-77979000D01*
X126660998Y-78047121D01*
X126607342Y-78093614D01*
X126555000Y-78105000D01*
X124965122Y-78105000D01*
X124951591Y-78108973D01*
X124950456Y-78116871D01*
X124991107Y-78256790D01*
X124997352Y-78271221D01*
X125073911Y-78400677D01*
X125079871Y-78408360D01*
X125105820Y-78474444D01*
X125091922Y-78544067D01*
X125081579Y-78560161D01*
X125077547Y-78564193D01*
X124992855Y-78707399D01*
X124946438Y-78867169D01*
X124945933Y-78873581D01*
X124944775Y-78879922D01*
X124943287Y-78879650D01*
X124920730Y-78938823D01*
X124909503Y-78951686D01*
X124082104Y-79779084D01*
X124074294Y-79786190D01*
X124068017Y-79790174D01*
X124062591Y-79795952D01*
X124023170Y-79837931D01*
X124020415Y-79840773D01*
X124001453Y-79859735D01*
X123999027Y-79862862D01*
X123998462Y-79863503D01*
X123991494Y-79871661D01*
X123962496Y-79902542D01*
X123953272Y-79919319D01*
X123942425Y-79935832D01*
X123935548Y-79944698D01*
X123935545Y-79944703D01*
X123930687Y-79950966D01*
X123913862Y-79989847D01*
X123908646Y-80000495D01*
X123888235Y-80037622D01*
X123886263Y-80045304D01*
X123883529Y-80055951D01*
X123847214Y-80116957D01*
X123783682Y-80148645D01*
X123713103Y-80140954D01*
X123657886Y-80096327D01*
X123653190Y-80088998D01*
X123653144Y-80088939D01*
X123649105Y-80082109D01*
X123635574Y-80068578D01*
X123622732Y-80053543D01*
X123616746Y-80045304D01*
X123611479Y-80038054D01*
X123605371Y-80033001D01*
X123578833Y-80011047D01*
X123570053Y-80003057D01*
X122997261Y-79430265D01*
X122963235Y-79367953D01*
X122960565Y-79337502D01*
X122960500Y-79337502D01*
X122960500Y-78904498D01*
X122958566Y-78879922D01*
X122958067Y-78873579D01*
X122958066Y-78873574D01*
X122957562Y-78867169D01*
X122911145Y-78707399D01*
X122826453Y-78564193D01*
X122823771Y-78561511D01*
X122798498Y-78497139D01*
X122812400Y-78427516D01*
X122822572Y-78411688D01*
X122826453Y-78407807D01*
X122911145Y-78264601D01*
X122913415Y-78256790D01*
X122937938Y-78172377D01*
X122957562Y-78104831D01*
X122960500Y-78067502D01*
X122960500Y-77634498D01*
X122957562Y-77597169D01*
X122952459Y-77579605D01*
X124952061Y-77579605D01*
X124952101Y-77593706D01*
X124959370Y-77597000D01*
X126154885Y-77597000D01*
X126170124Y-77592525D01*
X126171329Y-77591135D01*
X126173000Y-77583452D01*
X126173000Y-77061116D01*
X126168525Y-77045877D01*
X126167135Y-77044672D01*
X126159452Y-77043001D01*
X125538017Y-77043001D01*
X125533080Y-77043195D01*
X125504664Y-77045430D01*
X125492069Y-77047730D01*
X125346210Y-77090107D01*
X125331779Y-77096352D01*
X125202322Y-77172911D01*
X125189896Y-77182551D01*
X125083551Y-77288896D01*
X125073911Y-77301322D01*
X124997352Y-77430779D01*
X124991107Y-77445210D01*
X124952061Y-77579605D01*
X122952459Y-77579605D01*
X122928528Y-77497231D01*
X122913357Y-77445012D01*
X122913356Y-77445010D01*
X122911145Y-77437399D01*
X122894107Y-77408589D01*
X122830491Y-77301020D01*
X122830489Y-77301017D01*
X122826453Y-77294193D01*
X122708807Y-77176547D01*
X122701983Y-77172511D01*
X122701980Y-77172509D01*
X122572427Y-77095892D01*
X122572428Y-77095892D01*
X122565601Y-77091855D01*
X122557990Y-77089644D01*
X122557988Y-77089643D01*
X122505769Y-77074472D01*
X122405831Y-77045438D01*
X122399426Y-77044934D01*
X122399421Y-77044933D01*
X122370958Y-77042693D01*
X122370950Y-77042693D01*
X122368502Y-77042500D01*
X122148100Y-77042500D01*
X122079979Y-77022498D01*
X122033486Y-76968842D01*
X122022100Y-76916500D01*
X122022100Y-74868119D01*
X122042102Y-74799998D01*
X122054464Y-74783809D01*
X122131166Y-74698623D01*
X122131167Y-74698622D01*
X122135585Y-74693715D01*
X122229075Y-74531785D01*
X122286855Y-74353956D01*
X122306400Y-74168000D01*
X122286855Y-73982044D01*
X122229075Y-73804215D01*
X122135585Y-73642285D01*
X122054464Y-73552191D01*
X122023747Y-73488184D01*
X122022100Y-73467881D01*
X122022100Y-73435401D01*
X122042102Y-73367280D01*
X122059005Y-73346306D01*
X123014906Y-72390405D01*
X123077218Y-72356379D01*
X123104001Y-72353500D01*
X123810400Y-72353500D01*
X123813646Y-72353163D01*
X123813650Y-72353163D01*
X123909308Y-72343238D01*
X123909312Y-72343237D01*
X123916166Y-72342526D01*
X123922702Y-72340345D01*
X123922704Y-72340345D01*
X124076998Y-72288868D01*
X124083946Y-72286550D01*
X124234348Y-72193478D01*
X124359305Y-72068303D01*
X124362102Y-72063765D01*
X124419353Y-72023176D01*
X124490276Y-72019946D01*
X124551687Y-72055572D01*
X124559062Y-72064068D01*
X124567098Y-72074207D01*
X124681829Y-72188739D01*
X124693240Y-72197751D01*
X124831243Y-72282816D01*
X124844424Y-72288963D01*
X124998710Y-72340138D01*
X125012086Y-72343005D01*
X125106438Y-72352672D01*
X125112854Y-72353000D01*
X125225385Y-72353000D01*
X125240624Y-72348525D01*
X125241829Y-72347135D01*
X125243500Y-72339452D01*
X125243500Y-72334884D01*
X125751500Y-72334884D01*
X125755975Y-72350123D01*
X125757365Y-72351328D01*
X125765048Y-72352999D01*
X125882095Y-72352999D01*
X125888614Y-72352662D01*
X125984206Y-72342743D01*
X125997600Y-72339851D01*
X126151784Y-72288412D01*
X126164962Y-72282239D01*
X126302807Y-72196937D01*
X126314208Y-72187901D01*
X126428739Y-72073171D01*
X126437751Y-72061760D01*
X126522816Y-71923757D01*
X126528963Y-71910576D01*
X126580138Y-71756290D01*
X126583005Y-71742914D01*
X126592672Y-71648562D01*
X126593000Y-71642146D01*
X126593000Y-71392115D01*
X126588525Y-71376876D01*
X126587135Y-71375671D01*
X126579452Y-71374000D01*
X125769615Y-71374000D01*
X125754376Y-71378475D01*
X125753171Y-71379865D01*
X125751500Y-71387548D01*
X125751500Y-72334884D01*
X125243500Y-72334884D01*
X125243500Y-70847885D01*
X125751500Y-70847885D01*
X125755975Y-70863124D01*
X125757365Y-70864329D01*
X125765048Y-70866000D01*
X126574884Y-70866000D01*
X126590123Y-70861525D01*
X126591328Y-70860135D01*
X126592999Y-70852452D01*
X126592999Y-70597905D01*
X126592662Y-70591386D01*
X126582743Y-70495794D01*
X126579851Y-70482400D01*
X126528412Y-70328216D01*
X126522239Y-70315038D01*
X126436937Y-70177193D01*
X126427901Y-70165792D01*
X126313171Y-70051261D01*
X126301760Y-70042249D01*
X126163757Y-69957184D01*
X126150576Y-69951037D01*
X125996290Y-69899862D01*
X125982914Y-69896995D01*
X125888562Y-69887328D01*
X125882145Y-69887000D01*
X125769615Y-69887000D01*
X125754376Y-69891475D01*
X125753171Y-69892865D01*
X125751500Y-69900548D01*
X125751500Y-70847885D01*
X125243500Y-70847885D01*
X125243500Y-69905116D01*
X125239025Y-69889877D01*
X125237635Y-69888672D01*
X125229952Y-69887001D01*
X125112905Y-69887001D01*
X125106386Y-69887338D01*
X125010794Y-69897257D01*
X124997400Y-69900149D01*
X124843216Y-69951588D01*
X124830038Y-69957761D01*
X124692193Y-70043063D01*
X124680792Y-70052099D01*
X124566262Y-70166828D01*
X124559206Y-70175762D01*
X124501288Y-70216823D01*
X124430365Y-70220053D01*
X124368954Y-70184426D01*
X124362154Y-70176593D01*
X124358478Y-70170652D01*
X124339812Y-70152018D01*
X124238483Y-70050866D01*
X124233303Y-70045695D01*
X124172050Y-70007938D01*
X124088968Y-69956725D01*
X124088966Y-69956724D01*
X124082738Y-69952885D01*
X123988121Y-69921502D01*
X123921389Y-69899368D01*
X123921387Y-69899368D01*
X123914861Y-69897203D01*
X123908025Y-69896503D01*
X123908022Y-69896502D01*
X123864969Y-69892091D01*
X123810400Y-69886500D01*
X123104001Y-69886500D01*
X123035880Y-69866498D01*
X123014906Y-69849595D01*
X121551005Y-68385693D01*
X121516979Y-68323381D01*
X121514100Y-68296598D01*
X121514100Y-64581154D01*
X121534102Y-64513033D01*
X121587758Y-64466540D01*
X121595870Y-64463172D01*
X121642297Y-64445767D01*
X121650705Y-64442615D01*
X121767261Y-64355261D01*
X121854615Y-64238705D01*
X121905745Y-64102316D01*
X121912500Y-64040134D01*
X121912500Y-64036669D01*
X122436001Y-64036669D01*
X122436371Y-64043490D01*
X122441895Y-64094352D01*
X122445521Y-64109604D01*
X122490676Y-64230054D01*
X122499214Y-64245649D01*
X122575715Y-64347724D01*
X122588276Y-64360285D01*
X122690351Y-64436786D01*
X122705946Y-64445324D01*
X122826394Y-64490478D01*
X122841649Y-64494105D01*
X122892514Y-64499631D01*
X122899328Y-64500000D01*
X123171885Y-64500000D01*
X123187124Y-64495525D01*
X123188329Y-64494135D01*
X123190000Y-64486452D01*
X123190000Y-64481884D01*
X123698000Y-64481884D01*
X123702475Y-64497123D01*
X123703865Y-64498328D01*
X123711548Y-64499999D01*
X123988669Y-64499999D01*
X123995490Y-64499629D01*
X124046352Y-64494105D01*
X124061604Y-64490479D01*
X124182054Y-64445324D01*
X124197649Y-64436786D01*
X124299724Y-64360285D01*
X124312285Y-64347724D01*
X124388786Y-64245649D01*
X124397324Y-64230054D01*
X124442478Y-64109606D01*
X124446105Y-64094351D01*
X124451631Y-64043486D01*
X124452000Y-64036672D01*
X124452000Y-63264115D01*
X124447525Y-63248876D01*
X124446135Y-63247671D01*
X124438452Y-63246000D01*
X123716115Y-63246000D01*
X123700876Y-63250475D01*
X123699671Y-63251865D01*
X123698000Y-63259548D01*
X123698000Y-64481884D01*
X123190000Y-64481884D01*
X123190000Y-63264115D01*
X123185525Y-63248876D01*
X123184135Y-63247671D01*
X123176452Y-63246000D01*
X122454116Y-63246000D01*
X122438877Y-63250475D01*
X122437672Y-63251865D01*
X122436001Y-63259548D01*
X122436001Y-64036669D01*
X121912500Y-64036669D01*
X121912500Y-62719885D01*
X122436000Y-62719885D01*
X122440475Y-62735124D01*
X122441865Y-62736329D01*
X122449548Y-62738000D01*
X123171885Y-62738000D01*
X123187124Y-62733525D01*
X123188329Y-62732135D01*
X123190000Y-62724452D01*
X123190000Y-62719885D01*
X123698000Y-62719885D01*
X123702475Y-62735124D01*
X123703865Y-62736329D01*
X123711548Y-62738000D01*
X124433884Y-62738000D01*
X124449123Y-62733525D01*
X124450328Y-62732135D01*
X124451999Y-62724452D01*
X124451999Y-61947331D01*
X124451629Y-61940510D01*
X124446105Y-61889648D01*
X124442479Y-61874396D01*
X124397324Y-61753946D01*
X124388786Y-61738351D01*
X124312285Y-61636276D01*
X124299724Y-61623715D01*
X124197649Y-61547214D01*
X124182054Y-61538676D01*
X124061606Y-61493522D01*
X124046351Y-61489895D01*
X123995486Y-61484369D01*
X123988672Y-61484000D01*
X123716115Y-61484000D01*
X123700876Y-61488475D01*
X123699671Y-61489865D01*
X123698000Y-61497548D01*
X123698000Y-62719885D01*
X123190000Y-62719885D01*
X123190000Y-61502116D01*
X123185525Y-61486877D01*
X123184135Y-61485672D01*
X123176452Y-61484001D01*
X122899331Y-61484001D01*
X122892510Y-61484371D01*
X122841648Y-61489895D01*
X122826396Y-61493521D01*
X122705946Y-61538676D01*
X122690351Y-61547214D01*
X122588276Y-61623715D01*
X122575715Y-61636276D01*
X122499214Y-61738351D01*
X122490676Y-61753946D01*
X122445522Y-61874394D01*
X122441895Y-61889649D01*
X122436369Y-61940514D01*
X122436000Y-61947328D01*
X122436000Y-62719885D01*
X121912500Y-62719885D01*
X121912500Y-61943866D01*
X121905745Y-61881684D01*
X121854615Y-61745295D01*
X121767261Y-61628739D01*
X121650705Y-61541385D01*
X121514316Y-61490255D01*
X121452134Y-61483500D01*
X120355866Y-61483500D01*
X120293684Y-61490255D01*
X120157295Y-61541385D01*
X120040739Y-61628739D01*
X119953385Y-61745295D01*
X119902255Y-61881684D01*
X119895500Y-61943866D01*
X119895500Y-63356498D01*
X119875498Y-63424619D01*
X119821842Y-63471112D01*
X119751568Y-63481216D01*
X119686988Y-63451722D01*
X119680405Y-63445593D01*
X119409405Y-63174593D01*
X119375379Y-63112281D01*
X119372500Y-63085498D01*
X119372500Y-61943866D01*
X119365745Y-61881684D01*
X119314615Y-61745295D01*
X119227261Y-61628739D01*
X119110705Y-61541385D01*
X118974316Y-61490255D01*
X118912134Y-61483500D01*
X117815866Y-61483500D01*
X117753684Y-61490255D01*
X117617295Y-61541385D01*
X117500739Y-61628739D01*
X117413385Y-61745295D01*
X117362255Y-61881684D01*
X117355500Y-61943866D01*
X117355500Y-64040134D01*
X117362255Y-64102316D01*
X117413385Y-64238705D01*
X117500739Y-64355261D01*
X117617295Y-64442615D01*
X117753684Y-64493745D01*
X117815866Y-64500500D01*
X118912134Y-64500500D01*
X118940114Y-64497460D01*
X119009995Y-64509987D01*
X119042817Y-64533628D01*
X119240995Y-64731806D01*
X119275021Y-64794118D01*
X119277900Y-64820901D01*
X119277900Y-69785500D01*
X119257898Y-69853621D01*
X119204242Y-69900114D01*
X119151900Y-69911500D01*
X118471600Y-69911500D01*
X118468354Y-69911837D01*
X118468350Y-69911837D01*
X118372692Y-69921762D01*
X118372688Y-69921763D01*
X118365834Y-69922474D01*
X118359298Y-69924655D01*
X118359296Y-69924655D01*
X118261796Y-69957184D01*
X118198054Y-69978450D01*
X118047652Y-70071522D01*
X118003826Y-70115425D01*
X117961216Y-70158109D01*
X117898934Y-70192188D01*
X117828114Y-70187185D01*
X117783025Y-70158264D01*
X117700483Y-70075866D01*
X117695303Y-70070695D01*
X117665135Y-70052099D01*
X117550968Y-69981725D01*
X117550966Y-69981724D01*
X117544738Y-69977885D01*
X117384254Y-69924655D01*
X117383389Y-69924368D01*
X117383387Y-69924368D01*
X117376861Y-69922203D01*
X117370025Y-69921503D01*
X117370022Y-69921502D01*
X117326969Y-69917091D01*
X117272400Y-69911500D01*
X116471600Y-69911500D01*
X116468354Y-69911837D01*
X116468350Y-69911837D01*
X116372692Y-69921762D01*
X116372688Y-69921763D01*
X116365834Y-69922474D01*
X116359298Y-69924655D01*
X116359296Y-69924655D01*
X116261796Y-69957184D01*
X116198054Y-69978450D01*
X116047652Y-70071522D01*
X115922695Y-70196697D01*
X115829885Y-70347262D01*
X115774203Y-70515139D01*
X115763500Y-70619600D01*
X115763500Y-71620400D01*
X115774474Y-71726166D01*
X115776655Y-71732702D01*
X115776655Y-71732704D01*
X115782379Y-71749861D01*
X115830450Y-71893946D01*
X115923522Y-72044348D01*
X116048697Y-72169305D01*
X116170017Y-72244088D01*
X116217509Y-72296859D01*
X116229900Y-72351347D01*
X116229900Y-73467881D01*
X116209898Y-73536002D01*
X116197536Y-73552190D01*
X116116415Y-73642285D01*
X116022925Y-73804215D01*
X115965145Y-73982044D01*
X115945600Y-74168000D01*
X115965145Y-74353956D01*
X116022925Y-74531785D01*
X116116415Y-74693715D01*
X116241530Y-74832669D01*
X116392800Y-74942573D01*
X116398828Y-74945257D01*
X116398830Y-74945258D01*
X116526553Y-75002124D01*
X116563615Y-75018625D01*
X116655062Y-75038062D01*
X116740053Y-75056128D01*
X116740057Y-75056128D01*
X116746510Y-75057500D01*
X116933490Y-75057500D01*
X116939943Y-75056128D01*
X116939947Y-75056128D01*
X117024938Y-75038062D01*
X117116385Y-75018625D01*
X117153447Y-75002124D01*
X117281170Y-74945258D01*
X117281172Y-74945257D01*
X117287200Y-74942573D01*
X117438470Y-74832669D01*
X117563585Y-74693715D01*
X117657075Y-74531785D01*
X117714855Y-74353956D01*
X117734400Y-74168000D01*
X117714855Y-73982044D01*
X117657075Y-73804215D01*
X117563585Y-73642285D01*
X117482464Y-73552191D01*
X117451747Y-73488184D01*
X117450100Y-73467881D01*
X117450100Y-72384317D01*
X117470102Y-72316196D01*
X117523758Y-72269703D01*
X117536209Y-72264799D01*
X117545946Y-72261550D01*
X117696348Y-72168478D01*
X117782784Y-72081891D01*
X117845066Y-72047812D01*
X117915886Y-72052815D01*
X117960976Y-72081736D01*
X118048697Y-72169305D01*
X118054927Y-72173145D01*
X118054928Y-72173146D01*
X118192095Y-72257697D01*
X118199262Y-72262115D01*
X118261900Y-72282891D01*
X118360611Y-72315632D01*
X118360613Y-72315632D01*
X118367139Y-72317797D01*
X118373975Y-72318497D01*
X118373978Y-72318498D01*
X118417031Y-72322909D01*
X118471600Y-72328500D01*
X119151900Y-72328500D01*
X119220021Y-72348502D01*
X119266514Y-72402158D01*
X119277900Y-72454500D01*
X119277900Y-80344506D01*
X119277402Y-80355058D01*
X119275781Y-80362312D01*
X119276030Y-80370233D01*
X119277838Y-80427779D01*
X119277900Y-80431736D01*
X119277900Y-80458567D01*
X119278396Y-80462494D01*
X119278453Y-80463400D01*
X119279292Y-80474044D01*
X119280622Y-80516383D01*
X119282834Y-80523996D01*
X119285964Y-80534770D01*
X119289972Y-80554127D01*
X119292371Y-80573116D01*
X119295291Y-80580491D01*
X119307964Y-80612502D01*
X119311808Y-80623729D01*
X119321415Y-80656793D01*
X119323628Y-80664409D01*
X119333374Y-80680889D01*
X119342065Y-80698629D01*
X119349116Y-80716438D01*
X119373558Y-80750080D01*
X119374020Y-80750716D01*
X119380536Y-80760636D01*
X119402095Y-80797090D01*
X119415622Y-80810617D01*
X119428463Y-80825651D01*
X119439721Y-80841146D01*
X119445829Y-80846199D01*
X119472367Y-80868153D01*
X119481148Y-80876143D01*
X119956740Y-81351736D01*
X119990765Y-81414048D01*
X119993435Y-81444498D01*
X119993500Y-81444498D01*
X119993500Y-81877502D01*
X119996438Y-81914831D01*
X120042855Y-82074601D01*
X120046892Y-82081427D01*
X120123509Y-82210980D01*
X120123511Y-82210983D01*
X120127547Y-82217807D01*
X120245193Y-82335453D01*
X120252017Y-82339489D01*
X120252020Y-82339491D01*
X120359589Y-82403107D01*
X120388399Y-82420145D01*
X120396010Y-82422356D01*
X120396012Y-82422357D01*
X120508038Y-82454903D01*
X120567873Y-82493116D01*
X120597551Y-82557612D01*
X120587648Y-82627914D01*
X120541308Y-82681703D01*
X120472885Y-82701900D01*
X116899681Y-82701900D01*
X116889132Y-82701403D01*
X116881872Y-82699780D01*
X116873946Y-82700029D01*
X116873945Y-82700029D01*
X116816387Y-82701838D01*
X116812429Y-82701900D01*
X116785617Y-82701900D01*
X116781691Y-82702396D01*
X116780835Y-82702450D01*
X116770145Y-82703292D01*
X116727801Y-82704622D01*
X116709904Y-82709822D01*
X116709414Y-82709964D01*
X116690057Y-82713972D01*
X116678935Y-82715377D01*
X116678934Y-82715377D01*
X116671068Y-82716371D01*
X116663692Y-82719291D01*
X116663693Y-82719291D01*
X116631682Y-82731964D01*
X116620455Y-82735808D01*
X116587387Y-82745416D01*
X116587384Y-82745417D01*
X116579775Y-82747628D01*
X116563302Y-82757370D01*
X116545550Y-82766066D01*
X116535119Y-82770196D01*
X116535114Y-82770199D01*
X116527746Y-82773116D01*
X116521332Y-82777776D01*
X116493476Y-82798015D01*
X116483565Y-82804526D01*
X116447094Y-82826094D01*
X116433562Y-82839626D01*
X116418530Y-82852465D01*
X116403038Y-82863721D01*
X116397985Y-82869829D01*
X116376031Y-82896367D01*
X116368041Y-82905147D01*
X112057926Y-87215262D01*
X111995614Y-87249288D01*
X111929895Y-87246000D01*
X111926162Y-87244787D01*
X111921594Y-87242895D01*
X111857586Y-87227528D01*
X111695524Y-87188620D01*
X111695518Y-87188619D01*
X111690711Y-87187465D01*
X111454000Y-87168835D01*
X111217289Y-87187465D01*
X111212482Y-87188619D01*
X111212476Y-87188620D01*
X111095141Y-87216790D01*
X110986406Y-87242895D01*
X110981835Y-87244788D01*
X110981833Y-87244789D01*
X110771611Y-87331865D01*
X110771607Y-87331867D01*
X110767037Y-87333760D01*
X110762817Y-87336346D01*
X110568798Y-87455241D01*
X110568792Y-87455245D01*
X110564584Y-87457824D01*
X110384031Y-87612031D01*
X110229824Y-87792584D01*
X110227245Y-87796792D01*
X110227241Y-87796798D01*
X110150646Y-87921790D01*
X110105760Y-87995037D01*
X110103863Y-87999616D01*
X110102090Y-88003097D01*
X110053344Y-88054715D01*
X109989820Y-88071900D01*
X106418180Y-88071900D01*
X106350059Y-88051898D01*
X106305910Y-88003097D01*
X106304137Y-87999616D01*
X106302240Y-87995037D01*
X106257354Y-87921790D01*
X106180759Y-87796798D01*
X106180755Y-87796792D01*
X106178176Y-87792584D01*
X106023969Y-87612031D01*
X105843416Y-87457824D01*
X105839208Y-87455245D01*
X105839202Y-87455241D01*
X105645183Y-87336346D01*
X105640963Y-87333760D01*
X105636393Y-87331867D01*
X105636389Y-87331865D01*
X105426167Y-87244789D01*
X105426165Y-87244788D01*
X105421594Y-87242895D01*
X105312859Y-87216790D01*
X105195524Y-87188620D01*
X105195518Y-87188619D01*
X105190711Y-87187465D01*
X104954000Y-87168835D01*
X104717289Y-87187465D01*
X104712482Y-87188619D01*
X104712476Y-87188620D01*
X104595141Y-87216790D01*
X104486406Y-87242895D01*
X104481835Y-87244788D01*
X104481833Y-87244789D01*
X104271611Y-87331865D01*
X104271607Y-87331867D01*
X104267037Y-87333760D01*
X104262817Y-87336346D01*
X104068798Y-87455241D01*
X104068792Y-87455245D01*
X104064584Y-87457824D01*
X103884031Y-87612031D01*
X103729824Y-87792584D01*
X103727245Y-87796792D01*
X103727241Y-87796798D01*
X103650646Y-87921790D01*
X103605760Y-87995037D01*
X103603867Y-87999607D01*
X103603865Y-87999611D01*
X103546732Y-88137543D01*
X103514895Y-88214406D01*
X103459465Y-88445289D01*
X103440835Y-88682000D01*
X101164705Y-88682000D01*
X101164705Y-67624503D01*
X106375050Y-67624503D01*
X106387947Y-67892996D01*
X106440388Y-68156633D01*
X106531220Y-68409623D01*
X106658450Y-68646408D01*
X106661241Y-68650145D01*
X106661245Y-68650152D01*
X106742887Y-68759483D01*
X106819281Y-68861787D01*
X106822590Y-68865067D01*
X106822595Y-68865073D01*
X107006863Y-69047739D01*
X107010180Y-69051027D01*
X107013942Y-69053785D01*
X107013945Y-69053788D01*
X107126299Y-69136169D01*
X107226954Y-69209972D01*
X107231089Y-69212148D01*
X107231093Y-69212150D01*
X107460698Y-69332952D01*
X107464840Y-69335131D01*
X107718613Y-69423752D01*
X107723206Y-69424624D01*
X107978109Y-69473019D01*
X107978112Y-69473019D01*
X107982698Y-69473890D01*
X108110370Y-69478906D01*
X108246625Y-69484260D01*
X108246630Y-69484260D01*
X108251293Y-69484443D01*
X108355607Y-69473019D01*
X108513844Y-69455690D01*
X108513850Y-69455689D01*
X108518497Y-69455180D01*
X108523021Y-69453989D01*
X108773918Y-69387933D01*
X108773920Y-69387932D01*
X108778441Y-69386742D01*
X108834631Y-69362601D01*
X109021120Y-69282479D01*
X109021122Y-69282478D01*
X109025414Y-69280634D01*
X109144071Y-69207207D01*
X109250017Y-69141646D01*
X109250021Y-69141643D01*
X109253990Y-69139187D01*
X109459149Y-68965507D01*
X109636382Y-68763411D01*
X109781797Y-68537338D01*
X109892199Y-68292255D01*
X109929209Y-68161028D01*
X109963893Y-68038049D01*
X109963894Y-68038046D01*
X109965163Y-68033545D01*
X109983043Y-67892996D01*
X109998688Y-67770022D01*
X109998688Y-67770018D01*
X109999086Y-67766892D01*
X110001571Y-67671977D01*
X109981650Y-67403914D01*
X109922327Y-67141740D01*
X109824902Y-66891215D01*
X109691518Y-66657841D01*
X109525105Y-66446746D01*
X109329317Y-66262568D01*
X109108457Y-66109351D01*
X109104264Y-66107283D01*
X108871564Y-65992528D01*
X108871561Y-65992527D01*
X108867376Y-65990463D01*
X108819745Y-65975216D01*
X108765621Y-65957891D01*
X108611370Y-65908515D01*
X108606763Y-65907765D01*
X108606760Y-65907764D01*
X108350674Y-65866058D01*
X108350675Y-65866058D01*
X108346063Y-65865307D01*
X108215719Y-65863601D01*
X108081961Y-65861850D01*
X108081958Y-65861850D01*
X108077284Y-65861789D01*
X107810937Y-65898037D01*
X107552874Y-65973255D01*
X107308763Y-66085792D01*
X107304854Y-66088355D01*
X107087881Y-66230608D01*
X107087876Y-66230612D01*
X107083968Y-66233174D01*
X106883426Y-66412165D01*
X106711544Y-66618831D01*
X106572096Y-66848633D01*
X106468148Y-67096522D01*
X106401981Y-67357054D01*
X106375050Y-67624503D01*
X101164705Y-67624503D01*
X101164705Y-64016646D01*
X106380001Y-64016646D01*
X106380371Y-64023467D01*
X106385895Y-64074329D01*
X106389521Y-64089581D01*
X106434676Y-64210031D01*
X106443214Y-64225626D01*
X106519715Y-64327701D01*
X106532276Y-64340262D01*
X106634351Y-64416763D01*
X106649946Y-64425301D01*
X106770394Y-64470455D01*
X106785649Y-64474082D01*
X106836514Y-64479608D01*
X106843328Y-64479977D01*
X107915885Y-64479977D01*
X107931124Y-64475502D01*
X107932329Y-64474112D01*
X107934000Y-64466429D01*
X107934000Y-64461861D01*
X108442000Y-64461861D01*
X108446475Y-64477100D01*
X108447865Y-64478305D01*
X108455548Y-64479976D01*
X109532669Y-64479976D01*
X109539490Y-64479606D01*
X109590352Y-64474082D01*
X109605604Y-64470456D01*
X109726054Y-64425301D01*
X109741649Y-64416763D01*
X109843724Y-64340262D01*
X109856285Y-64327701D01*
X109932786Y-64225626D01*
X109941324Y-64210031D01*
X109986478Y-64089583D01*
X109990105Y-64074328D01*
X109995631Y-64023463D01*
X109996000Y-64016649D01*
X109996000Y-62944092D01*
X109991525Y-62928853D01*
X109990135Y-62927648D01*
X109982452Y-62925977D01*
X108460115Y-62925977D01*
X108444876Y-62930452D01*
X108443671Y-62931842D01*
X108442000Y-62939525D01*
X108442000Y-64461861D01*
X107934000Y-64461861D01*
X107934000Y-62944092D01*
X107929525Y-62928853D01*
X107928135Y-62927648D01*
X107920452Y-62925977D01*
X106398116Y-62925977D01*
X106382877Y-62930452D01*
X106381672Y-62931842D01*
X106380001Y-62939525D01*
X106380001Y-64016646D01*
X101164705Y-64016646D01*
X101164705Y-62399862D01*
X106380000Y-62399862D01*
X106384475Y-62415101D01*
X106385865Y-62416306D01*
X106393548Y-62417977D01*
X107915885Y-62417977D01*
X107931124Y-62413502D01*
X107932329Y-62412112D01*
X107934000Y-62404429D01*
X107934000Y-62399862D01*
X108442000Y-62399862D01*
X108446475Y-62415101D01*
X108447865Y-62416306D01*
X108455548Y-62417977D01*
X109977884Y-62417977D01*
X109993123Y-62413502D01*
X109994328Y-62412112D01*
X109995999Y-62404429D01*
X109995999Y-61327308D01*
X109995629Y-61320487D01*
X109990105Y-61269625D01*
X109986479Y-61254373D01*
X109941324Y-61133923D01*
X109932786Y-61118328D01*
X109856285Y-61016253D01*
X109843724Y-61003692D01*
X109741649Y-60927191D01*
X109726054Y-60918653D01*
X109605606Y-60873499D01*
X109590351Y-60869872D01*
X109539486Y-60864346D01*
X109532672Y-60863977D01*
X108460115Y-60863977D01*
X108444876Y-60868452D01*
X108443671Y-60869842D01*
X108442000Y-60877525D01*
X108442000Y-62399862D01*
X107934000Y-62399862D01*
X107934000Y-60882093D01*
X107929525Y-60866854D01*
X107928135Y-60865649D01*
X107920452Y-60863978D01*
X106843331Y-60863978D01*
X106836510Y-60864348D01*
X106785648Y-60869872D01*
X106770396Y-60873498D01*
X106649946Y-60918653D01*
X106634351Y-60927191D01*
X106532276Y-61003692D01*
X106519715Y-61016253D01*
X106443214Y-61118328D01*
X106434676Y-61133923D01*
X106389522Y-61254371D01*
X106385895Y-61269626D01*
X106380369Y-61320491D01*
X106380000Y-61327305D01*
X106380000Y-62399862D01*
X101164705Y-62399862D01*
X101164705Y-60748670D01*
X140864160Y-60748670D01*
X140869887Y-60756320D01*
X141041042Y-60861205D01*
X141049837Y-60865687D01*
X141259988Y-60952734D01*
X141269373Y-60955783D01*
X141490554Y-61008885D01*
X141500301Y-61010428D01*
X141727070Y-61028275D01*
X141736930Y-61028275D01*
X141963699Y-61010428D01*
X141973446Y-61008885D01*
X142194627Y-60955783D01*
X142204012Y-60952734D01*
X142414163Y-60865687D01*
X142422958Y-60861205D01*
X142590445Y-60758568D01*
X142599907Y-60748110D01*
X142596124Y-60739334D01*
X141744812Y-59888022D01*
X141730868Y-59880408D01*
X141729035Y-59880539D01*
X141722420Y-59884790D01*
X140870920Y-60736290D01*
X140864160Y-60748670D01*
X101164705Y-60748670D01*
X101164705Y-59520930D01*
X140219725Y-59520930D01*
X140237572Y-59747699D01*
X140239115Y-59757446D01*
X140292217Y-59978627D01*
X140295266Y-59988012D01*
X140382313Y-60198163D01*
X140386795Y-60206958D01*
X140489432Y-60374445D01*
X140499890Y-60383907D01*
X140508666Y-60380124D01*
X141359978Y-59528812D01*
X141366356Y-59517132D01*
X142096408Y-59517132D01*
X142096539Y-59518965D01*
X142100790Y-59525580D01*
X142952290Y-60377080D01*
X142964670Y-60383840D01*
X142972320Y-60378113D01*
X143077205Y-60206958D01*
X143081687Y-60198163D01*
X143168734Y-59988012D01*
X143171783Y-59978627D01*
X143224885Y-59757446D01*
X143226428Y-59747699D01*
X143244275Y-59520930D01*
X143244275Y-59511070D01*
X143226428Y-59284301D01*
X143224885Y-59274554D01*
X143171783Y-59053373D01*
X143168734Y-59043988D01*
X143081687Y-58833837D01*
X143077205Y-58825042D01*
X142974568Y-58657555D01*
X142964110Y-58648093D01*
X142955334Y-58651876D01*
X142104022Y-59503188D01*
X142096408Y-59517132D01*
X141366356Y-59517132D01*
X141367592Y-59514868D01*
X141367461Y-59513035D01*
X141363210Y-59506420D01*
X140511710Y-58654920D01*
X140499330Y-58648160D01*
X140491680Y-58653887D01*
X140386795Y-58825042D01*
X140382313Y-58833837D01*
X140295266Y-59043988D01*
X140292217Y-59053373D01*
X140239115Y-59274554D01*
X140237572Y-59284301D01*
X140219725Y-59511070D01*
X140219725Y-59520930D01*
X101164705Y-59520930D01*
X101164705Y-58681589D01*
X101184707Y-58613468D01*
X101201315Y-58592789D01*
X101508176Y-58283890D01*
X140864093Y-58283890D01*
X140867876Y-58292666D01*
X141719188Y-59143978D01*
X141733132Y-59151592D01*
X141734965Y-59151461D01*
X141741580Y-59147210D01*
X142593080Y-58295710D01*
X142599840Y-58283330D01*
X142594113Y-58275680D01*
X142422958Y-58170795D01*
X142414163Y-58166313D01*
X142204012Y-58079266D01*
X142194627Y-58076217D01*
X141973446Y-58023115D01*
X141963699Y-58021572D01*
X141736930Y-58003725D01*
X141727070Y-58003725D01*
X141500301Y-58021572D01*
X141490554Y-58023115D01*
X141269373Y-58076217D01*
X141259988Y-58079266D01*
X141049837Y-58166313D01*
X141041042Y-58170795D01*
X140873555Y-58273432D01*
X140864093Y-58283890D01*
X101508176Y-58283890D01*
X107318804Y-52434664D01*
X107381003Y-52400433D01*
X107408191Y-52397464D01*
X122482802Y-52397126D01*
X141174642Y-52396706D01*
X141194020Y-52398205D01*
G37*
%TD.AperFunction*%
%TD*%
M02*
