%TF.GenerationSoftware,KiCad,Pcbnew,(6.0.10)*%
%TF.CreationDate,2023-02-14T20:35:35-05:00*%
%TF.ProjectId,starterProject,73746172-7465-4725-9072-6f6a6563742e,rev?*%
%TF.SameCoordinates,Original*%
%TF.FileFunction,Copper,L2,Bot*%
%TF.FilePolarity,Positive*%
%FSLAX46Y46*%
G04 Gerber Fmt 4.6, Leading zero omitted, Abs format (unit mm)*
G04 Created by KiCad (PCBNEW (6.0.10)) date 2023-02-14 20:35:35*
%MOMM*%
%LPD*%
G01*
G04 APERTURE LIST*
%TA.AperFunction,ComponentPad*%
%ADD10R,2.000000X2.000000*%
%TD*%
%TA.AperFunction,WasherPad*%
%ADD11C,4.000000*%
%TD*%
%TA.AperFunction,ComponentPad*%
%ADD12C,1.800000*%
%TD*%
%TA.AperFunction,ComponentPad*%
%ADD13C,2.000000*%
%TD*%
%TA.AperFunction,ComponentPad*%
%ADD14C,6.400000*%
%TD*%
%TA.AperFunction,ComponentPad*%
%ADD15R,2.600000X2.600000*%
%TD*%
%TA.AperFunction,ComponentPad*%
%ADD16C,2.600000*%
%TD*%
%TA.AperFunction,ViaPad*%
%ADD17C,0.762000*%
%TD*%
G04 APERTURE END LIST*
D10*
%TO.P,TP2,1,1*%
%TO.N,Net-(RV1-Pad2)*%
X132588000Y-99715977D03*
%TD*%
D11*
%TO.P,RV1,*%
%TO.N,*%
X137840000Y-92390000D03*
X146640000Y-92390000D03*
D12*
%TO.P,RV1,1,1*%
%TO.N,+3.3V*%
X139740000Y-85390000D03*
%TO.P,RV1,2,2*%
%TO.N,Net-(RV1-Pad2)*%
X142240000Y-85390000D03*
%TO.P,RV1,3,3*%
%TO.N,GND*%
X144740000Y-85390000D03*
%TD*%
D13*
%TO.P,SW1,1,1*%
%TO.N,GND*%
X111454000Y-93182000D03*
X104954000Y-93182000D03*
%TO.P,SW1,2,2*%
%TO.N,Net-(SW1-Pad2)*%
X104954000Y-88682000D03*
X111454000Y-88682000D03*
%TD*%
D10*
%TO.P,TP1,1,1*%
%TO.N,GND*%
X115316000Y-99715977D03*
%TD*%
D14*
%TO.P,REF\u002A\u002A,1*%
%TO.N,N/C*%
X144272000Y-76855977D03*
%TD*%
D15*
%TO.P,J1,1,Pin_1*%
%TO.N,GND*%
X108188000Y-62671977D03*
D16*
%TO.P,J1,2,Pin_2*%
%TO.N,+3.3V*%
X108188000Y-67671977D03*
%TD*%
D10*
%TO.P,BZ1,1,-*%
%TO.N,Net-(BZ1-Pad1)*%
X141732000Y-64516000D03*
D13*
%TO.P,BZ1,2,+*%
%TO.N,GND*%
X141732000Y-59516000D03*
%TD*%
D17*
%TO.N,+3.3V*%
X116840000Y-74168000D03*
X121412000Y-74168000D03*
%TD*%
%TA.AperFunction,Conductor*%
%TO.N,+3.3V*%
G36*
X141194020Y-52398205D02*
G01*
X141208125Y-52400401D01*
X141208328Y-52400433D01*
X141217724Y-52401896D01*
X141226626Y-52400732D01*
X141226628Y-52400732D01*
X141234424Y-52399712D01*
X141240837Y-52398874D01*
X141261129Y-52397872D01*
X141826065Y-52415626D01*
X141833965Y-52416123D01*
X142175432Y-52448401D01*
X142429719Y-52472438D01*
X142437554Y-52473428D01*
X143028604Y-52567041D01*
X143036372Y-52568524D01*
X143620372Y-52699064D01*
X143628039Y-52701032D01*
X143903338Y-52781013D01*
X144202687Y-52867982D01*
X144210190Y-52870420D01*
X144773243Y-53073131D01*
X144780571Y-53076033D01*
X145329787Y-53313700D01*
X145336919Y-53317056D01*
X145670713Y-53487132D01*
X145870128Y-53588739D01*
X145877064Y-53592553D01*
X146392113Y-53897153D01*
X146398796Y-53901394D01*
X146893732Y-54237752D01*
X146900136Y-54242405D01*
X147372972Y-54609175D01*
X147379071Y-54614220D01*
X147827932Y-55009943D01*
X147833703Y-55015362D01*
X148256842Y-55438502D01*
X148262260Y-55444272D01*
X148657983Y-55893133D01*
X148663028Y-55899232D01*
X149029803Y-56372075D01*
X149034456Y-56378479D01*
X149370796Y-56873389D01*
X149375038Y-56880072D01*
X149679656Y-57395153D01*
X149683469Y-57402089D01*
X149955146Y-57935285D01*
X149958509Y-57942433D01*
X150196161Y-58491618D01*
X150199075Y-58498977D01*
X150246534Y-58630798D01*
X150398615Y-59053218D01*
X150401777Y-59062002D01*
X150404219Y-59069518D01*
X150466597Y-59284223D01*
X150571170Y-59644166D01*
X150573139Y-59651833D01*
X150695309Y-60198389D01*
X150703678Y-60235832D01*
X150705160Y-60243600D01*
X150730789Y-60405416D01*
X150798772Y-60834643D01*
X150799764Y-60842497D01*
X150856077Y-61438240D01*
X150856574Y-61446139D01*
X150874091Y-62003531D01*
X150872653Y-62026874D01*
X150871690Y-62033056D01*
X150871690Y-62033060D01*
X150870309Y-62041929D01*
X150871473Y-62050831D01*
X150871473Y-62050833D01*
X150874436Y-62073488D01*
X150875500Y-62089826D01*
X150875500Y-95822616D01*
X150855498Y-95890737D01*
X150838890Y-95911416D01*
X144721401Y-102069541D01*
X144659202Y-102103772D01*
X144632014Y-102106741D01*
X129557403Y-102107079D01*
X110865563Y-102107499D01*
X110846185Y-102106000D01*
X110832080Y-102103804D01*
X110831351Y-102103690D01*
X110822481Y-102102309D01*
X110813579Y-102103473D01*
X110813577Y-102103473D01*
X110805781Y-102104493D01*
X110799368Y-102105331D01*
X110779076Y-102106333D01*
X110214139Y-102088579D01*
X110206240Y-102088082D01*
X109610497Y-102031769D01*
X109602643Y-102030777D01*
X109532745Y-102019706D01*
X109011599Y-101937165D01*
X109003831Y-101935682D01*
X108419831Y-101805142D01*
X108412164Y-101803174D01*
X108136865Y-101723193D01*
X107837516Y-101636224D01*
X107830013Y-101633786D01*
X107548488Y-101532431D01*
X107266975Y-101431080D01*
X107259616Y-101428166D01*
X106710431Y-101190514D01*
X106703283Y-101187151D01*
X106170086Y-100915473D01*
X106163150Y-100911660D01*
X105913658Y-100764111D01*
X113807500Y-100764111D01*
X113814255Y-100826293D01*
X113865385Y-100962682D01*
X113952739Y-101079238D01*
X114069295Y-101166592D01*
X114205684Y-101217722D01*
X114267866Y-101224477D01*
X116364134Y-101224477D01*
X116426316Y-101217722D01*
X116562705Y-101166592D01*
X116679261Y-101079238D01*
X116766615Y-100962682D01*
X116817745Y-100826293D01*
X116824500Y-100764111D01*
X131079500Y-100764111D01*
X131086255Y-100826293D01*
X131137385Y-100962682D01*
X131224739Y-101079238D01*
X131341295Y-101166592D01*
X131477684Y-101217722D01*
X131539866Y-101224477D01*
X133636134Y-101224477D01*
X133698316Y-101217722D01*
X133834705Y-101166592D01*
X133951261Y-101079238D01*
X134038615Y-100962682D01*
X134089745Y-100826293D01*
X134096500Y-100764111D01*
X134096500Y-98667843D01*
X134089745Y-98605661D01*
X134038615Y-98469272D01*
X133951261Y-98352716D01*
X133834705Y-98265362D01*
X133698316Y-98214232D01*
X133636134Y-98207477D01*
X131539866Y-98207477D01*
X131477684Y-98214232D01*
X131341295Y-98265362D01*
X131224739Y-98352716D01*
X131137385Y-98469272D01*
X131086255Y-98605661D01*
X131079500Y-98667843D01*
X131079500Y-100764111D01*
X116824500Y-100764111D01*
X116824500Y-98667843D01*
X116817745Y-98605661D01*
X116766615Y-98469272D01*
X116679261Y-98352716D01*
X116562705Y-98265362D01*
X116426316Y-98214232D01*
X116364134Y-98207477D01*
X114267866Y-98207477D01*
X114205684Y-98214232D01*
X114069295Y-98265362D01*
X113952739Y-98352716D01*
X113865385Y-98469272D01*
X113814255Y-98605661D01*
X113807500Y-98667843D01*
X113807500Y-100764111D01*
X105913658Y-100764111D01*
X105648076Y-100607047D01*
X105641392Y-100602805D01*
X105146468Y-100266455D01*
X105140065Y-100261803D01*
X105085235Y-100219272D01*
X104667228Y-99895033D01*
X104661129Y-99889987D01*
X104212260Y-99494256D01*
X104206490Y-99488837D01*
X103783366Y-99065713D01*
X103777947Y-99059943D01*
X103574770Y-98829484D01*
X103382203Y-98611059D01*
X103377181Y-98604990D01*
X103010395Y-98132132D01*
X103005748Y-98125736D01*
X102669387Y-97630796D01*
X102665165Y-97624144D01*
X102360542Y-97109054D01*
X102356729Y-97102118D01*
X102143364Y-96683367D01*
X102085051Y-96568921D01*
X102081695Y-96561789D01*
X101844029Y-96012574D01*
X101841127Y-96005244D01*
X101638415Y-95442191D01*
X101635973Y-95434676D01*
X101469027Y-94860040D01*
X101467059Y-94852373D01*
X101336519Y-94268373D01*
X101335035Y-94260598D01*
X101241423Y-93669555D01*
X101240432Y-93661711D01*
X101195086Y-93182000D01*
X103440835Y-93182000D01*
X103459465Y-93418711D01*
X103514895Y-93649594D01*
X103605760Y-93868963D01*
X103608346Y-93873183D01*
X103727241Y-94067202D01*
X103727245Y-94067208D01*
X103729824Y-94071416D01*
X103884031Y-94251969D01*
X104064584Y-94406176D01*
X104068792Y-94408755D01*
X104068798Y-94408759D01*
X104262817Y-94527654D01*
X104267037Y-94530240D01*
X104271607Y-94532133D01*
X104271611Y-94532135D01*
X104481833Y-94619211D01*
X104486406Y-94621105D01*
X104566609Y-94640360D01*
X104712476Y-94675380D01*
X104712482Y-94675381D01*
X104717289Y-94676535D01*
X104954000Y-94695165D01*
X105190711Y-94676535D01*
X105195518Y-94675381D01*
X105195524Y-94675380D01*
X105341391Y-94640360D01*
X105421594Y-94621105D01*
X105426167Y-94619211D01*
X105636389Y-94532135D01*
X105636393Y-94532133D01*
X105640963Y-94530240D01*
X105645183Y-94527654D01*
X105839202Y-94408759D01*
X105839208Y-94408755D01*
X105843416Y-94406176D01*
X106023969Y-94251969D01*
X106178176Y-94071416D01*
X106180755Y-94067208D01*
X106180759Y-94067202D01*
X106299654Y-93873183D01*
X106302240Y-93868963D01*
X106393105Y-93649594D01*
X106448535Y-93418711D01*
X106467165Y-93182000D01*
X109940835Y-93182000D01*
X109959465Y-93418711D01*
X110014895Y-93649594D01*
X110105760Y-93868963D01*
X110108346Y-93873183D01*
X110227241Y-94067202D01*
X110227245Y-94067208D01*
X110229824Y-94071416D01*
X110384031Y-94251969D01*
X110564584Y-94406176D01*
X110568792Y-94408755D01*
X110568798Y-94408759D01*
X110762817Y-94527654D01*
X110767037Y-94530240D01*
X110771607Y-94532133D01*
X110771611Y-94532135D01*
X110981833Y-94619211D01*
X110986406Y-94621105D01*
X111066609Y-94640360D01*
X111212476Y-94675380D01*
X111212482Y-94675381D01*
X111217289Y-94676535D01*
X111454000Y-94695165D01*
X111690711Y-94676535D01*
X111695518Y-94675381D01*
X111695524Y-94675380D01*
X111841391Y-94640360D01*
X111921594Y-94621105D01*
X111926167Y-94619211D01*
X112136389Y-94532135D01*
X112136393Y-94532133D01*
X112140963Y-94530240D01*
X112145183Y-94527654D01*
X112339202Y-94408759D01*
X112339208Y-94408755D01*
X112343416Y-94406176D01*
X112523969Y-94251969D01*
X112678176Y-94071416D01*
X112680755Y-94067208D01*
X112680759Y-94067202D01*
X112799654Y-93873183D01*
X112802240Y-93868963D01*
X112893105Y-93649594D01*
X112948535Y-93418711D01*
X112967165Y-93182000D01*
X112948535Y-92945289D01*
X112893105Y-92714406D01*
X112802240Y-92495037D01*
X112770626Y-92443448D01*
X112737873Y-92390000D01*
X135326540Y-92390000D01*
X135346359Y-92705020D01*
X135405505Y-93015072D01*
X135503044Y-93315266D01*
X135504731Y-93318852D01*
X135504733Y-93318856D01*
X135635750Y-93597283D01*
X135635754Y-93597290D01*
X135637438Y-93600869D01*
X135806568Y-93867375D01*
X136007767Y-94110582D01*
X136237860Y-94326654D01*
X136493221Y-94512184D01*
X136496690Y-94514091D01*
X136496693Y-94514093D01*
X136687901Y-94619211D01*
X136769821Y-94664247D01*
X136773490Y-94665700D01*
X136773495Y-94665702D01*
X137059628Y-94778990D01*
X137063298Y-94780443D01*
X137369025Y-94858940D01*
X137682179Y-94898500D01*
X137997821Y-94898500D01*
X138310975Y-94858940D01*
X138616702Y-94780443D01*
X138620372Y-94778990D01*
X138906505Y-94665702D01*
X138906510Y-94665700D01*
X138910179Y-94664247D01*
X138992099Y-94619211D01*
X139183307Y-94514093D01*
X139183310Y-94514091D01*
X139186779Y-94512184D01*
X139442140Y-94326654D01*
X139672233Y-94110582D01*
X139873432Y-93867375D01*
X140042562Y-93600869D01*
X140044246Y-93597290D01*
X140044250Y-93597283D01*
X140175267Y-93318856D01*
X140175269Y-93318852D01*
X140176956Y-93315266D01*
X140274495Y-93015072D01*
X140333641Y-92705020D01*
X140353460Y-92390000D01*
X144126540Y-92390000D01*
X144146359Y-92705020D01*
X144205505Y-93015072D01*
X144303044Y-93315266D01*
X144304731Y-93318852D01*
X144304733Y-93318856D01*
X144435750Y-93597283D01*
X144435754Y-93597290D01*
X144437438Y-93600869D01*
X144606568Y-93867375D01*
X144807767Y-94110582D01*
X145037860Y-94326654D01*
X145293221Y-94512184D01*
X145296690Y-94514091D01*
X145296693Y-94514093D01*
X145487901Y-94619211D01*
X145569821Y-94664247D01*
X145573490Y-94665700D01*
X145573495Y-94665702D01*
X145859628Y-94778990D01*
X145863298Y-94780443D01*
X146169025Y-94858940D01*
X146482179Y-94898500D01*
X146797821Y-94898500D01*
X147110975Y-94858940D01*
X147416702Y-94780443D01*
X147420372Y-94778990D01*
X147706505Y-94665702D01*
X147706510Y-94665700D01*
X147710179Y-94664247D01*
X147792099Y-94619211D01*
X147983307Y-94514093D01*
X147983310Y-94514091D01*
X147986779Y-94512184D01*
X148242140Y-94326654D01*
X148472233Y-94110582D01*
X148673432Y-93867375D01*
X148842562Y-93600869D01*
X148844246Y-93597290D01*
X148844250Y-93597283D01*
X148975267Y-93318856D01*
X148975269Y-93318852D01*
X148976956Y-93315266D01*
X149074495Y-93015072D01*
X149133641Y-92705020D01*
X149153460Y-92390000D01*
X149133641Y-92074980D01*
X149074495Y-91764928D01*
X148976956Y-91464734D01*
X148975267Y-91461144D01*
X148844250Y-91182717D01*
X148844246Y-91182710D01*
X148842562Y-91179131D01*
X148673432Y-90912625D01*
X148472233Y-90669418D01*
X148242140Y-90453346D01*
X147986779Y-90267816D01*
X147853923Y-90194777D01*
X147713648Y-90117660D01*
X147713647Y-90117659D01*
X147710179Y-90115753D01*
X147706510Y-90114300D01*
X147706505Y-90114298D01*
X147420372Y-90001010D01*
X147420371Y-90001010D01*
X147416702Y-89999557D01*
X147110975Y-89921060D01*
X146797821Y-89881500D01*
X146482179Y-89881500D01*
X146169025Y-89921060D01*
X145863298Y-89999557D01*
X145859629Y-90001010D01*
X145859628Y-90001010D01*
X145573495Y-90114298D01*
X145573490Y-90114300D01*
X145569821Y-90115753D01*
X145566353Y-90117659D01*
X145566352Y-90117660D01*
X145426078Y-90194777D01*
X145293221Y-90267816D01*
X145037860Y-90453346D01*
X144807767Y-90669418D01*
X144606568Y-90912625D01*
X144437438Y-91179131D01*
X144435754Y-91182710D01*
X144435750Y-91182717D01*
X144304733Y-91461144D01*
X144303044Y-91464734D01*
X144205505Y-91764928D01*
X144146359Y-92074980D01*
X144126540Y-92390000D01*
X140353460Y-92390000D01*
X140333641Y-92074980D01*
X140274495Y-91764928D01*
X140176956Y-91464734D01*
X140175267Y-91461144D01*
X140044250Y-91182717D01*
X140044246Y-91182710D01*
X140042562Y-91179131D01*
X139873432Y-90912625D01*
X139672233Y-90669418D01*
X139442140Y-90453346D01*
X139186779Y-90267816D01*
X139053923Y-90194777D01*
X138913648Y-90117660D01*
X138913647Y-90117659D01*
X138910179Y-90115753D01*
X138906510Y-90114300D01*
X138906505Y-90114298D01*
X138620372Y-90001010D01*
X138620371Y-90001010D01*
X138616702Y-89999557D01*
X138310975Y-89921060D01*
X137997821Y-89881500D01*
X137682179Y-89881500D01*
X137369025Y-89921060D01*
X137063298Y-89999557D01*
X137059629Y-90001010D01*
X137059628Y-90001010D01*
X136773495Y-90114298D01*
X136773490Y-90114300D01*
X136769821Y-90115753D01*
X136766353Y-90117659D01*
X136766352Y-90117660D01*
X136626078Y-90194777D01*
X136493221Y-90267816D01*
X136237860Y-90453346D01*
X136007767Y-90669418D01*
X135806568Y-90912625D01*
X135637438Y-91179131D01*
X135635754Y-91182710D01*
X135635750Y-91182717D01*
X135504733Y-91461144D01*
X135503044Y-91464734D01*
X135405505Y-91764928D01*
X135346359Y-92074980D01*
X135326540Y-92390000D01*
X112737873Y-92390000D01*
X112680759Y-92296798D01*
X112680755Y-92296792D01*
X112678176Y-92292584D01*
X112523969Y-92112031D01*
X112343416Y-91957824D01*
X112339208Y-91955245D01*
X112339202Y-91955241D01*
X112145183Y-91836346D01*
X112140963Y-91833760D01*
X112136393Y-91831867D01*
X112136389Y-91831865D01*
X111926167Y-91744789D01*
X111926165Y-91744788D01*
X111921594Y-91742895D01*
X111841391Y-91723640D01*
X111695524Y-91688620D01*
X111695518Y-91688619D01*
X111690711Y-91687465D01*
X111454000Y-91668835D01*
X111217289Y-91687465D01*
X111212482Y-91688619D01*
X111212476Y-91688620D01*
X111066609Y-91723640D01*
X110986406Y-91742895D01*
X110981835Y-91744788D01*
X110981833Y-91744789D01*
X110771611Y-91831865D01*
X110771607Y-91831867D01*
X110767037Y-91833760D01*
X110762817Y-91836346D01*
X110568798Y-91955241D01*
X110568792Y-91955245D01*
X110564584Y-91957824D01*
X110384031Y-92112031D01*
X110229824Y-92292584D01*
X110227245Y-92296792D01*
X110227241Y-92296798D01*
X110137374Y-92443448D01*
X110105760Y-92495037D01*
X110014895Y-92714406D01*
X109959465Y-92945289D01*
X109940835Y-93182000D01*
X106467165Y-93182000D01*
X106448535Y-92945289D01*
X106393105Y-92714406D01*
X106302240Y-92495037D01*
X106270626Y-92443448D01*
X106180759Y-92296798D01*
X106180755Y-92296792D01*
X106178176Y-92292584D01*
X106023969Y-92112031D01*
X105843416Y-91957824D01*
X105839208Y-91955245D01*
X105839202Y-91955241D01*
X105645183Y-91836346D01*
X105640963Y-91833760D01*
X105636393Y-91831867D01*
X105636389Y-91831865D01*
X105426167Y-91744789D01*
X105426165Y-91744788D01*
X105421594Y-91742895D01*
X105341391Y-91723640D01*
X105195524Y-91688620D01*
X105195518Y-91688619D01*
X105190711Y-91687465D01*
X104954000Y-91668835D01*
X104717289Y-91687465D01*
X104712482Y-91688619D01*
X104712476Y-91688620D01*
X104566609Y-91723640D01*
X104486406Y-91742895D01*
X104481835Y-91744788D01*
X104481833Y-91744789D01*
X104271611Y-91831865D01*
X104271607Y-91831867D01*
X104267037Y-91833760D01*
X104262817Y-91836346D01*
X104068798Y-91955241D01*
X104068792Y-91955245D01*
X104064584Y-91957824D01*
X103884031Y-92112031D01*
X103729824Y-92292584D01*
X103727245Y-92296792D01*
X103727241Y-92296798D01*
X103637374Y-92443448D01*
X103605760Y-92495037D01*
X103514895Y-92714406D01*
X103459465Y-92945289D01*
X103440835Y-93182000D01*
X101195086Y-93182000D01*
X101184118Y-93065965D01*
X101183621Y-93058065D01*
X101166106Y-92500725D01*
X101167544Y-92477384D01*
X101168515Y-92471150D01*
X101168515Y-92471145D01*
X101169896Y-92462276D01*
X101165769Y-92430714D01*
X101164705Y-92414379D01*
X101164705Y-88682000D01*
X103440835Y-88682000D01*
X103459465Y-88918711D01*
X103514895Y-89149594D01*
X103605760Y-89368963D01*
X103608346Y-89373183D01*
X103727241Y-89567202D01*
X103727245Y-89567208D01*
X103729824Y-89571416D01*
X103884031Y-89751969D01*
X104064584Y-89906176D01*
X104068792Y-89908755D01*
X104068798Y-89908759D01*
X104215366Y-89998576D01*
X104267037Y-90030240D01*
X104271607Y-90032133D01*
X104271611Y-90032135D01*
X104469972Y-90114298D01*
X104486406Y-90121105D01*
X104566609Y-90140360D01*
X104712476Y-90175380D01*
X104712482Y-90175381D01*
X104717289Y-90176535D01*
X104954000Y-90195165D01*
X105190711Y-90176535D01*
X105195518Y-90175381D01*
X105195524Y-90175380D01*
X105341391Y-90140360D01*
X105421594Y-90121105D01*
X105438028Y-90114298D01*
X105636389Y-90032135D01*
X105636393Y-90032133D01*
X105640963Y-90030240D01*
X105692634Y-89998576D01*
X105839202Y-89908759D01*
X105839208Y-89908755D01*
X105843416Y-89906176D01*
X106023969Y-89751969D01*
X106178176Y-89571416D01*
X106180755Y-89567208D01*
X106180759Y-89567202D01*
X106299654Y-89373183D01*
X106302240Y-89368963D01*
X106393105Y-89149594D01*
X106448535Y-88918711D01*
X106467165Y-88682000D01*
X109940835Y-88682000D01*
X109959465Y-88918711D01*
X110014895Y-89149594D01*
X110105760Y-89368963D01*
X110108346Y-89373183D01*
X110227241Y-89567202D01*
X110227245Y-89567208D01*
X110229824Y-89571416D01*
X110384031Y-89751969D01*
X110564584Y-89906176D01*
X110568792Y-89908755D01*
X110568798Y-89908759D01*
X110715366Y-89998576D01*
X110767037Y-90030240D01*
X110771607Y-90032133D01*
X110771611Y-90032135D01*
X110969972Y-90114298D01*
X110986406Y-90121105D01*
X111066609Y-90140360D01*
X111212476Y-90175380D01*
X111212482Y-90175381D01*
X111217289Y-90176535D01*
X111454000Y-90195165D01*
X111690711Y-90176535D01*
X111695518Y-90175381D01*
X111695524Y-90175380D01*
X111841391Y-90140360D01*
X111921594Y-90121105D01*
X111938028Y-90114298D01*
X112136389Y-90032135D01*
X112136393Y-90032133D01*
X112140963Y-90030240D01*
X112192634Y-89998576D01*
X112339202Y-89908759D01*
X112339208Y-89908755D01*
X112343416Y-89906176D01*
X112523969Y-89751969D01*
X112678176Y-89571416D01*
X112680755Y-89567208D01*
X112680759Y-89567202D01*
X112799654Y-89373183D01*
X112802240Y-89368963D01*
X112893105Y-89149594D01*
X112948535Y-88918711D01*
X112967165Y-88682000D01*
X112948535Y-88445289D01*
X112893105Y-88214406D01*
X112802240Y-87995037D01*
X112799654Y-87990817D01*
X112680759Y-87796798D01*
X112680755Y-87796792D01*
X112678176Y-87792584D01*
X112523969Y-87612031D01*
X112343416Y-87457824D01*
X112339208Y-87455245D01*
X112339202Y-87455241D01*
X112145183Y-87336346D01*
X112140963Y-87333760D01*
X112136393Y-87331867D01*
X112136389Y-87331865D01*
X111926167Y-87244789D01*
X111926165Y-87244788D01*
X111921594Y-87242895D01*
X111841391Y-87223640D01*
X111695524Y-87188620D01*
X111695518Y-87188619D01*
X111690711Y-87187465D01*
X111454000Y-87168835D01*
X111217289Y-87187465D01*
X111212482Y-87188619D01*
X111212476Y-87188620D01*
X111066609Y-87223640D01*
X110986406Y-87242895D01*
X110981835Y-87244788D01*
X110981833Y-87244789D01*
X110771611Y-87331865D01*
X110771607Y-87331867D01*
X110767037Y-87333760D01*
X110762817Y-87336346D01*
X110568798Y-87455241D01*
X110568792Y-87455245D01*
X110564584Y-87457824D01*
X110384031Y-87612031D01*
X110229824Y-87792584D01*
X110227245Y-87796792D01*
X110227241Y-87796798D01*
X110108346Y-87990817D01*
X110105760Y-87995037D01*
X110014895Y-88214406D01*
X109959465Y-88445289D01*
X109940835Y-88682000D01*
X106467165Y-88682000D01*
X106448535Y-88445289D01*
X106393105Y-88214406D01*
X106302240Y-87995037D01*
X106299654Y-87990817D01*
X106180759Y-87796798D01*
X106180755Y-87796792D01*
X106178176Y-87792584D01*
X106023969Y-87612031D01*
X105843416Y-87457824D01*
X105839208Y-87455245D01*
X105839202Y-87455241D01*
X105645183Y-87336346D01*
X105640963Y-87333760D01*
X105636393Y-87331867D01*
X105636389Y-87331865D01*
X105426167Y-87244789D01*
X105426165Y-87244788D01*
X105421594Y-87242895D01*
X105341391Y-87223640D01*
X105195524Y-87188620D01*
X105195518Y-87188619D01*
X105190711Y-87187465D01*
X104954000Y-87168835D01*
X104717289Y-87187465D01*
X104712482Y-87188619D01*
X104712476Y-87188620D01*
X104566609Y-87223640D01*
X104486406Y-87242895D01*
X104481835Y-87244788D01*
X104481833Y-87244789D01*
X104271611Y-87331865D01*
X104271607Y-87331867D01*
X104267037Y-87333760D01*
X104262817Y-87336346D01*
X104068798Y-87455241D01*
X104068792Y-87455245D01*
X104064584Y-87457824D01*
X103884031Y-87612031D01*
X103729824Y-87792584D01*
X103727245Y-87796792D01*
X103727241Y-87796798D01*
X103608346Y-87990817D01*
X103605760Y-87995037D01*
X103514895Y-88214406D01*
X103459465Y-88445289D01*
X103440835Y-88682000D01*
X101164705Y-88682000D01*
X101164705Y-86551406D01*
X138943423Y-86551406D01*
X138948704Y-86558461D01*
X139125080Y-86661527D01*
X139134363Y-86665974D01*
X139341003Y-86744883D01*
X139350901Y-86747759D01*
X139567653Y-86791857D01*
X139577883Y-86793076D01*
X139798914Y-86801182D01*
X139809223Y-86800714D01*
X140028623Y-86772608D01*
X140038688Y-86770468D01*
X140250557Y-86706905D01*
X140260152Y-86703144D01*
X140458778Y-86605838D01*
X140467636Y-86600559D01*
X140525097Y-86559572D01*
X140533497Y-86548874D01*
X140526510Y-86535721D01*
X139752811Y-85762021D01*
X139738868Y-85754408D01*
X139737034Y-85754539D01*
X139730420Y-85758790D01*
X138950180Y-86539031D01*
X138943423Y-86551406D01*
X101164705Y-86551406D01*
X101164705Y-85360638D01*
X138327893Y-85360638D01*
X138340627Y-85581468D01*
X138342061Y-85591670D01*
X138390685Y-85807439D01*
X138393773Y-85817292D01*
X138476986Y-86022220D01*
X138481634Y-86031421D01*
X138570097Y-86175781D01*
X138580553Y-86185242D01*
X138589331Y-86181458D01*
X139367979Y-85402811D01*
X139374356Y-85391132D01*
X140104408Y-85391132D01*
X140104539Y-85392966D01*
X140108790Y-85399580D01*
X140886307Y-86177096D01*
X140898313Y-86183652D01*
X140907244Y-86176829D01*
X140973519Y-86151370D01*
X141043037Y-86165783D01*
X141091165Y-86211117D01*
X141096800Y-86220311D01*
X141099501Y-86224719D01*
X141251147Y-86399784D01*
X141429349Y-86547730D01*
X141629322Y-86664584D01*
X141845694Y-86747209D01*
X141850760Y-86748240D01*
X141850761Y-86748240D01*
X141903846Y-86759040D01*
X142072656Y-86793385D01*
X142203324Y-86798176D01*
X142298949Y-86801683D01*
X142298953Y-86801683D01*
X142304113Y-86801872D01*
X142309233Y-86801216D01*
X142309235Y-86801216D01*
X142382291Y-86791857D01*
X142533847Y-86772442D01*
X142538795Y-86770957D01*
X142538802Y-86770956D01*
X142750747Y-86707369D01*
X142755690Y-86705886D01*
X142837161Y-86665974D01*
X142959049Y-86606262D01*
X142959052Y-86606260D01*
X142963684Y-86603991D01*
X143152243Y-86469494D01*
X143316303Y-86306005D01*
X143385370Y-86209888D01*
X143441365Y-86166240D01*
X143512068Y-86159794D01*
X143575033Y-86192597D01*
X143595128Y-86217584D01*
X143596799Y-86220311D01*
X143596802Y-86220315D01*
X143599501Y-86224719D01*
X143751147Y-86399784D01*
X143929349Y-86547730D01*
X144129322Y-86664584D01*
X144345694Y-86747209D01*
X144350760Y-86748240D01*
X144350761Y-86748240D01*
X144403846Y-86759040D01*
X144572656Y-86793385D01*
X144703324Y-86798176D01*
X144798949Y-86801683D01*
X144798953Y-86801683D01*
X144804113Y-86801872D01*
X144809233Y-86801216D01*
X144809235Y-86801216D01*
X144882291Y-86791857D01*
X145033847Y-86772442D01*
X145038795Y-86770957D01*
X145038802Y-86770956D01*
X145250747Y-86707369D01*
X145255690Y-86705886D01*
X145337161Y-86665974D01*
X145459049Y-86606262D01*
X145459052Y-86606260D01*
X145463684Y-86603991D01*
X145652243Y-86469494D01*
X145816303Y-86306005D01*
X145951458Y-86117917D01*
X146054078Y-85910280D01*
X146121408Y-85688671D01*
X146151640Y-85459041D01*
X146153327Y-85390000D01*
X146147032Y-85313434D01*
X146134773Y-85164318D01*
X146134772Y-85164312D01*
X146134349Y-85159167D01*
X146100797Y-85025592D01*
X146079184Y-84939544D01*
X146079183Y-84939540D01*
X146077925Y-84934533D01*
X145985570Y-84722131D01*
X145859764Y-84527665D01*
X145703887Y-84356358D01*
X145699836Y-84353159D01*
X145699832Y-84353155D01*
X145526177Y-84216011D01*
X145526172Y-84216008D01*
X145522123Y-84212810D01*
X145517607Y-84210317D01*
X145517604Y-84210315D01*
X145323879Y-84103373D01*
X145323875Y-84103371D01*
X145319355Y-84100876D01*
X145314486Y-84099152D01*
X145314482Y-84099150D01*
X145105903Y-84025288D01*
X145105899Y-84025287D01*
X145101028Y-84023562D01*
X145095935Y-84022655D01*
X145095932Y-84022654D01*
X144878095Y-83983851D01*
X144878089Y-83983850D01*
X144873006Y-83982945D01*
X144800096Y-83982054D01*
X144646581Y-83980179D01*
X144646579Y-83980179D01*
X144641411Y-83980116D01*
X144412464Y-84015150D01*
X144192314Y-84087106D01*
X144187726Y-84089494D01*
X144187722Y-84089496D01*
X143991461Y-84191663D01*
X143986872Y-84194052D01*
X143982739Y-84197155D01*
X143982736Y-84197157D01*
X143923284Y-84241795D01*
X143801655Y-84333117D01*
X143641639Y-84500564D01*
X143594836Y-84569174D01*
X143539927Y-84614175D01*
X143469402Y-84622346D01*
X143405655Y-84591092D01*
X143384959Y-84566609D01*
X143362577Y-84532013D01*
X143362574Y-84532009D01*
X143359764Y-84527665D01*
X143203887Y-84356358D01*
X143199836Y-84353159D01*
X143199832Y-84353155D01*
X143026177Y-84216011D01*
X143026172Y-84216008D01*
X143022123Y-84212810D01*
X143017607Y-84210317D01*
X143017604Y-84210315D01*
X142823879Y-84103373D01*
X142823875Y-84103371D01*
X142819355Y-84100876D01*
X142814486Y-84099152D01*
X142814482Y-84099150D01*
X142605903Y-84025288D01*
X142605899Y-84025287D01*
X142601028Y-84023562D01*
X142595935Y-84022655D01*
X142595932Y-84022654D01*
X142378095Y-83983851D01*
X142378089Y-83983850D01*
X142373006Y-83982945D01*
X142300096Y-83982054D01*
X142146581Y-83980179D01*
X142146579Y-83980179D01*
X142141411Y-83980116D01*
X141912464Y-84015150D01*
X141692314Y-84087106D01*
X141687726Y-84089494D01*
X141687722Y-84089496D01*
X141491461Y-84191663D01*
X141486872Y-84194052D01*
X141482739Y-84197155D01*
X141482736Y-84197157D01*
X141423284Y-84241795D01*
X141301655Y-84333117D01*
X141141639Y-84500564D01*
X141138730Y-84504829D01*
X141138724Y-84504837D01*
X141090199Y-84575972D01*
X141035288Y-84620975D01*
X140964763Y-84629146D01*
X140903884Y-84600439D01*
X140898538Y-84595835D01*
X140888973Y-84600238D01*
X140112021Y-85377189D01*
X140104408Y-85391132D01*
X139374356Y-85391132D01*
X139375592Y-85388868D01*
X139375461Y-85387034D01*
X139371210Y-85380420D01*
X138593862Y-84603073D01*
X138582330Y-84596776D01*
X138570048Y-84606399D01*
X138514467Y-84687877D01*
X138509379Y-84696833D01*
X138416252Y-84897459D01*
X138412689Y-84907146D01*
X138353581Y-85120280D01*
X138351650Y-85130400D01*
X138328145Y-85350349D01*
X138327893Y-85360638D01*
X101164705Y-85360638D01*
X101164705Y-84230711D01*
X138945508Y-84230711D01*
X138952251Y-84243040D01*
X139727189Y-85017979D01*
X139741132Y-85025592D01*
X139742966Y-85025461D01*
X139749580Y-85021210D01*
X140528994Y-84241795D01*
X140536011Y-84228944D01*
X140528237Y-84218274D01*
X140525902Y-84216430D01*
X140517320Y-84210729D01*
X140323678Y-84103833D01*
X140314272Y-84099606D01*
X140105772Y-84025772D01*
X140095809Y-84023140D01*
X139878047Y-83984350D01*
X139867796Y-83983381D01*
X139646616Y-83980679D01*
X139636332Y-83981399D01*
X139417693Y-84014855D01*
X139407666Y-84017244D01*
X139197426Y-84085961D01*
X139187916Y-84089958D01*
X138991725Y-84192089D01*
X138983007Y-84197578D01*
X138953961Y-84219386D01*
X138945508Y-84230711D01*
X101164705Y-84230711D01*
X101164705Y-76855977D01*
X140558411Y-76855977D01*
X140578754Y-77244153D01*
X140639562Y-77628076D01*
X140740167Y-78003539D01*
X140879468Y-78366430D01*
X141055938Y-78712771D01*
X141267643Y-79038770D01*
X141512266Y-79340853D01*
X141787124Y-79615711D01*
X142089207Y-79860334D01*
X142415205Y-80072039D01*
X142418139Y-80073534D01*
X142418146Y-80073538D01*
X142758607Y-80247011D01*
X142761547Y-80248509D01*
X143124438Y-80387810D01*
X143499901Y-80488415D01*
X143703793Y-80520709D01*
X143880576Y-80548709D01*
X143880584Y-80548710D01*
X143883824Y-80549223D01*
X144272000Y-80569566D01*
X144660176Y-80549223D01*
X144663416Y-80548710D01*
X144663424Y-80548709D01*
X144840207Y-80520709D01*
X145044099Y-80488415D01*
X145419562Y-80387810D01*
X145782453Y-80248509D01*
X145785393Y-80247011D01*
X146125854Y-80073538D01*
X146125861Y-80073534D01*
X146128795Y-80072039D01*
X146454793Y-79860334D01*
X146756876Y-79615711D01*
X147031734Y-79340853D01*
X147276357Y-79038770D01*
X147488062Y-78712771D01*
X147664532Y-78366430D01*
X147803833Y-78003539D01*
X147904438Y-77628076D01*
X147965246Y-77244153D01*
X147985589Y-76855977D01*
X147965246Y-76467801D01*
X147904438Y-76083878D01*
X147803833Y-75708415D01*
X147664532Y-75345524D01*
X147488062Y-74999183D01*
X147276357Y-74673184D01*
X147031734Y-74371101D01*
X146756876Y-74096243D01*
X146454793Y-73851620D01*
X146128795Y-73639915D01*
X146125861Y-73638420D01*
X146125854Y-73638416D01*
X145785393Y-73464943D01*
X145782453Y-73463445D01*
X145419562Y-73324144D01*
X145044099Y-73223539D01*
X144840207Y-73191245D01*
X144663424Y-73163245D01*
X144663416Y-73163244D01*
X144660176Y-73162731D01*
X144272000Y-73142388D01*
X143883824Y-73162731D01*
X143880584Y-73163244D01*
X143880576Y-73163245D01*
X143703793Y-73191245D01*
X143499901Y-73223539D01*
X143124438Y-73324144D01*
X142761547Y-73463445D01*
X142758607Y-73464943D01*
X142418147Y-73638416D01*
X142418140Y-73638420D01*
X142415206Y-73639915D01*
X142089207Y-73851620D01*
X141787124Y-74096243D01*
X141512266Y-74371101D01*
X141267643Y-74673184D01*
X141055938Y-74999183D01*
X140879468Y-75345524D01*
X140740167Y-75708415D01*
X140639562Y-76083878D01*
X140578754Y-76467801D01*
X140558411Y-76855977D01*
X101164705Y-76855977D01*
X101164705Y-69116883D01*
X107107839Y-69116883D01*
X107116553Y-69128404D01*
X107223452Y-69206786D01*
X107231351Y-69211722D01*
X107460905Y-69332496D01*
X107469454Y-69336213D01*
X107714327Y-69421726D01*
X107723336Y-69424140D01*
X107978166Y-69472521D01*
X107987423Y-69473575D01*
X108246607Y-69483760D01*
X108255921Y-69483434D01*
X108513753Y-69455197D01*
X108522930Y-69453496D01*
X108773758Y-69387458D01*
X108782574Y-69384422D01*
X109020880Y-69282039D01*
X109029167Y-69277725D01*
X109249718Y-69141243D01*
X109257268Y-69135757D01*
X109262559Y-69131278D01*
X109270997Y-69118474D01*
X109264935Y-69108122D01*
X108200812Y-68043999D01*
X108186868Y-68036385D01*
X108185035Y-68036516D01*
X108178420Y-68040767D01*
X107114497Y-69104690D01*
X107107839Y-69116883D01*
X101164705Y-69116883D01*
X101164705Y-67629188D01*
X106375775Y-67629188D01*
X106388220Y-67888265D01*
X106389356Y-67897520D01*
X106439961Y-68151922D01*
X106442449Y-68160894D01*
X106530095Y-68405010D01*
X106533895Y-68413545D01*
X106656658Y-68642019D01*
X106661666Y-68649881D01*
X106731720Y-68743693D01*
X106742979Y-68752142D01*
X106755397Y-68745370D01*
X107815978Y-67684789D01*
X107822356Y-67673109D01*
X108552408Y-67673109D01*
X108552539Y-67674942D01*
X108556790Y-67681557D01*
X109624094Y-68748861D01*
X109636474Y-68755621D01*
X109644815Y-68749377D01*
X109778832Y-68541025D01*
X109783275Y-68532841D01*
X109889807Y-68296347D01*
X109892997Y-68287582D01*
X109963402Y-68037949D01*
X109965262Y-68028807D01*
X109998187Y-67769996D01*
X109998668Y-67763710D01*
X110000987Y-67675137D01*
X110000836Y-67668828D01*
X109981501Y-67408640D01*
X109980125Y-67399434D01*
X109922878Y-67146444D01*
X109920154Y-67137533D01*
X109826143Y-66895783D01*
X109822132Y-66887374D01*
X109693422Y-66662179D01*
X109688211Y-66654453D01*
X109644996Y-66599635D01*
X109633071Y-66591164D01*
X109621537Y-66597650D01*
X108560022Y-67659165D01*
X108552408Y-67673109D01*
X107822356Y-67673109D01*
X107823592Y-67670845D01*
X107823461Y-67669012D01*
X107819210Y-67662397D01*
X106753816Y-66597003D01*
X106740507Y-66589735D01*
X106730472Y-66596855D01*
X106714937Y-66615533D01*
X106709531Y-66623112D01*
X106574965Y-66844868D01*
X106570736Y-66853169D01*
X106470432Y-67092366D01*
X106467471Y-67101216D01*
X106403628Y-67352602D01*
X106402006Y-67361799D01*
X106376020Y-67619862D01*
X106375775Y-67629188D01*
X101164705Y-67629188D01*
X101164705Y-66224666D01*
X107105102Y-66224666D01*
X107109675Y-66234442D01*
X108175188Y-67299955D01*
X108189132Y-67307569D01*
X108190965Y-67307438D01*
X108197580Y-67303187D01*
X109262349Y-66238418D01*
X109268733Y-66226728D01*
X109259321Y-66214618D01*
X109112045Y-66112448D01*
X109104010Y-66107715D01*
X108871376Y-65992993D01*
X108862743Y-65989505D01*
X108615703Y-65910427D01*
X108606643Y-65908251D01*
X108350630Y-65866557D01*
X108341343Y-65865745D01*
X108081992Y-65862350D01*
X108072681Y-65862920D01*
X107815682Y-65897896D01*
X107806546Y-65899837D01*
X107557543Y-65972416D01*
X107548800Y-65975684D01*
X107313252Y-66084273D01*
X107305097Y-66088793D01*
X107114240Y-66213924D01*
X107105102Y-66224666D01*
X101164705Y-66224666D01*
X101164705Y-65564134D01*
X140223500Y-65564134D01*
X140230255Y-65626316D01*
X140281385Y-65762705D01*
X140368739Y-65879261D01*
X140485295Y-65966615D01*
X140621684Y-66017745D01*
X140683866Y-66024500D01*
X142780134Y-66024500D01*
X142842316Y-66017745D01*
X142978705Y-65966615D01*
X143095261Y-65879261D01*
X143182615Y-65762705D01*
X143233745Y-65626316D01*
X143240500Y-65564134D01*
X143240500Y-63467866D01*
X143233745Y-63405684D01*
X143182615Y-63269295D01*
X143095261Y-63152739D01*
X142978705Y-63065385D01*
X142842316Y-63014255D01*
X142780134Y-63007500D01*
X140683866Y-63007500D01*
X140621684Y-63014255D01*
X140485295Y-63065385D01*
X140368739Y-63152739D01*
X140281385Y-63269295D01*
X140230255Y-63405684D01*
X140223500Y-63467866D01*
X140223500Y-65564134D01*
X101164705Y-65564134D01*
X101164705Y-64020111D01*
X106379500Y-64020111D01*
X106386255Y-64082293D01*
X106437385Y-64218682D01*
X106524739Y-64335238D01*
X106641295Y-64422592D01*
X106777684Y-64473722D01*
X106839866Y-64480477D01*
X109536134Y-64480477D01*
X109598316Y-64473722D01*
X109734705Y-64422592D01*
X109851261Y-64335238D01*
X109938615Y-64218682D01*
X109989745Y-64082293D01*
X109996500Y-64020111D01*
X109996500Y-61323843D01*
X109989745Y-61261661D01*
X109938615Y-61125272D01*
X109851261Y-61008716D01*
X109734705Y-60921362D01*
X109598316Y-60870232D01*
X109536134Y-60863477D01*
X106839866Y-60863477D01*
X106777684Y-60870232D01*
X106641295Y-60921362D01*
X106524739Y-61008716D01*
X106437385Y-61125272D01*
X106386255Y-61261661D01*
X106379500Y-61323843D01*
X106379500Y-64020111D01*
X101164705Y-64020111D01*
X101164705Y-59516000D01*
X140218835Y-59516000D01*
X140237465Y-59752711D01*
X140292895Y-59983594D01*
X140383760Y-60202963D01*
X140386346Y-60207183D01*
X140505241Y-60401202D01*
X140505245Y-60401208D01*
X140507824Y-60405416D01*
X140662031Y-60585969D01*
X140842584Y-60740176D01*
X140846792Y-60742755D01*
X140846798Y-60742759D01*
X141009556Y-60842497D01*
X141045037Y-60864240D01*
X141049607Y-60866133D01*
X141049611Y-60866135D01*
X141259833Y-60953211D01*
X141264406Y-60955105D01*
X141344609Y-60974360D01*
X141490476Y-61009380D01*
X141490482Y-61009381D01*
X141495289Y-61010535D01*
X141732000Y-61029165D01*
X141968711Y-61010535D01*
X141973518Y-61009381D01*
X141973524Y-61009380D01*
X142119391Y-60974360D01*
X142199594Y-60955105D01*
X142204167Y-60953211D01*
X142414389Y-60866135D01*
X142414393Y-60866133D01*
X142418963Y-60864240D01*
X142454444Y-60842497D01*
X142617202Y-60742759D01*
X142617208Y-60742755D01*
X142621416Y-60740176D01*
X142801969Y-60585969D01*
X142956176Y-60405416D01*
X142958755Y-60401208D01*
X142958759Y-60401202D01*
X143077654Y-60207183D01*
X143080240Y-60202963D01*
X143171105Y-59983594D01*
X143226535Y-59752711D01*
X143245165Y-59516000D01*
X143226535Y-59279289D01*
X143171105Y-59048406D01*
X143080240Y-58829037D01*
X143077654Y-58824817D01*
X142958759Y-58630798D01*
X142958755Y-58630792D01*
X142956176Y-58626584D01*
X142801969Y-58446031D01*
X142621416Y-58291824D01*
X142617208Y-58289245D01*
X142617202Y-58289241D01*
X142423183Y-58170346D01*
X142418963Y-58167760D01*
X142414393Y-58165867D01*
X142414389Y-58165865D01*
X142204167Y-58078789D01*
X142204165Y-58078788D01*
X142199594Y-58076895D01*
X142119391Y-58057640D01*
X141973524Y-58022620D01*
X141973518Y-58022619D01*
X141968711Y-58021465D01*
X141732000Y-58002835D01*
X141495289Y-58021465D01*
X141490482Y-58022619D01*
X141490476Y-58022620D01*
X141344609Y-58057640D01*
X141264406Y-58076895D01*
X141259835Y-58078788D01*
X141259833Y-58078789D01*
X141049611Y-58165865D01*
X141049607Y-58165867D01*
X141045037Y-58167760D01*
X141040817Y-58170346D01*
X140846798Y-58289241D01*
X140846792Y-58289245D01*
X140842584Y-58291824D01*
X140662031Y-58446031D01*
X140507824Y-58626584D01*
X140505245Y-58630792D01*
X140505241Y-58630798D01*
X140386346Y-58824817D01*
X140383760Y-58829037D01*
X140292895Y-59048406D01*
X140237465Y-59279289D01*
X140218835Y-59516000D01*
X101164705Y-59516000D01*
X101164705Y-58681589D01*
X101184707Y-58613468D01*
X101201315Y-58592789D01*
X107318804Y-52434664D01*
X107381003Y-52400433D01*
X107408191Y-52397464D01*
X122482802Y-52397126D01*
X141174642Y-52396706D01*
X141194020Y-52398205D01*
G37*
%TD.AperFunction*%
%TD*%
M02*
